<?xml version="1.0" encoding="utf-8" standalone="no"?>
<!DOCTYPE svg PUBLIC "-//W3C//DTD SVG 1.1//EN"
  "http://www.w3.org/Graphics/SVG/1.1/DTD/svg11.dtd">
<!-- Created with matplotlib (http://matplotlib.org/) -->
<svg height="576pt" version="1.1" viewBox="0 0 1152 576" width="1152pt" xmlns="http://www.w3.org/2000/svg" xmlns:xlink="http://www.w3.org/1999/xlink">
 <defs>
  <style type="text/css">
*{stroke-linecap:butt;stroke-linejoin:round;}
  </style>
 </defs>
 <g id="figure_1">
  <g id="patch_1">
   <path d="M 0 576 
L 1152 576 
L 1152 0 
L 0 0 
z
" style="fill:#ffffff;"/>
  </g>
  <g id="axes_1">
   <g id="patch_2">
    <path d="M 57.630082 529.72 
L 1138.68 529.72 
L 1138.68 13.32 
L 57.630082 13.32 
z
" style="fill:#e5e5e5;"/>
   </g>
   <g id="matplotlib.axis_1">
    <g id="xtick_1">
     <g id="line2d_1">
      <path clip-path="url(#p90350a2b16)" d="M 102.673829 529.72 
L 102.673829 13.32 
" style="fill:none;stroke:#ffffff;stroke-linecap:square;stroke-width:0.8;"/>
     </g>
     <g id="line2d_2">
      <defs>
       <path d="M 0 0 
L 0 3.5 
" id="m5bb42da591" style="stroke:#555555;stroke-width:0.8;"/>
      </defs>
      <g>
       <use style="fill:#555555;stroke:#555555;stroke-width:0.8;" x="102.673829" xlink:href="#m5bb42da591" y="529.72"/>
      </g>
     </g>
     <g id="text_1">
      <!-- 10 -->
      <defs>
       <path d="M 12.40625 8.296875 
L 28.515625 8.296875 
L 28.515625 63.921875 
L 10.984375 60.40625 
L 10.984375 69.390625 
L 28.421875 72.90625 
L 38.28125 72.90625 
L 38.28125 8.296875 
L 54.390625 8.296875 
L 54.390625 0 
L 12.40625 0 
z
" id="DejaVuSans-31"/>
       <path d="M 31.78125 66.40625 
Q 24.171875 66.40625 20.328125 58.90625 
Q 16.5 51.421875 16.5 36.375 
Q 16.5 21.390625 20.328125 13.890625 
Q 24.171875 6.390625 31.78125 6.390625 
Q 39.453125 6.390625 43.28125 13.890625 
Q 47.125 21.390625 47.125 36.375 
Q 47.125 51.421875 43.28125 58.90625 
Q 39.453125 66.40625 31.78125 66.40625 
z
M 31.78125 74.21875 
Q 44.046875 74.21875 50.515625 64.515625 
Q 56.984375 54.828125 56.984375 36.375 
Q 56.984375 17.96875 50.515625 8.265625 
Q 44.046875 -1.421875 31.78125 -1.421875 
Q 19.53125 -1.421875 13.0625 8.265625 
Q 6.59375 17.96875 6.59375 36.375 
Q 6.59375 54.828125 13.0625 64.515625 
Q 19.53125 74.21875 31.78125 74.21875 
z
" id="DejaVuSans-30"/>
      </defs>
      <g style="fill:#555555;" transform="translate(93.766329 547.357813)scale(0.14 -0.14)">
       <use xlink:href="#DejaVuSans-31"/>
       <use x="63.623047" xlink:href="#DejaVuSans-30"/>
      </g>
     </g>
    </g>
    <g id="xtick_2">
     <g id="line2d_3">
      <path clip-path="url(#p90350a2b16)" d="M 192.761322 529.72 
L 192.761322 13.32 
" style="fill:none;stroke:#ffffff;stroke-linecap:square;stroke-width:0.8;"/>
     </g>
     <g id="line2d_4">
      <g>
       <use style="fill:#555555;stroke:#555555;stroke-width:0.8;" x="192.761322" xlink:href="#m5bb42da591" y="529.72"/>
      </g>
     </g>
     <g id="text_2">
      <!-- 20 -->
      <defs>
       <path d="M 19.1875 8.296875 
L 53.609375 8.296875 
L 53.609375 0 
L 7.328125 0 
L 7.328125 8.296875 
Q 12.9375 14.109375 22.625 23.890625 
Q 32.328125 33.6875 34.8125 36.53125 
Q 39.546875 41.84375 41.421875 45.53125 
Q 43.3125 49.21875 43.3125 52.78125 
Q 43.3125 58.59375 39.234375 62.25 
Q 35.15625 65.921875 28.609375 65.921875 
Q 23.96875 65.921875 18.8125 64.3125 
Q 13.671875 62.703125 7.8125 59.421875 
L 7.8125 69.390625 
Q 13.765625 71.78125 18.9375 73 
Q 24.125 74.21875 28.421875 74.21875 
Q 39.75 74.21875 46.484375 68.546875 
Q 53.21875 62.890625 53.21875 53.421875 
Q 53.21875 48.921875 51.53125 44.890625 
Q 49.859375 40.875 45.40625 35.40625 
Q 44.1875 33.984375 37.640625 27.21875 
Q 31.109375 20.453125 19.1875 8.296875 
z
" id="DejaVuSans-32"/>
      </defs>
      <g style="fill:#555555;" transform="translate(183.853822 547.357813)scale(0.14 -0.14)">
       <use xlink:href="#DejaVuSans-32"/>
       <use x="63.623047" xlink:href="#DejaVuSans-30"/>
      </g>
     </g>
    </g>
    <g id="xtick_3">
     <g id="line2d_5">
      <path clip-path="url(#p90350a2b16)" d="M 282.848815 529.72 
L 282.848815 13.32 
" style="fill:none;stroke:#ffffff;stroke-linecap:square;stroke-width:0.8;"/>
     </g>
     <g id="line2d_6">
      <g>
       <use style="fill:#555555;stroke:#555555;stroke-width:0.8;" x="282.848815" xlink:href="#m5bb42da591" y="529.72"/>
      </g>
     </g>
     <g id="text_3">
      <!-- 30 -->
      <defs>
       <path d="M 40.578125 39.3125 
Q 47.65625 37.796875 51.625 33 
Q 55.609375 28.21875 55.609375 21.1875 
Q 55.609375 10.40625 48.1875 4.484375 
Q 40.765625 -1.421875 27.09375 -1.421875 
Q 22.515625 -1.421875 17.65625 -0.515625 
Q 12.796875 0.390625 7.625 2.203125 
L 7.625 11.71875 
Q 11.71875 9.328125 16.59375 8.109375 
Q 21.484375 6.890625 26.8125 6.890625 
Q 36.078125 6.890625 40.9375 10.546875 
Q 45.796875 14.203125 45.796875 21.1875 
Q 45.796875 27.640625 41.28125 31.265625 
Q 36.765625 34.90625 28.71875 34.90625 
L 20.21875 34.90625 
L 20.21875 43.015625 
L 29.109375 43.015625 
Q 36.375 43.015625 40.234375 45.921875 
Q 44.09375 48.828125 44.09375 54.296875 
Q 44.09375 59.90625 40.109375 62.90625 
Q 36.140625 65.921875 28.71875 65.921875 
Q 24.65625 65.921875 20.015625 65.03125 
Q 15.375 64.15625 9.8125 62.3125 
L 9.8125 71.09375 
Q 15.4375 72.65625 20.34375 73.4375 
Q 25.25 74.21875 29.59375 74.21875 
Q 40.828125 74.21875 47.359375 69.109375 
Q 53.90625 64.015625 53.90625 55.328125 
Q 53.90625 49.265625 50.4375 45.09375 
Q 46.96875 40.921875 40.578125 39.3125 
z
" id="DejaVuSans-33"/>
      </defs>
      <g style="fill:#555555;" transform="translate(273.941315 547.357813)scale(0.14 -0.14)">
       <use xlink:href="#DejaVuSans-33"/>
       <use x="63.623047" xlink:href="#DejaVuSans-30"/>
      </g>
     </g>
    </g>
    <g id="xtick_4">
     <g id="line2d_7">
      <path clip-path="url(#p90350a2b16)" d="M 372.936308 529.72 
L 372.936308 13.32 
" style="fill:none;stroke:#ffffff;stroke-linecap:square;stroke-width:0.8;"/>
     </g>
     <g id="line2d_8">
      <g>
       <use style="fill:#555555;stroke:#555555;stroke-width:0.8;" x="372.936308" xlink:href="#m5bb42da591" y="529.72"/>
      </g>
     </g>
     <g id="text_4">
      <!-- 40 -->
      <defs>
       <path d="M 37.796875 64.3125 
L 12.890625 25.390625 
L 37.796875 25.390625 
z
M 35.203125 72.90625 
L 47.609375 72.90625 
L 47.609375 25.390625 
L 58.015625 25.390625 
L 58.015625 17.1875 
L 47.609375 17.1875 
L 47.609375 0 
L 37.796875 0 
L 37.796875 17.1875 
L 4.890625 17.1875 
L 4.890625 26.703125 
z
" id="DejaVuSans-34"/>
      </defs>
      <g style="fill:#555555;" transform="translate(364.028808 547.357813)scale(0.14 -0.14)">
       <use xlink:href="#DejaVuSans-34"/>
       <use x="63.623047" xlink:href="#DejaVuSans-30"/>
      </g>
     </g>
    </g>
    <g id="xtick_5">
     <g id="line2d_9">
      <path clip-path="url(#p90350a2b16)" d="M 463.023801 529.72 
L 463.023801 13.32 
" style="fill:none;stroke:#ffffff;stroke-linecap:square;stroke-width:0.8;"/>
     </g>
     <g id="line2d_10">
      <g>
       <use style="fill:#555555;stroke:#555555;stroke-width:0.8;" x="463.023801" xlink:href="#m5bb42da591" y="529.72"/>
      </g>
     </g>
     <g id="text_5">
      <!-- 50 -->
      <defs>
       <path d="M 10.796875 72.90625 
L 49.515625 72.90625 
L 49.515625 64.59375 
L 19.828125 64.59375 
L 19.828125 46.734375 
Q 21.96875 47.46875 24.109375 47.828125 
Q 26.265625 48.1875 28.421875 48.1875 
Q 40.625 48.1875 47.75 41.5 
Q 54.890625 34.8125 54.890625 23.390625 
Q 54.890625 11.625 47.5625 5.09375 
Q 40.234375 -1.421875 26.90625 -1.421875 
Q 22.3125 -1.421875 17.546875 -0.640625 
Q 12.796875 0.140625 7.71875 1.703125 
L 7.71875 11.625 
Q 12.109375 9.234375 16.796875 8.0625 
Q 21.484375 6.890625 26.703125 6.890625 
Q 35.15625 6.890625 40.078125 11.328125 
Q 45.015625 15.765625 45.015625 23.390625 
Q 45.015625 31 40.078125 35.4375 
Q 35.15625 39.890625 26.703125 39.890625 
Q 22.75 39.890625 18.8125 39.015625 
Q 14.890625 38.140625 10.796875 36.28125 
z
" id="DejaVuSans-35"/>
      </defs>
      <g style="fill:#555555;" transform="translate(454.116301 547.357813)scale(0.14 -0.14)">
       <use xlink:href="#DejaVuSans-35"/>
       <use x="63.623047" xlink:href="#DejaVuSans-30"/>
      </g>
     </g>
    </g>
    <g id="xtick_6">
     <g id="line2d_11">
      <path clip-path="url(#p90350a2b16)" d="M 553.111294 529.72 
L 553.111294 13.32 
" style="fill:none;stroke:#ffffff;stroke-linecap:square;stroke-width:0.8;"/>
     </g>
     <g id="line2d_12">
      <g>
       <use style="fill:#555555;stroke:#555555;stroke-width:0.8;" x="553.111294" xlink:href="#m5bb42da591" y="529.72"/>
      </g>
     </g>
     <g id="text_6">
      <!-- 100 -->
      <g style="fill:#555555;" transform="translate(539.750044 547.357813)scale(0.14 -0.14)">
       <use xlink:href="#DejaVuSans-31"/>
       <use x="63.623047" xlink:href="#DejaVuSans-30"/>
       <use x="127.246094" xlink:href="#DejaVuSans-30"/>
      </g>
     </g>
    </g>
    <g id="xtick_7">
     <g id="line2d_13">
      <path clip-path="url(#p90350a2b16)" d="M 643.198788 529.72 
L 643.198788 13.32 
" style="fill:none;stroke:#ffffff;stroke-linecap:square;stroke-width:0.8;"/>
     </g>
     <g id="line2d_14">
      <g>
       <use style="fill:#555555;stroke:#555555;stroke-width:0.8;" x="643.198788" xlink:href="#m5bb42da591" y="529.72"/>
      </g>
     </g>
     <g id="text_7">
      <!-- 200 -->
      <g style="fill:#555555;" transform="translate(629.837538 547.357813)scale(0.14 -0.14)">
       <use xlink:href="#DejaVuSans-32"/>
       <use x="63.623047" xlink:href="#DejaVuSans-30"/>
       <use x="127.246094" xlink:href="#DejaVuSans-30"/>
      </g>
     </g>
    </g>
    <g id="xtick_8">
     <g id="line2d_15">
      <path clip-path="url(#p90350a2b16)" d="M 733.286281 529.72 
L 733.286281 13.32 
" style="fill:none;stroke:#ffffff;stroke-linecap:square;stroke-width:0.8;"/>
     </g>
     <g id="line2d_16">
      <g>
       <use style="fill:#555555;stroke:#555555;stroke-width:0.8;" x="733.286281" xlink:href="#m5bb42da591" y="529.72"/>
      </g>
     </g>
     <g id="text_8">
      <!-- 400 -->
      <g style="fill:#555555;" transform="translate(719.925031 547.357813)scale(0.14 -0.14)">
       <use xlink:href="#DejaVuSans-34"/>
       <use x="63.623047" xlink:href="#DejaVuSans-30"/>
       <use x="127.246094" xlink:href="#DejaVuSans-30"/>
      </g>
     </g>
    </g>
    <g id="xtick_9">
     <g id="line2d_17">
      <path clip-path="url(#p90350a2b16)" d="M 823.373774 529.72 
L 823.373774 13.32 
" style="fill:none;stroke:#ffffff;stroke-linecap:square;stroke-width:0.8;"/>
     </g>
     <g id="line2d_18">
      <g>
       <use style="fill:#555555;stroke:#555555;stroke-width:0.8;" x="823.373774" xlink:href="#m5bb42da591" y="529.72"/>
      </g>
     </g>
     <g id="text_9">
      <!-- 800 -->
      <defs>
       <path d="M 31.78125 34.625 
Q 24.75 34.625 20.71875 30.859375 
Q 16.703125 27.09375 16.703125 20.515625 
Q 16.703125 13.921875 20.71875 10.15625 
Q 24.75 6.390625 31.78125 6.390625 
Q 38.8125 6.390625 42.859375 10.171875 
Q 46.921875 13.96875 46.921875 20.515625 
Q 46.921875 27.09375 42.890625 30.859375 
Q 38.875 34.625 31.78125 34.625 
z
M 21.921875 38.8125 
Q 15.578125 40.375 12.03125 44.71875 
Q 8.5 49.078125 8.5 55.328125 
Q 8.5 64.0625 14.71875 69.140625 
Q 20.953125 74.21875 31.78125 74.21875 
Q 42.671875 74.21875 48.875 69.140625 
Q 55.078125 64.0625 55.078125 55.328125 
Q 55.078125 49.078125 51.53125 44.71875 
Q 48 40.375 41.703125 38.8125 
Q 48.828125 37.15625 52.796875 32.3125 
Q 56.78125 27.484375 56.78125 20.515625 
Q 56.78125 9.90625 50.3125 4.234375 
Q 43.84375 -1.421875 31.78125 -1.421875 
Q 19.734375 -1.421875 13.25 4.234375 
Q 6.78125 9.90625 6.78125 20.515625 
Q 6.78125 27.484375 10.78125 32.3125 
Q 14.796875 37.15625 21.921875 38.8125 
z
M 18.3125 54.390625 
Q 18.3125 48.734375 21.84375 45.5625 
Q 25.390625 42.390625 31.78125 42.390625 
Q 38.140625 42.390625 41.71875 45.5625 
Q 45.3125 48.734375 45.3125 54.390625 
Q 45.3125 60.0625 41.71875 63.234375 
Q 38.140625 66.40625 31.78125 66.40625 
Q 25.390625 66.40625 21.84375 63.234375 
Q 18.3125 60.0625 18.3125 54.390625 
z
" id="DejaVuSans-38"/>
      </defs>
      <g style="fill:#555555;" transform="translate(810.012524 547.357813)scale(0.14 -0.14)">
       <use xlink:href="#DejaVuSans-38"/>
       <use x="63.623047" xlink:href="#DejaVuSans-30"/>
       <use x="127.246094" xlink:href="#DejaVuSans-30"/>
      </g>
     </g>
    </g>
    <g id="xtick_10">
     <g id="line2d_19">
      <path clip-path="url(#p90350a2b16)" d="M 913.461267 529.72 
L 913.461267 13.32 
" style="fill:none;stroke:#ffffff;stroke-linecap:square;stroke-width:0.8;"/>
     </g>
     <g id="line2d_20">
      <g>
       <use style="fill:#555555;stroke:#555555;stroke-width:0.8;" x="913.461267" xlink:href="#m5bb42da591" y="529.72"/>
      </g>
     </g>
     <g id="text_10">
      <!-- 1600 -->
      <defs>
       <path d="M 33.015625 40.375 
Q 26.375 40.375 22.484375 35.828125 
Q 18.609375 31.296875 18.609375 23.390625 
Q 18.609375 15.53125 22.484375 10.953125 
Q 26.375 6.390625 33.015625 6.390625 
Q 39.65625 6.390625 43.53125 10.953125 
Q 47.40625 15.53125 47.40625 23.390625 
Q 47.40625 31.296875 43.53125 35.828125 
Q 39.65625 40.375 33.015625 40.375 
z
M 52.59375 71.296875 
L 52.59375 62.3125 
Q 48.875 64.0625 45.09375 64.984375 
Q 41.3125 65.921875 37.59375 65.921875 
Q 27.828125 65.921875 22.671875 59.328125 
Q 17.53125 52.734375 16.796875 39.40625 
Q 19.671875 43.65625 24.015625 45.921875 
Q 28.375 48.1875 33.59375 48.1875 
Q 44.578125 48.1875 50.953125 41.515625 
Q 57.328125 34.859375 57.328125 23.390625 
Q 57.328125 12.15625 50.6875 5.359375 
Q 44.046875 -1.421875 33.015625 -1.421875 
Q 20.359375 -1.421875 13.671875 8.265625 
Q 6.984375 17.96875 6.984375 36.375 
Q 6.984375 53.65625 15.1875 63.9375 
Q 23.390625 74.21875 37.203125 74.21875 
Q 40.921875 74.21875 44.703125 73.484375 
Q 48.484375 72.75 52.59375 71.296875 
z
" id="DejaVuSans-36"/>
      </defs>
      <g style="fill:#555555;" transform="translate(895.646267 547.357813)scale(0.14 -0.14)">
       <use xlink:href="#DejaVuSans-31"/>
       <use x="63.623047" xlink:href="#DejaVuSans-36"/>
       <use x="127.246094" xlink:href="#DejaVuSans-30"/>
       <use x="190.869141" xlink:href="#DejaVuSans-30"/>
      </g>
     </g>
    </g>
    <g id="xtick_11">
     <g id="line2d_21">
      <path clip-path="url(#p90350a2b16)" d="M 1003.54876 529.72 
L 1003.54876 13.32 
" style="fill:none;stroke:#ffffff;stroke-linecap:square;stroke-width:0.8;"/>
     </g>
     <g id="line2d_22">
      <g>
       <use style="fill:#555555;stroke:#555555;stroke-width:0.8;" x="1003.54876" xlink:href="#m5bb42da591" y="529.72"/>
      </g>
     </g>
     <g id="text_11">
      <!-- 3200 -->
      <g style="fill:#555555;" transform="translate(985.73376 547.357813)scale(0.14 -0.14)">
       <use xlink:href="#DejaVuSans-33"/>
       <use x="63.623047" xlink:href="#DejaVuSans-32"/>
       <use x="127.246094" xlink:href="#DejaVuSans-30"/>
       <use x="190.869141" xlink:href="#DejaVuSans-30"/>
      </g>
     </g>
    </g>
    <g id="xtick_12">
     <g id="line2d_23">
      <path clip-path="url(#p90350a2b16)" d="M 1093.636253 529.72 
L 1093.636253 13.32 
" style="fill:none;stroke:#ffffff;stroke-linecap:square;stroke-width:0.8;"/>
     </g>
     <g id="line2d_24">
      <g>
       <use style="fill:#555555;stroke:#555555;stroke-width:0.8;" x="1093.636253" xlink:href="#m5bb42da591" y="529.72"/>
      </g>
     </g>
     <g id="text_12">
      <!-- 6400 -->
      <g style="fill:#555555;" transform="translate(1075.821253 547.357813)scale(0.14 -0.14)">
       <use xlink:href="#DejaVuSans-36"/>
       <use x="63.623047" xlink:href="#DejaVuSans-34"/>
       <use x="127.246094" xlink:href="#DejaVuSans-30"/>
       <use x="190.869141" xlink:href="#DejaVuSans-30"/>
      </g>
     </g>
    </g>
    <g id="text_13">
     <!-- digits -->
     <defs>
      <path d="M 45.40625 46.390625 
L 45.40625 75.984375 
L 54.390625 75.984375 
L 54.390625 0 
L 45.40625 0 
L 45.40625 8.203125 
Q 42.578125 3.328125 38.25 0.953125 
Q 33.9375 -1.421875 27.875 -1.421875 
Q 17.96875 -1.421875 11.734375 6.484375 
Q 5.515625 14.40625 5.515625 27.296875 
Q 5.515625 40.1875 11.734375 48.09375 
Q 17.96875 56 27.875 56 
Q 33.9375 56 38.25 53.625 
Q 42.578125 51.265625 45.40625 46.390625 
z
M 14.796875 27.296875 
Q 14.796875 17.390625 18.875 11.75 
Q 22.953125 6.109375 30.078125 6.109375 
Q 37.203125 6.109375 41.296875 11.75 
Q 45.40625 17.390625 45.40625 27.296875 
Q 45.40625 37.203125 41.296875 42.84375 
Q 37.203125 48.484375 30.078125 48.484375 
Q 22.953125 48.484375 18.875 42.84375 
Q 14.796875 37.203125 14.796875 27.296875 
z
" id="DejaVuSans-64"/>
      <path d="M 9.421875 54.6875 
L 18.40625 54.6875 
L 18.40625 0 
L 9.421875 0 
z
M 9.421875 75.984375 
L 18.40625 75.984375 
L 18.40625 64.59375 
L 9.421875 64.59375 
z
" id="DejaVuSans-69"/>
      <path d="M 45.40625 27.984375 
Q 45.40625 37.75 41.375 43.109375 
Q 37.359375 48.484375 30.078125 48.484375 
Q 22.859375 48.484375 18.828125 43.109375 
Q 14.796875 37.75 14.796875 27.984375 
Q 14.796875 18.265625 18.828125 12.890625 
Q 22.859375 7.515625 30.078125 7.515625 
Q 37.359375 7.515625 41.375 12.890625 
Q 45.40625 18.265625 45.40625 27.984375 
z
M 54.390625 6.78125 
Q 54.390625 -7.171875 48.1875 -13.984375 
Q 42 -20.796875 29.203125 -20.796875 
Q 24.46875 -20.796875 20.265625 -20.09375 
Q 16.0625 -19.390625 12.109375 -17.921875 
L 12.109375 -9.1875 
Q 16.0625 -11.328125 19.921875 -12.34375 
Q 23.78125 -13.375 27.78125 -13.375 
Q 36.625 -13.375 41.015625 -8.765625 
Q 45.40625 -4.15625 45.40625 5.171875 
L 45.40625 9.625 
Q 42.625 4.78125 38.28125 2.390625 
Q 33.9375 0 27.875 0 
Q 17.828125 0 11.671875 7.65625 
Q 5.515625 15.328125 5.515625 27.984375 
Q 5.515625 40.671875 11.671875 48.328125 
Q 17.828125 56 27.875 56 
Q 33.9375 56 38.28125 53.609375 
Q 42.625 51.21875 45.40625 46.390625 
L 45.40625 54.6875 
L 54.390625 54.6875 
z
" id="DejaVuSans-67"/>
      <path d="M 18.3125 70.21875 
L 18.3125 54.6875 
L 36.8125 54.6875 
L 36.8125 47.703125 
L 18.3125 47.703125 
L 18.3125 18.015625 
Q 18.3125 11.328125 20.140625 9.421875 
Q 21.96875 7.515625 27.59375 7.515625 
L 36.8125 7.515625 
L 36.8125 0 
L 27.59375 0 
Q 17.1875 0 13.234375 3.875 
Q 9.28125 7.765625 9.28125 18.015625 
L 9.28125 47.703125 
L 2.6875 47.703125 
L 2.6875 54.6875 
L 9.28125 54.6875 
L 9.28125 70.21875 
z
" id="DejaVuSans-74"/>
      <path d="M 44.28125 53.078125 
L 44.28125 44.578125 
Q 40.484375 46.53125 36.375 47.5 
Q 32.28125 48.484375 27.875 48.484375 
Q 21.1875 48.484375 17.84375 46.4375 
Q 14.5 44.390625 14.5 40.28125 
Q 14.5 37.15625 16.890625 35.375 
Q 19.28125 33.59375 26.515625 31.984375 
L 29.59375 31.296875 
Q 39.15625 29.25 43.1875 25.515625 
Q 47.21875 21.78125 47.21875 15.09375 
Q 47.21875 7.46875 41.1875 3.015625 
Q 35.15625 -1.421875 24.609375 -1.421875 
Q 20.21875 -1.421875 15.453125 -0.5625 
Q 10.6875 0.296875 5.421875 2 
L 5.421875 11.28125 
Q 10.40625 8.6875 15.234375 7.390625 
Q 20.0625 6.109375 24.8125 6.109375 
Q 31.15625 6.109375 34.5625 8.28125 
Q 37.984375 10.453125 37.984375 14.40625 
Q 37.984375 18.0625 35.515625 20.015625 
Q 33.0625 21.96875 24.703125 23.78125 
L 21.578125 24.515625 
Q 13.234375 26.265625 9.515625 29.90625 
Q 5.8125 33.546875 5.8125 39.890625 
Q 5.8125 47.609375 11.28125 51.796875 
Q 16.75 56 26.8125 56 
Q 31.78125 56 36.171875 55.265625 
Q 40.578125 54.546875 44.28125 53.078125 
z
" id="DejaVuSans-73"/>
     </defs>
     <g style="fill:#555555;" transform="translate(581.725353 563.3875)scale(0.12 -0.12)">
      <use xlink:href="#DejaVuSans-64"/>
      <use x="63.476562" xlink:href="#DejaVuSans-69"/>
      <use x="91.259766" xlink:href="#DejaVuSans-67"/>
      <use x="154.736328" xlink:href="#DejaVuSans-69"/>
      <use x="182.519531" xlink:href="#DejaVuSans-74"/>
      <use x="221.728516" xlink:href="#DejaVuSans-73"/>
     </g>
    </g>
   </g>
   <g id="matplotlib.axis_2">
    <g id="ytick_1">
     <g id="line2d_25">
      <path clip-path="url(#p90350a2b16)" d="M 57.630082 471.698793 
L 1138.68 471.698793 
" style="fill:none;stroke:#ffffff;stroke-linecap:square;stroke-width:0.8;"/>
     </g>
     <g id="line2d_26">
      <defs>
       <path d="M 0 0 
L -3.5 0 
" id="me96c17b781" style="stroke:#555555;stroke-width:0.8;"/>
      </defs>
      <g>
       <use style="fill:#555555;stroke:#555555;stroke-width:0.8;" x="57.630082" xlink:href="#me96c17b781" y="471.698793"/>
      </g>
     </g>
     <g id="text_14">
      <!-- $\mathdefault{10^{2}}$ -->
      <g style="fill:#555555;" transform="translate(25.990082 477.0177)scale(0.14 -0.14)">
       <use transform="translate(0 0.765625)" xlink:href="#DejaVuSans-31"/>
       <use transform="translate(63.623047 0.765625)" xlink:href="#DejaVuSans-30"/>
       <use transform="translate(128.203125 39.046875)scale(0.7)" xlink:href="#DejaVuSans-32"/>
      </g>
     </g>
    </g>
    <g id="ytick_2">
     <g id="line2d_27">
      <path clip-path="url(#p90350a2b16)" d="M 57.630082 342.596873 
L 1138.68 342.596873 
" style="fill:none;stroke:#ffffff;stroke-linecap:square;stroke-width:0.8;"/>
     </g>
     <g id="line2d_28">
      <g>
       <use style="fill:#555555;stroke:#555555;stroke-width:0.8;" x="57.630082" xlink:href="#me96c17b781" y="342.596873"/>
      </g>
     </g>
     <g id="text_15">
      <!-- $\mathdefault{10^{3}}$ -->
      <g style="fill:#555555;" transform="translate(25.990082 347.915779)scale(0.14 -0.14)">
       <use transform="translate(0 0.765625)" xlink:href="#DejaVuSans-31"/>
       <use transform="translate(63.623047 0.765625)" xlink:href="#DejaVuSans-30"/>
       <use transform="translate(128.203125 39.046875)scale(0.7)" xlink:href="#DejaVuSans-33"/>
      </g>
     </g>
    </g>
    <g id="ytick_3">
     <g id="line2d_29">
      <path clip-path="url(#p90350a2b16)" d="M 57.630082 213.494953 
L 1138.68 213.494953 
" style="fill:none;stroke:#ffffff;stroke-linecap:square;stroke-width:0.8;"/>
     </g>
     <g id="line2d_30">
      <g>
       <use style="fill:#555555;stroke:#555555;stroke-width:0.8;" x="57.630082" xlink:href="#me96c17b781" y="213.494953"/>
      </g>
     </g>
     <g id="text_16">
      <!-- $\mathdefault{10^{4}}$ -->
      <g style="fill:#555555;" transform="translate(25.990082 218.813859)scale(0.14 -0.14)">
       <use transform="translate(0 0.684375)" xlink:href="#DejaVuSans-31"/>
       <use transform="translate(63.623047 0.684375)" xlink:href="#DejaVuSans-30"/>
       <use transform="translate(128.203125 38.965625)scale(0.7)" xlink:href="#DejaVuSans-34"/>
      </g>
     </g>
    </g>
    <g id="ytick_4">
     <g id="line2d_31">
      <path clip-path="url(#p90350a2b16)" d="M 57.630082 84.393033 
L 1138.68 84.393033 
" style="fill:none;stroke:#ffffff;stroke-linecap:square;stroke-width:0.8;"/>
     </g>
     <g id="line2d_32">
      <g>
       <use style="fill:#555555;stroke:#555555;stroke-width:0.8;" x="57.630082" xlink:href="#me96c17b781" y="84.393033"/>
      </g>
     </g>
     <g id="text_17">
      <!-- $\mathdefault{10^{5}}$ -->
      <g style="fill:#555555;" transform="translate(25.990082 89.711939)scale(0.14 -0.14)">
       <use transform="translate(0 0.684375)" xlink:href="#DejaVuSans-31"/>
       <use transform="translate(63.623047 0.684375)" xlink:href="#DejaVuSans-30"/>
       <use transform="translate(128.203125 38.965625)scale(0.7)" xlink:href="#DejaVuSans-35"/>
      </g>
     </g>
    </g>
    <g id="ytick_5">
     <g id="line2d_33">
      <defs>
       <path d="M 0 0 
L -2 0 
" id="mfafad44f06" style="stroke:#555555;stroke-width:0.6;"/>
      </defs>
      <g>
       <use style="fill:#555555;stroke:#555555;stroke-width:0.6;" x="57.630082" xlink:href="#mfafad44f06" y="523.073613"/>
      </g>
     </g>
    </g>
    <g id="ytick_6">
     <g id="line2d_34">
      <g>
       <use style="fill:#555555;stroke:#555555;stroke-width:0.6;" x="57.630082" xlink:href="#mfafad44f06" y="510.562344"/>
      </g>
     </g>
    </g>
    <g id="ytick_7">
     <g id="line2d_35">
      <g>
       <use style="fill:#555555;stroke:#555555;stroke-width:0.6;" x="57.630082" xlink:href="#mfafad44f06" y="500.339893"/>
      </g>
     </g>
    </g>
    <g id="ytick_8">
     <g id="line2d_36">
      <g>
       <use style="fill:#555555;stroke:#555555;stroke-width:0.6;" x="57.630082" xlink:href="#mfafad44f06" y="491.696934"/>
      </g>
     </g>
    </g>
    <g id="ytick_9">
     <g id="line2d_37">
      <g>
       <use style="fill:#555555;stroke:#555555;stroke-width:0.6;" x="57.630082" xlink:href="#mfafad44f06" y="484.210062"/>
      </g>
     </g>
    </g>
    <g id="ytick_10">
     <g id="line2d_38">
      <g>
       <use style="fill:#555555;stroke:#555555;stroke-width:0.6;" x="57.630082" xlink:href="#mfafad44f06" y="477.606173"/>
      </g>
     </g>
    </g>
    <g id="ytick_11">
     <g id="line2d_39">
      <g>
       <use style="fill:#555555;stroke:#555555;stroke-width:0.6;" x="57.630082" xlink:href="#mfafad44f06" y="432.835243"/>
      </g>
     </g>
    </g>
    <g id="ytick_12">
     <g id="line2d_40">
      <g>
       <use style="fill:#555555;stroke:#555555;stroke-width:0.6;" x="57.630082" xlink:href="#mfafad44f06" y="410.101523"/>
      </g>
     </g>
    </g>
    <g id="ytick_13">
     <g id="line2d_41">
      <g>
       <use style="fill:#555555;stroke:#555555;stroke-width:0.6;" x="57.630082" xlink:href="#mfafad44f06" y="393.971692"/>
      </g>
     </g>
    </g>
    <g id="ytick_14">
     <g id="line2d_42">
      <g>
       <use style="fill:#555555;stroke:#555555;stroke-width:0.6;" x="57.630082" xlink:href="#mfafad44f06" y="381.460424"/>
      </g>
     </g>
    </g>
    <g id="ytick_15">
     <g id="line2d_43">
      <g>
       <use style="fill:#555555;stroke:#555555;stroke-width:0.6;" x="57.630082" xlink:href="#mfafad44f06" y="371.237973"/>
      </g>
     </g>
    </g>
    <g id="ytick_16">
     <g id="line2d_44">
      <g>
       <use style="fill:#555555;stroke:#555555;stroke-width:0.6;" x="57.630082" xlink:href="#mfafad44f06" y="362.595014"/>
      </g>
     </g>
    </g>
    <g id="ytick_17">
     <g id="line2d_45">
      <g>
       <use style="fill:#555555;stroke:#555555;stroke-width:0.6;" x="57.630082" xlink:href="#mfafad44f06" y="355.108142"/>
      </g>
     </g>
    </g>
    <g id="ytick_18">
     <g id="line2d_46">
      <g>
       <use style="fill:#555555;stroke:#555555;stroke-width:0.6;" x="57.630082" xlink:href="#mfafad44f06" y="348.504253"/>
      </g>
     </g>
    </g>
    <g id="ytick_19">
     <g id="line2d_47">
      <g>
       <use style="fill:#555555;stroke:#555555;stroke-width:0.6;" x="57.630082" xlink:href="#mfafad44f06" y="303.733323"/>
      </g>
     </g>
    </g>
    <g id="ytick_20">
     <g id="line2d_48">
      <g>
       <use style="fill:#555555;stroke:#555555;stroke-width:0.6;" x="57.630082" xlink:href="#mfafad44f06" y="280.999603"/>
      </g>
     </g>
    </g>
    <g id="ytick_21">
     <g id="line2d_49">
      <g>
       <use style="fill:#555555;stroke:#555555;stroke-width:0.6;" x="57.630082" xlink:href="#mfafad44f06" y="264.869772"/>
      </g>
     </g>
    </g>
    <g id="ytick_22">
     <g id="line2d_50">
      <g>
       <use style="fill:#555555;stroke:#555555;stroke-width:0.6;" x="57.630082" xlink:href="#mfafad44f06" y="252.358503"/>
      </g>
     </g>
    </g>
    <g id="ytick_23">
     <g id="line2d_51">
      <g>
       <use style="fill:#555555;stroke:#555555;stroke-width:0.6;" x="57.630082" xlink:href="#mfafad44f06" y="242.136052"/>
      </g>
     </g>
    </g>
    <g id="ytick_24">
     <g id="line2d_52">
      <g>
       <use style="fill:#555555;stroke:#555555;stroke-width:0.6;" x="57.630082" xlink:href="#mfafad44f06" y="233.493093"/>
      </g>
     </g>
    </g>
    <g id="ytick_25">
     <g id="line2d_53">
      <g>
       <use style="fill:#555555;stroke:#555555;stroke-width:0.6;" x="57.630082" xlink:href="#mfafad44f06" y="226.006222"/>
      </g>
     </g>
    </g>
    <g id="ytick_26">
     <g id="line2d_54">
      <g>
       <use style="fill:#555555;stroke:#555555;stroke-width:0.6;" x="57.630082" xlink:href="#mfafad44f06" y="219.402333"/>
      </g>
     </g>
    </g>
    <g id="ytick_27">
     <g id="line2d_55">
      <g>
       <use style="fill:#555555;stroke:#555555;stroke-width:0.6;" x="57.630082" xlink:href="#mfafad44f06" y="174.631402"/>
      </g>
     </g>
    </g>
    <g id="ytick_28">
     <g id="line2d_56">
      <g>
       <use style="fill:#555555;stroke:#555555;stroke-width:0.6;" x="57.630082" xlink:href="#mfafad44f06" y="151.897683"/>
      </g>
     </g>
    </g>
    <g id="ytick_29">
     <g id="line2d_57">
      <g>
       <use style="fill:#555555;stroke:#555555;stroke-width:0.6;" x="57.630082" xlink:href="#mfafad44f06" y="135.767852"/>
      </g>
     </g>
    </g>
    <g id="ytick_30">
     <g id="line2d_58">
      <g>
       <use style="fill:#555555;stroke:#555555;stroke-width:0.6;" x="57.630082" xlink:href="#mfafad44f06" y="123.256583"/>
      </g>
     </g>
    </g>
    <g id="ytick_31">
     <g id="line2d_59">
      <g>
       <use style="fill:#555555;stroke:#555555;stroke-width:0.6;" x="57.630082" xlink:href="#mfafad44f06" y="113.034132"/>
      </g>
     </g>
    </g>
    <g id="ytick_32">
     <g id="line2d_60">
      <g>
       <use style="fill:#555555;stroke:#555555;stroke-width:0.6;" x="57.630082" xlink:href="#mfafad44f06" y="104.391173"/>
      </g>
     </g>
    </g>
    <g id="ytick_33">
     <g id="line2d_61">
      <g>
       <use style="fill:#555555;stroke:#555555;stroke-width:0.6;" x="57.630082" xlink:href="#mfafad44f06" y="96.904301"/>
      </g>
     </g>
    </g>
    <g id="ytick_34">
     <g id="line2d_62">
      <g>
       <use style="fill:#555555;stroke:#555555;stroke-width:0.6;" x="57.630082" xlink:href="#mfafad44f06" y="90.300413"/>
      </g>
     </g>
    </g>
    <g id="ytick_35">
     <g id="line2d_63">
      <g>
       <use style="fill:#555555;stroke:#555555;stroke-width:0.6;" x="57.630082" xlink:href="#mfafad44f06" y="45.529482"/>
      </g>
     </g>
    </g>
    <g id="ytick_36">
     <g id="line2d_64">
      <g>
       <use style="fill:#555555;stroke:#555555;stroke-width:0.6;" x="57.630082" xlink:href="#mfafad44f06" y="22.795762"/>
      </g>
     </g>
    </g>
    <g id="text_18">
     <!-- ns/iter -->
     <defs>
      <path d="M 54.890625 33.015625 
L 54.890625 0 
L 45.90625 0 
L 45.90625 32.71875 
Q 45.90625 40.484375 42.875 44.328125 
Q 39.84375 48.1875 33.796875 48.1875 
Q 26.515625 48.1875 22.3125 43.546875 
Q 18.109375 38.921875 18.109375 30.90625 
L 18.109375 0 
L 9.078125 0 
L 9.078125 54.6875 
L 18.109375 54.6875 
L 18.109375 46.1875 
Q 21.34375 51.125 25.703125 53.5625 
Q 30.078125 56 35.796875 56 
Q 45.21875 56 50.046875 50.171875 
Q 54.890625 44.34375 54.890625 33.015625 
z
" id="DejaVuSans-6e"/>
      <path d="M 25.390625 72.90625 
L 33.6875 72.90625 
L 8.296875 -9.28125 
L 0 -9.28125 
z
" id="DejaVuSans-2f"/>
      <path d="M 56.203125 29.59375 
L 56.203125 25.203125 
L 14.890625 25.203125 
Q 15.484375 15.921875 20.484375 11.0625 
Q 25.484375 6.203125 34.421875 6.203125 
Q 39.59375 6.203125 44.453125 7.46875 
Q 49.3125 8.734375 54.109375 11.28125 
L 54.109375 2.78125 
Q 49.265625 0.734375 44.1875 -0.34375 
Q 39.109375 -1.421875 33.890625 -1.421875 
Q 20.796875 -1.421875 13.15625 6.1875 
Q 5.515625 13.8125 5.515625 26.8125 
Q 5.515625 40.234375 12.765625 48.109375 
Q 20.015625 56 32.328125 56 
Q 43.359375 56 49.78125 48.890625 
Q 56.203125 41.796875 56.203125 29.59375 
z
M 47.21875 32.234375 
Q 47.125 39.59375 43.09375 43.984375 
Q 39.0625 48.390625 32.421875 48.390625 
Q 24.90625 48.390625 20.390625 44.140625 
Q 15.875 39.890625 15.1875 32.171875 
z
" id="DejaVuSans-65"/>
      <path d="M 41.109375 46.296875 
Q 39.59375 47.171875 37.8125 47.578125 
Q 36.03125 48 33.890625 48 
Q 26.265625 48 22.1875 43.046875 
Q 18.109375 38.09375 18.109375 28.8125 
L 18.109375 0 
L 9.078125 0 
L 9.078125 54.6875 
L 18.109375 54.6875 
L 18.109375 46.1875 
Q 20.953125 51.171875 25.484375 53.578125 
Q 30.03125 56 36.53125 56 
Q 37.453125 56 38.578125 55.875 
Q 39.703125 55.765625 41.0625 55.515625 
z
" id="DejaVuSans-72"/>
     </defs>
     <g style="fill:#555555;" transform="translate(19.494457 290.646875)rotate(-90)scale(0.12 -0.12)">
      <use xlink:href="#DejaVuSans-6e"/>
      <use x="63.378906" xlink:href="#DejaVuSans-73"/>
      <use x="115.478516" xlink:href="#DejaVuSans-2f"/>
      <use x="149.169922" xlink:href="#DejaVuSans-69"/>
      <use x="176.953125" xlink:href="#DejaVuSans-74"/>
      <use x="216.162109" xlink:href="#DejaVuSans-65"/>
      <use x="277.685547" xlink:href="#DejaVuSans-72"/>
     </g>
    </g>
   </g>
   <g id="patch_3">
    <path clip-path="url(#p90350a2b16)" d="M 80.151955 129831.822846 
L 87.659246 129831.822846 
L 87.659246 506.247273 
L 80.151955 506.247273 
z
" style="fill:#e24a33;"/>
   </g>
   <g id="patch_4">
    <path clip-path="url(#p90350a2b16)" d="M 170.239448 129831.822846 
L 177.746739 129831.822846 
L 177.746739 383.516109 
L 170.239448 383.516109 
z
" style="fill:#e24a33;"/>
   </g>
   <g id="patch_5">
    <path clip-path="url(#p90350a2b16)" d="M 260.326942 129831.822846 
L 267.834233 129831.822846 
L 267.834233 361.563297 
L 260.326942 361.563297 
z
" style="fill:#e24a33;"/>
   </g>
   <g id="patch_6">
    <path clip-path="url(#p90350a2b16)" d="M 350.414435 129831.822846 
L 357.921726 129831.822846 
L 357.921726 298.568131 
L 350.414435 298.568131 
z
" style="fill:#e24a33;"/>
   </g>
   <g id="patch_7">
    <path clip-path="url(#p90350a2b16)" d="M 440.501928 129831.822846 
L 448.009219 129831.822846 
L 448.009219 289.023017 
L 440.501928 289.023017 
z
" style="fill:#e24a33;"/>
   </g>
   <g id="patch_8">
    <path clip-path="url(#p90350a2b16)" d="M 530.589421 129831.822846 
L 538.096712 129831.822846 
L 538.096712 252.067704 
L 530.589421 252.067704 
z
" style="fill:#e24a33;"/>
   </g>
   <g id="patch_9">
    <path clip-path="url(#p90350a2b16)" d="M 620.676914 129831.822846 
L 628.184205 129831.822846 
L 628.184205 213.433312 
L 620.676914 213.433312 
z
" style="fill:#e24a33;"/>
   </g>
   <g id="patch_10">
    <path clip-path="url(#p90350a2b16)" d="M 710.764407 129831.822846 
L 718.271699 129831.822846 
L 718.271699 190.181135 
L 710.764407 190.181135 
z
" style="fill:#e24a33;"/>
   </g>
   <g id="patch_11">
    <path clip-path="url(#p90350a2b16)" d="M 800.851901 129831.822846 
L 808.359192 129831.822846 
L 808.359192 188.107591 
L 800.851901 188.107591 
z
" style="fill:#e24a33;"/>
   </g>
   <g id="patch_12">
    <path clip-path="url(#p90350a2b16)" d="M 890.939394 129831.822846 
L 898.446685 129831.822846 
L 898.446685 184.090932 
L 890.939394 184.090932 
z
" style="fill:#e24a33;"/>
   </g>
   <g id="patch_13">
    <path clip-path="url(#p90350a2b16)" d="M 981.026887 129831.822846 
L 988.534178 129831.822846 
L 988.534178 177.280563 
L 981.026887 177.280563 
z
" style="fill:#e24a33;"/>
   </g>
   <g id="patch_14">
    <path clip-path="url(#p90350a2b16)" d="M 1071.11438 129831.822846 
L 1078.621671 129831.822846 
L 1078.621671 165.845252 
L 1071.11438 165.845252 
z
" style="fill:#e24a33;"/>
   </g>
   <g id="patch_15">
    <path clip-path="url(#p90350a2b16)" d="M 87.659246 129831.822846 
L 95.166537 129831.822846 
L 95.166537 505.218469 
L 87.659246 505.218469 
z
" style="fill:#988ed5;"/>
   </g>
   <g id="patch_16">
    <path clip-path="url(#p90350a2b16)" d="M 177.746739 129831.822846 
L 185.254031 129831.822846 
L 185.254031 382.478846 
L 177.746739 382.478846 
z
" style="fill:#988ed5;"/>
   </g>
   <g id="patch_17">
    <path clip-path="url(#p90350a2b16)" d="M 267.834233 129831.822846 
L 275.341524 129831.822846 
L 275.341524 364.967328 
L 267.834233 364.967328 
z
" style="fill:#988ed5;"/>
   </g>
   <g id="patch_18">
    <path clip-path="url(#p90350a2b16)" d="M 357.921726 129831.822846 
L 365.429017 129831.822846 
L 365.429017 409.358886 
L 357.921726 409.358886 
z
" style="fill:#988ed5;"/>
   </g>
   <g id="patch_19">
    <path clip-path="url(#p90350a2b16)" d="M 448.009219 129831.822846 
L 455.51651 129831.822846 
L 455.51651 404.757648 
L 448.009219 404.757648 
z
" style="fill:#988ed5;"/>
   </g>
   <g id="patch_20">
    <path clip-path="url(#p90350a2b16)" d="M 538.096712 129831.822846 
L 545.604003 129831.822846 
L 545.604003 384.810502 
L 538.096712 384.810502 
z
" style="fill:#988ed5;"/>
   </g>
   <g id="patch_21">
    <path clip-path="url(#p90350a2b16)" d="M 628.184205 129831.822846 
L 635.691496 129831.822846 
L 635.691496 359.026535 
L 628.184205 359.026535 
z
" style="fill:#988ed5;"/>
   </g>
   <g id="patch_22">
    <path clip-path="url(#p90350a2b16)" d="M 718.271699 129831.822846 
L 725.77899 129831.822846 
L 725.77899 336.6951 
L 718.271699 336.6951 
z
" style="fill:#988ed5;"/>
   </g>
   <g id="patch_23">
    <path clip-path="url(#p90350a2b16)" d="M 808.359192 129831.822846 
L 815.866483 129831.822846 
L 815.866483 315.134293 
L 808.359192 315.134293 
z
" style="fill:#988ed5;"/>
   </g>
   <g id="patch_24">
    <path clip-path="url(#p90350a2b16)" d="M 898.446685 129831.822846 
L 905.953976 129831.822846 
L 905.953976 288.252013 
L 898.446685 288.252013 
z
" style="fill:#988ed5;"/>
   </g>
   <g id="patch_25">
    <path clip-path="url(#p90350a2b16)" d="M 988.534178 129831.822846 
L 996.041469 129831.822846 
L 996.041469 256.282909 
L 988.534178 256.282909 
z
" style="fill:#988ed5;"/>
   </g>
   <g id="patch_26">
    <path clip-path="url(#p90350a2b16)" d="M 1078.621671 129831.822846 
L 1086.128962 129831.822846 
L 1086.128962 220.23708 
L 1078.621671 220.23708 
z
" style="fill:#988ed5;"/>
   </g>
   <g id="patch_27">
    <path clip-path="url(#p90350a2b16)" d="M 95.166537 129831.822846 
L 102.673829 129831.822846 
L 102.673829 448.592526 
L 95.166537 448.592526 
z
" style="fill:#8eba42;"/>
   </g>
   <g id="patch_28">
    <path clip-path="url(#p90350a2b16)" d="M 185.254031 129831.822846 
L 192.761322 129831.822846 
L 192.761322 447.126606 
L 185.254031 447.126606 
z
" style="fill:#8eba42;"/>
   </g>
   <g id="patch_29">
    <path clip-path="url(#p90350a2b16)" d="M 275.341524 129831.822846 
L 282.848815 129831.822846 
L 282.848815 432.5556 
L 275.341524 432.5556 
z
" style="fill:#8eba42;"/>
   </g>
   <g id="patch_30">
    <path clip-path="url(#p90350a2b16)" d="M 365.429017 129831.822846 
L 372.936308 129831.822846 
L 372.936308 430.099664 
L 365.429017 430.099664 
z
" style="fill:#8eba42;"/>
   </g>
   <g id="patch_31">
    <path clip-path="url(#p90350a2b16)" d="M 455.51651 129831.822846 
L 463.023801 129831.822846 
L 463.023801 429.833306 
L 455.51651 429.833306 
z
" style="fill:#8eba42;"/>
   </g>
   <g id="patch_32">
    <path clip-path="url(#p90350a2b16)" d="M 545.604003 129831.822846 
L 553.111294 129831.822846 
L 553.111294 393.136914 
L 545.604003 393.136914 
z
" style="fill:#8eba42;"/>
   </g>
   <g id="patch_33">
    <path clip-path="url(#p90350a2b16)" d="M 635.691496 129831.822846 
L 643.198788 129831.822846 
L 643.198788 362.116476 
L 635.691496 362.116476 
z
" style="fill:#8eba42;"/>
   </g>
   <g id="patch_34">
    <path clip-path="url(#p90350a2b16)" d="M 725.77899 129831.822846 
L 733.286281 129831.822846 
L 733.286281 342.596873 
L 725.77899 342.596873 
z
" style="fill:#8eba42;"/>
   </g>
   <g id="patch_35">
    <path clip-path="url(#p90350a2b16)" d="M 815.866483 129831.822846 
L 823.373774 129831.822846 
L 823.373774 318.643025 
L 815.866483 318.643025 
z
" style="fill:#8eba42;"/>
   </g>
   <g id="patch_36">
    <path clip-path="url(#p90350a2b16)" d="M 905.953976 129831.822846 
L 913.461267 129831.822846 
L 913.461267 287.010909 
L 905.953976 287.010909 
z
" style="fill:#8eba42;"/>
   </g>
   <g id="patch_37">
    <path clip-path="url(#p90350a2b16)" d="M 996.041469 129831.822846 
L 1003.54876 129831.822846 
L 1003.54876 253.491234 
L 996.041469 253.491234 
z
" style="fill:#8eba42;"/>
   </g>
   <g id="patch_38">
    <path clip-path="url(#p90350a2b16)" d="M 1086.128962 129831.822846 
L 1093.636253 129831.822846 
L 1093.636253 217.648332 
L 1086.128962 217.648332 
z
" style="fill:#8eba42;"/>
   </g>
   <g id="patch_39">
    <path clip-path="url(#p90350a2b16)" d="M 102.673829 129831.822846 
L 110.18112 129831.822846 
L 110.18112 485.629587 
L 102.673829 485.629587 
z
" style="fill:#bd6734;"/>
   </g>
   <g id="patch_40">
    <path clip-path="url(#p90350a2b16)" d="M 192.761322 129831.822846 
L 200.268613 129831.822846 
L 200.268613 147.738574 
L 192.761322 147.738574 
z
" style="fill:#bd6734;"/>
   </g>
   <g id="patch_41">
    <path clip-path="url(#p90350a2b16)" d="M 282.848815 129831.822846 
L 290.356106 129831.822846 
L 290.356106 147.912375 
L 282.848815 147.912375 
z
" style="fill:#bd6734;"/>
   </g>
   <g id="patch_42">
    <path clip-path="url(#p90350a2b16)" d="M 372.936308 129831.822846 
L 380.443599 129831.822846 
L 380.443599 145.217427 
L 372.936308 145.217427 
z
" style="fill:#bd6734;"/>
   </g>
   <g id="patch_43">
    <path clip-path="url(#p90350a2b16)" d="M 463.023801 129831.822846 
L 470.531092 129831.822846 
L 470.531092 144.687395 
L 463.023801 144.687395 
z
" style="fill:#bd6734;"/>
   </g>
   <g id="patch_44">
    <path clip-path="url(#p90350a2b16)" d="M 553.111294 129831.822846 
L 560.618585 129831.822846 
L 560.618585 136.064395 
L 553.111294 136.064395 
z
" style="fill:#bd6734;"/>
   </g>
   <g id="patch_45">
    <path clip-path="url(#p90350a2b16)" d="M 643.198788 129831.822846 
L 650.706079 129831.822846 
L 650.706079 128.448383 
L 643.198788 128.448383 
z
" style="fill:#bd6734;"/>
   </g>
   <g id="patch_46">
    <path clip-path="url(#p90350a2b16)" d="M 733.286281 129831.822846 
L 740.793572 129831.822846 
L 740.793572 192.32663 
L 733.286281 192.32663 
z
" style="fill:#bd6734;"/>
   </g>
   <g id="patch_47">
    <path clip-path="url(#p90350a2b16)" d="M 823.373774 129831.822846 
L 830.881065 129831.822846 
L 830.881065 181.515983 
L 823.373774 181.515983 
z
" style="fill:#bd6734;"/>
   </g>
   <g id="patch_48">
    <path clip-path="url(#p90350a2b16)" d="M 913.461267 129831.822846 
L 920.968558 129831.822846 
L 920.968558 169.750724 
L 913.461267 169.750724 
z
" style="fill:#bd6734;"/>
   </g>
   <g id="patch_49">
    <path clip-path="url(#p90350a2b16)" d="M 1003.54876 129831.822846 
L 1011.056051 129831.822846 
L 1011.056051 151.252882 
L 1003.54876 151.252882 
z
" style="fill:#bd6734;"/>
   </g>
   <g id="patch_50">
    <path clip-path="url(#p90350a2b16)" d="M 1093.636253 129831.822846 
L 1101.143545 129831.822846 
L 1101.143545 125.012953 
L 1093.636253 125.012953 
z
" style="fill:#bd6734;"/>
   </g>
   <g id="patch_51">
    <path clip-path="url(#p90350a2b16)" d="M 110.18112 129831.822846 
L 117.688411 129831.822846 
L 117.688411 382.36477 
L 110.18112 382.36477 
z
" style="fill:#34bdab;"/>
   </g>
   <g id="patch_52">
    <path clip-path="url(#p90350a2b16)" d="M 200.268613 129831.822846 
L 207.775904 129831.822846 
L 207.775904 371.425179 
L 200.268613 371.425179 
z
" style="fill:#34bdab;"/>
   </g>
   <g id="patch_53">
    <path clip-path="url(#p90350a2b16)" d="M 290.356106 129831.822846 
L 297.863397 129831.822846 
L 297.863397 365.134696 
L 290.356106 365.134696 
z
" style="fill:#34bdab;"/>
   </g>
   <g id="patch_54">
    <path clip-path="url(#p90350a2b16)" d="M 380.443599 129831.822846 
L 387.95089 129831.822846 
L 387.95089 362.595014 
L 380.443599 362.595014 
z
" style="fill:#34bdab;"/>
   </g>
   <g id="patch_55">
    <path clip-path="url(#p90350a2b16)" d="M 470.531092 129831.822846 
L 478.038383 129831.822846 
L 478.038383 267.304791 
L 470.531092 267.304791 
z
" style="fill:#34bdab;"/>
   </g>
   <g id="patch_56">
    <path clip-path="url(#p90350a2b16)" d="M 560.618585 129831.822846 
L 568.125877 129831.822846 
L 568.125877 236.116648 
L 560.618585 236.116648 
z
" style="fill:#34bdab;"/>
   </g>
   <g id="patch_57">
    <path clip-path="url(#p90350a2b16)" d="M 650.706079 129831.822846 
L 658.21337 129831.822846 
L 658.21337 201.434034 
L 650.706079 201.434034 
z
" style="fill:#34bdab;"/>
   </g>
   <g id="patch_58">
    <path clip-path="url(#p90350a2b16)" d="M 740.793572 129831.822846 
L 748.300863 129831.822846 
L 748.300863 178.700314 
L 740.793572 178.700314 
z
" style="fill:#34bdab;"/>
   </g>
   <g id="patch_59">
    <path clip-path="url(#p90350a2b16)" d="M 830.881065 129831.822846 
L 838.388356 129831.822846 
L 838.388356 176.92022 
L 830.881065 176.92022 
z
" style="fill:#34bdab;"/>
   </g>
   <g id="patch_60">
    <path clip-path="url(#p90350a2b16)" d="M 920.968558 129831.822846 
L 928.475849 129831.822846 
L 928.475849 171.895823 
L 920.968558 171.895823 
z
" style="fill:#34bdab;"/>
   </g>
   <g id="patch_61">
    <path clip-path="url(#p90350a2b16)" d="M 1011.056051 129831.822846 
L 1018.563342 129831.822846 
L 1018.563342 163.482182 
L 1011.056051 163.482182 
z
" style="fill:#34bdab;"/>
   </g>
   <g id="patch_62">
    <path clip-path="url(#p90350a2b16)" d="M 1101.143545 129831.822846 
L 1108.650836 129831.822846 
L 1108.650836 152.084889 
L 1101.143545 152.084889 
z
" style="fill:#34bdab;"/>
   </g>
   <g id="patch_63">
    <path clip-path="url(#p90350a2b16)" d="M 117.688411 129831.822846 
L 125.195702 129831.822846 
L 125.195702 36.792727 
L 117.688411 36.792727 
z
" style="fill:#348abd;"/>
   </g>
   <g id="patch_64">
    <path clip-path="url(#p90350a2b16)" d="M 207.775904 129831.822846 
L 215.283195 129831.822846 
L 215.283195 39.379962 
L 207.775904 39.379962 
z
" style="fill:#348abd;"/>
   </g>
   <g id="patch_65">
    <path clip-path="url(#p90350a2b16)" d="M 297.863397 129831.822846 
L 305.370688 129831.822846 
L 305.370688 40.291727 
L 297.863397 40.291727 
z
" style="fill:#348abd;"/>
   </g>
   <g id="patch_66">
    <path clip-path="url(#p90350a2b16)" d="M 387.95089 129831.822846 
L 395.458181 129831.822846 
L 395.458181 40.081977 
L 387.95089 40.081977 
z
" style="fill:#348abd;"/>
   </g>
   <g id="patch_67">
    <path clip-path="url(#p90350a2b16)" d="M 478.038383 129831.822846 
L 485.545675 129831.822846 
L 485.545675 39.920167 
L 478.038383 39.920167 
z
" style="fill:#348abd;"/>
   </g>
   <g id="patch_68">
    <path clip-path="url(#p90350a2b16)" d="M 568.125877 129831.822846 
L 575.633168 129831.822846 
L 575.633168 39.60223 
L 568.125877 39.60223 
z
" style="fill:#348abd;"/>
   </g>
   <g id="patch_69">
    <path clip-path="url(#p90350a2b16)" d="M 658.21337 129831.822846 
L 665.720661 129831.822846 
L 665.720661 38.921108 
L 658.21337 38.921108 
z
" style="fill:#348abd;"/>
   </g>
   <g id="patch_70">
    <path clip-path="url(#p90350a2b16)" d="M 748.300863 129831.822846 
L 755.808154 129831.822846 
L 755.808154 39.24948 
L 748.300863 39.24948 
z
" style="fill:#348abd;"/>
   </g>
   <g id="patch_71">
    <path clip-path="url(#p90350a2b16)" d="M 838.388356 129831.822846 
L 845.895647 129831.822846 
L 845.895647 38.967972 
L 838.388356 38.967972 
z
" style="fill:#348abd;"/>
   </g>
   <g id="patch_72">
    <path clip-path="url(#p90350a2b16)" d="M 928.475849 129831.822846 
L 935.98314 129831.822846 
L 935.98314 38.616948 
L 928.475849 38.616948 
z
" style="fill:#348abd;"/>
   </g>
   <g id="patch_73">
    <path clip-path="url(#p90350a2b16)" d="M 1018.563342 129831.822846 
L 1026.070634 129831.822846 
L 1026.070634 38.555026 
L 1018.563342 38.555026 
z
" style="fill:#348abd;"/>
   </g>
   <g id="patch_74">
    <path clip-path="url(#p90350a2b16)" d="M 1108.650836 129831.822846 
L 1116.158127 129831.822846 
L 1116.158127 37.891325 
L 1108.650836 37.891325 
z
" style="fill:#348abd;"/>
   </g>
   <g id="patch_75">
    <path d="M 57.630082 529.72 
L 57.630082 13.32 
" style="fill:none;stroke:#ffffff;stroke-linecap:square;stroke-linejoin:miter;"/>
   </g>
   <g id="patch_76">
    <path d="M 1138.68 529.72 
L 1138.68 13.32 
" style="fill:none;stroke:#ffffff;stroke-linecap:square;stroke-linejoin:miter;"/>
   </g>
   <g id="patch_77">
    <path d="M 57.630082 529.72 
L 1138.68 529.72 
" style="fill:none;stroke:#ffffff;stroke-linecap:square;stroke-linejoin:miter;"/>
   </g>
   <g id="patch_78">
    <path d="M 57.630082 13.32 
L 1138.68 13.32 
" style="fill:none;stroke:#ffffff;stroke-linecap:square;stroke-linejoin:miter;"/>
   </g>
   <g id="legend_1">
    <g id="patch_79">
     <path d="M 67.430082 148.205625 
L 207.633519 148.205625 
Q 210.433519 148.205625 210.433519 145.405625 
L 210.433519 23.12 
Q 210.433519 20.32 207.633519 20.32 
L 67.430082 20.32 
Q 64.630082 20.32 64.630082 23.12 
L 64.630082 145.405625 
Q 64.630082 148.205625 67.430082 148.205625 
z
" style="fill:#e5e5e5;opacity:0.8;stroke:#cccccc;stroke-linejoin:miter;stroke-width:0.5;"/>
    </g>
    <g id="patch_80">
     <path d="M 70.230082 36.557813 
L 98.230082 36.557813 
L 98.230082 26.757813 
L 70.230082 26.757813 
z
" style="fill:#e24a33;"/>
    </g>
    <g id="text_19">
     <!-- lexical -->
     <defs>
      <path d="M 9.421875 75.984375 
L 18.40625 75.984375 
L 18.40625 0 
L 9.421875 0 
z
" id="DejaVuSans-6c"/>
      <path d="M 54.890625 54.6875 
L 35.109375 28.078125 
L 55.90625 0 
L 45.3125 0 
L 29.390625 21.484375 
L 13.484375 0 
L 2.875 0 
L 24.125 28.609375 
L 4.6875 54.6875 
L 15.28125 54.6875 
L 29.78125 35.203125 
L 44.28125 54.6875 
z
" id="DejaVuSans-78"/>
      <path d="M 48.78125 52.59375 
L 48.78125 44.1875 
Q 44.96875 46.296875 41.140625 47.34375 
Q 37.3125 48.390625 33.40625 48.390625 
Q 24.65625 48.390625 19.8125 42.84375 
Q 14.984375 37.3125 14.984375 27.296875 
Q 14.984375 17.28125 19.8125 11.734375 
Q 24.65625 6.203125 33.40625 6.203125 
Q 37.3125 6.203125 41.140625 7.25 
Q 44.96875 8.296875 48.78125 10.40625 
L 48.78125 2.09375 
Q 45.015625 0.34375 40.984375 -0.53125 
Q 36.96875 -1.421875 32.421875 -1.421875 
Q 20.0625 -1.421875 12.78125 6.34375 
Q 5.515625 14.109375 5.515625 27.296875 
Q 5.515625 40.671875 12.859375 48.328125 
Q 20.21875 56 33.015625 56 
Q 37.15625 56 41.109375 55.140625 
Q 45.0625 54.296875 48.78125 52.59375 
z
" id="DejaVuSans-63"/>
      <path d="M 34.28125 27.484375 
Q 23.390625 27.484375 19.1875 25 
Q 14.984375 22.515625 14.984375 16.5 
Q 14.984375 11.71875 18.140625 8.90625 
Q 21.296875 6.109375 26.703125 6.109375 
Q 34.1875 6.109375 38.703125 11.40625 
Q 43.21875 16.703125 43.21875 25.484375 
L 43.21875 27.484375 
z
M 52.203125 31.203125 
L 52.203125 0 
L 43.21875 0 
L 43.21875 8.296875 
Q 40.140625 3.328125 35.546875 0.953125 
Q 30.953125 -1.421875 24.3125 -1.421875 
Q 15.921875 -1.421875 10.953125 3.296875 
Q 6 8.015625 6 15.921875 
Q 6 25.140625 12.171875 29.828125 
Q 18.359375 34.515625 30.609375 34.515625 
L 43.21875 34.515625 
L 43.21875 35.40625 
Q 43.21875 41.609375 39.140625 45 
Q 35.0625 48.390625 27.6875 48.390625 
Q 23 48.390625 18.546875 47.265625 
Q 14.109375 46.140625 10.015625 43.890625 
L 10.015625 52.203125 
Q 14.9375 54.109375 19.578125 55.046875 
Q 24.21875 56 28.609375 56 
Q 40.484375 56 46.34375 49.84375 
Q 52.203125 43.703125 52.203125 31.203125 
z
" id="DejaVuSans-61"/>
     </defs>
     <g transform="translate(109.430082 36.557813)scale(0.14 -0.14)">
      <use xlink:href="#DejaVuSans-6c"/>
      <use x="27.783203" xlink:href="#DejaVuSans-65"/>
      <use x="89.291016" xlink:href="#DejaVuSans-78"/>
      <use x="148.470703" xlink:href="#DejaVuSans-69"/>
      <use x="176.253906" xlink:href="#DejaVuSans-63"/>
      <use x="231.234375" xlink:href="#DejaVuSans-61"/>
      <use x="292.513672" xlink:href="#DejaVuSans-6c"/>
     </g>
    </g>
    <g id="patch_81">
     <path d="M 70.230082 57.107188 
L 98.230082 57.107188 
L 98.230082 47.307188 
L 70.230082 47.307188 
z
" style="fill:#988ed5;"/>
    </g>
    <g id="text_20">
     <!-- lexical_algom -->
     <defs>
      <path d="M 50.984375 -16.609375 
L 50.984375 -23.578125 
L -0.984375 -23.578125 
L -0.984375 -16.609375 
z
" id="DejaVuSans-5f"/>
      <path d="M 30.609375 48.390625 
Q 23.390625 48.390625 19.1875 42.75 
Q 14.984375 37.109375 14.984375 27.296875 
Q 14.984375 17.484375 19.15625 11.84375 
Q 23.34375 6.203125 30.609375 6.203125 
Q 37.796875 6.203125 41.984375 11.859375 
Q 46.1875 17.53125 46.1875 27.296875 
Q 46.1875 37.015625 41.984375 42.703125 
Q 37.796875 48.390625 30.609375 48.390625 
z
M 30.609375 56 
Q 42.328125 56 49.015625 48.375 
Q 55.71875 40.765625 55.71875 27.296875 
Q 55.71875 13.875 49.015625 6.21875 
Q 42.328125 -1.421875 30.609375 -1.421875 
Q 18.84375 -1.421875 12.171875 6.21875 
Q 5.515625 13.875 5.515625 27.296875 
Q 5.515625 40.765625 12.171875 48.375 
Q 18.84375 56 30.609375 56 
z
" id="DejaVuSans-6f"/>
      <path d="M 52 44.1875 
Q 55.375 50.25 60.0625 53.125 
Q 64.75 56 71.09375 56 
Q 79.640625 56 84.28125 50.015625 
Q 88.921875 44.046875 88.921875 33.015625 
L 88.921875 0 
L 79.890625 0 
L 79.890625 32.71875 
Q 79.890625 40.578125 77.09375 44.375 
Q 74.3125 48.1875 68.609375 48.1875 
Q 61.625 48.1875 57.5625 43.546875 
Q 53.515625 38.921875 53.515625 30.90625 
L 53.515625 0 
L 44.484375 0 
L 44.484375 32.71875 
Q 44.484375 40.625 41.703125 44.40625 
Q 38.921875 48.1875 33.109375 48.1875 
Q 26.21875 48.1875 22.15625 43.53125 
Q 18.109375 38.875 18.109375 30.90625 
L 18.109375 0 
L 9.078125 0 
L 9.078125 54.6875 
L 18.109375 54.6875 
L 18.109375 46.1875 
Q 21.1875 51.21875 25.484375 53.609375 
Q 29.78125 56 35.6875 56 
Q 41.65625 56 45.828125 52.96875 
Q 50 49.953125 52 44.1875 
z
" id="DejaVuSans-6d"/>
     </defs>
     <g transform="translate(109.430082 57.107188)scale(0.14 -0.14)">
      <use xlink:href="#DejaVuSans-6c"/>
      <use x="27.783203" xlink:href="#DejaVuSans-65"/>
      <use x="89.291016" xlink:href="#DejaVuSans-78"/>
      <use x="148.470703" xlink:href="#DejaVuSans-69"/>
      <use x="176.253906" xlink:href="#DejaVuSans-63"/>
      <use x="231.234375" xlink:href="#DejaVuSans-61"/>
      <use x="292.513672" xlink:href="#DejaVuSans-6c"/>
      <use x="320.296875" xlink:href="#DejaVuSans-5f"/>
      <use x="370.296875" xlink:href="#DejaVuSans-61"/>
      <use x="431.576172" xlink:href="#DejaVuSans-6c"/>
      <use x="459.359375" xlink:href="#DejaVuSans-67"/>
      <use x="522.835938" xlink:href="#DejaVuSans-6f"/>
      <use x="584.017578" xlink:href="#DejaVuSans-6d"/>
     </g>
    </g>
    <g id="patch_82">
     <path d="M 70.230082 78.045938 
L 98.230082 78.045938 
L 98.230082 68.245938 
L 70.230082 68.245938 
z
" style="fill:#8eba42;"/>
    </g>
    <g id="text_21">
     <!-- c++ -->
     <defs>
      <path d="M 46 62.703125 
L 46 35.5 
L 73.1875 35.5 
L 73.1875 27.203125 
L 46 27.203125 
L 46 0 
L 37.796875 0 
L 37.796875 27.203125 
L 10.59375 27.203125 
L 10.59375 35.5 
L 37.796875 35.5 
L 37.796875 62.703125 
z
" id="DejaVuSans-2b"/>
     </defs>
     <g transform="translate(109.430082 78.045938)scale(0.14 -0.14)">
      <use xlink:href="#DejaVuSans-63"/>
      <use x="54.980469" xlink:href="#DejaVuSans-2b"/>
      <use x="138.769531" xlink:href="#DejaVuSans-2b"/>
     </g>
    </g>
    <g id="patch_83">
     <path d="M 70.230082 98.595313 
L 98.230082 98.595313 
L 98.230082 88.795313 
L 70.230082 88.795313 
z
" style="fill:#bd6734;"/>
    </g>
    <g id="text_22">
     <!-- go -->
     <g transform="translate(109.430082 98.595313)scale(0.14 -0.14)">
      <use xlink:href="#DejaVuSans-67"/>
      <use x="63.476562" xlink:href="#DejaVuSans-6f"/>
     </g>
    </g>
    <g id="patch_84">
     <path d="M 70.230082 119.144688 
L 98.230082 119.144688 
L 98.230082 109.344688 
L 70.230082 109.344688 
z
" style="fill:#34bdab;"/>
    </g>
    <g id="text_23">
     <!-- python -->
     <defs>
      <path d="M 18.109375 8.203125 
L 18.109375 -20.796875 
L 9.078125 -20.796875 
L 9.078125 54.6875 
L 18.109375 54.6875 
L 18.109375 46.390625 
Q 20.953125 51.265625 25.265625 53.625 
Q 29.59375 56 35.59375 56 
Q 45.5625 56 51.78125 48.09375 
Q 58.015625 40.1875 58.015625 27.296875 
Q 58.015625 14.40625 51.78125 6.484375 
Q 45.5625 -1.421875 35.59375 -1.421875 
Q 29.59375 -1.421875 25.265625 0.953125 
Q 20.953125 3.328125 18.109375 8.203125 
z
M 48.6875 27.296875 
Q 48.6875 37.203125 44.609375 42.84375 
Q 40.53125 48.484375 33.40625 48.484375 
Q 26.265625 48.484375 22.1875 42.84375 
Q 18.109375 37.203125 18.109375 27.296875 
Q 18.109375 17.390625 22.1875 11.75 
Q 26.265625 6.109375 33.40625 6.109375 
Q 40.53125 6.109375 44.609375 11.75 
Q 48.6875 17.390625 48.6875 27.296875 
z
" id="DejaVuSans-70"/>
      <path d="M 32.171875 -5.078125 
Q 28.375 -14.84375 24.75 -17.8125 
Q 21.140625 -20.796875 15.09375 -20.796875 
L 7.90625 -20.796875 
L 7.90625 -13.28125 
L 13.1875 -13.28125 
Q 16.890625 -13.28125 18.9375 -11.515625 
Q 21 -9.765625 23.484375 -3.21875 
L 25.09375 0.875 
L 2.984375 54.6875 
L 12.5 54.6875 
L 29.59375 11.921875 
L 46.6875 54.6875 
L 56.203125 54.6875 
z
" id="DejaVuSans-79"/>
      <path d="M 54.890625 33.015625 
L 54.890625 0 
L 45.90625 0 
L 45.90625 32.71875 
Q 45.90625 40.484375 42.875 44.328125 
Q 39.84375 48.1875 33.796875 48.1875 
Q 26.515625 48.1875 22.3125 43.546875 
Q 18.109375 38.921875 18.109375 30.90625 
L 18.109375 0 
L 9.078125 0 
L 9.078125 75.984375 
L 18.109375 75.984375 
L 18.109375 46.1875 
Q 21.34375 51.125 25.703125 53.5625 
Q 30.078125 56 35.796875 56 
Q 45.21875 56 50.046875 50.171875 
Q 54.890625 44.34375 54.890625 33.015625 
z
" id="DejaVuSans-68"/>
     </defs>
     <g transform="translate(109.430082 119.144688)scale(0.14 -0.14)">
      <use xlink:href="#DejaVuSans-70"/>
      <use x="63.476562" xlink:href="#DejaVuSans-79"/>
      <use x="122.65625" xlink:href="#DejaVuSans-74"/>
      <use x="161.865234" xlink:href="#DejaVuSans-68"/>
      <use x="225.244141" xlink:href="#DejaVuSans-6f"/>
      <use x="286.425781" xlink:href="#DejaVuSans-6e"/>
     </g>
    </g>
    <g id="patch_85">
     <path d="M 70.230082 139.694063 
L 98.230082 139.694063 
L 98.230082 129.894063 
L 70.230082 129.894063 
z
" style="fill:#348abd;"/>
    </g>
    <g id="text_24">
     <!-- rustcore -->
     <defs>
      <path d="M 8.5 21.578125 
L 8.5 54.6875 
L 17.484375 54.6875 
L 17.484375 21.921875 
Q 17.484375 14.15625 20.5 10.265625 
Q 23.53125 6.390625 29.59375 6.390625 
Q 36.859375 6.390625 41.078125 11.03125 
Q 45.3125 15.671875 45.3125 23.6875 
L 45.3125 54.6875 
L 54.296875 54.6875 
L 54.296875 0 
L 45.3125 0 
L 45.3125 8.40625 
Q 42.046875 3.421875 37.71875 1 
Q 33.40625 -1.421875 27.6875 -1.421875 
Q 18.265625 -1.421875 13.375 4.4375 
Q 8.5 10.296875 8.5 21.578125 
z
M 31.109375 56 
z
" id="DejaVuSans-75"/>
     </defs>
     <g transform="translate(109.430082 139.694063)scale(0.14 -0.14)">
      <use xlink:href="#DejaVuSans-72"/>
      <use x="41.113281" xlink:href="#DejaVuSans-75"/>
      <use x="104.492188" xlink:href="#DejaVuSans-73"/>
      <use x="156.591797" xlink:href="#DejaVuSans-74"/>
      <use x="195.800781" xlink:href="#DejaVuSans-63"/>
      <use x="250.78125" xlink:href="#DejaVuSans-6f"/>
      <use x="311.962891" xlink:href="#DejaVuSans-72"/>
      <use x="353.044922" xlink:href="#DejaVuSans-65"/>
     </g>
    </g>
   </g>
  </g>
 </g>
 <defs>
  <clipPath id="p90350a2b16">
   <rect height="516.4" width="1081.049918" x="57.630082" y="13.32"/>
  </clipPath>
 </defs>
</svg>
