<?xml version="1.0" encoding="utf-8" standalone="no"?>
<!DOCTYPE svg PUBLIC "-//W3C//DTD SVG 1.1//EN"
  "http://www.w3.org/Graphics/SVG/1.1/DTD/svg11.dtd">
<!-- Created with matplotlib (http://matplotlib.org/) -->
<svg height="345.6pt" version="1.1" viewBox="0 0 460.8 345.6" width="460.8pt" xmlns="http://www.w3.org/2000/svg" xmlns:xlink="http://www.w3.org/1999/xlink">
 <defs>
  <style type="text/css">
*{stroke-linecap:butt;stroke-linejoin:round;}
  </style>
 </defs>
 <g id="figure_1">
  <g id="patch_1">
   <path d="M 0 345.6 
L 460.8 345.6 
L 460.8 0 
L 0 0 
z
" style="fill:#ffffff;"/>
  </g>
  <g id="axes_1">
   <g id="patch_2">
    <path d="M 50.870209 317.72 
L 447.48 317.72 
L 447.48 13.32 
L 50.870209 13.32 
z
" style="fill:#e5e5e5;"/>
   </g>
   <g id="matplotlib.axis_1">
    <g id="xtick_1">
     <g id="line2d_1">
      <path clip-path="url(#p0b05e17c1c)" d="M 67.395617 317.72 
L 67.395617 13.32 
" style="fill:none;stroke:#ffffff;stroke-linecap:square;stroke-width:0.8;"/>
     </g>
     <g id="line2d_2">
      <defs>
       <path d="M 0 0 
L 0 3.5 
" id="m7696587642" style="stroke:#555555;stroke-width:0.8;"/>
      </defs>
      <g>
       <use style="fill:#555555;stroke:#555555;stroke-width:0.8;" x="67.395617" xlink:href="#m7696587642" y="317.72"/>
      </g>
     </g>
     <g id="text_1">
      <!-- 10 -->
      <defs>
       <path d="M 12.40625 8.296875 
L 28.515625 8.296875 
L 28.515625 63.921875 
L 10.984375 60.40625 
L 10.984375 69.390625 
L 28.421875 72.90625 
L 38.28125 72.90625 
L 38.28125 8.296875 
L 54.390625 8.296875 
L 54.390625 0 
L 12.40625 0 
z
" id="DejaVuSans-31"/>
       <path d="M 31.78125 66.40625 
Q 24.171875 66.40625 20.328125 58.90625 
Q 16.5 51.421875 16.5 36.375 
Q 16.5 21.390625 20.328125 13.890625 
Q 24.171875 6.390625 31.78125 6.390625 
Q 39.453125 6.390625 43.28125 13.890625 
Q 47.125 21.390625 47.125 36.375 
Q 47.125 51.421875 43.28125 58.90625 
Q 39.453125 66.40625 31.78125 66.40625 
z
M 31.78125 74.21875 
Q 44.046875 74.21875 50.515625 64.515625 
Q 56.984375 54.828125 56.984375 36.375 
Q 56.984375 17.96875 50.515625 8.265625 
Q 44.046875 -1.421875 31.78125 -1.421875 
Q 19.53125 -1.421875 13.0625 8.265625 
Q 6.59375 17.96875 6.59375 36.375 
Q 6.59375 54.828125 13.0625 64.515625 
Q 19.53125 74.21875 31.78125 74.21875 
z
" id="DejaVuSans-30"/>
      </defs>
      <g style="fill:#555555;" transform="translate(61.033117 332.318437)scale(0.1 -0.1)">
       <use xlink:href="#DejaVuSans-31"/>
       <use x="63.623047" xlink:href="#DejaVuSans-30"/>
      </g>
     </g>
    </g>
    <g id="xtick_2">
     <g id="line2d_3">
      <path clip-path="url(#p0b05e17c1c)" d="M 100.446433 317.72 
L 100.446433 13.32 
" style="fill:none;stroke:#ffffff;stroke-linecap:square;stroke-width:0.8;"/>
     </g>
     <g id="line2d_4">
      <g>
       <use style="fill:#555555;stroke:#555555;stroke-width:0.8;" x="100.446433" xlink:href="#m7696587642" y="317.72"/>
      </g>
     </g>
     <g id="text_2">
      <!-- 20 -->
      <defs>
       <path d="M 19.1875 8.296875 
L 53.609375 8.296875 
L 53.609375 0 
L 7.328125 0 
L 7.328125 8.296875 
Q 12.9375 14.109375 22.625 23.890625 
Q 32.328125 33.6875 34.8125 36.53125 
Q 39.546875 41.84375 41.421875 45.53125 
Q 43.3125 49.21875 43.3125 52.78125 
Q 43.3125 58.59375 39.234375 62.25 
Q 35.15625 65.921875 28.609375 65.921875 
Q 23.96875 65.921875 18.8125 64.3125 
Q 13.671875 62.703125 7.8125 59.421875 
L 7.8125 69.390625 
Q 13.765625 71.78125 18.9375 73 
Q 24.125 74.21875 28.421875 74.21875 
Q 39.75 74.21875 46.484375 68.546875 
Q 53.21875 62.890625 53.21875 53.421875 
Q 53.21875 48.921875 51.53125 44.890625 
Q 49.859375 40.875 45.40625 35.40625 
Q 44.1875 33.984375 37.640625 27.21875 
Q 31.109375 20.453125 19.1875 8.296875 
z
" id="DejaVuSans-32"/>
      </defs>
      <g style="fill:#555555;" transform="translate(94.083933 332.318437)scale(0.1 -0.1)">
       <use xlink:href="#DejaVuSans-32"/>
       <use x="63.623047" xlink:href="#DejaVuSans-30"/>
      </g>
     </g>
    </g>
    <g id="xtick_3">
     <g id="line2d_5">
      <path clip-path="url(#p0b05e17c1c)" d="M 133.497249 317.72 
L 133.497249 13.32 
" style="fill:none;stroke:#ffffff;stroke-linecap:square;stroke-width:0.8;"/>
     </g>
     <g id="line2d_6">
      <g>
       <use style="fill:#555555;stroke:#555555;stroke-width:0.8;" x="133.497249" xlink:href="#m7696587642" y="317.72"/>
      </g>
     </g>
     <g id="text_3">
      <!-- 30 -->
      <defs>
       <path d="M 40.578125 39.3125 
Q 47.65625 37.796875 51.625 33 
Q 55.609375 28.21875 55.609375 21.1875 
Q 55.609375 10.40625 48.1875 4.484375 
Q 40.765625 -1.421875 27.09375 -1.421875 
Q 22.515625 -1.421875 17.65625 -0.515625 
Q 12.796875 0.390625 7.625 2.203125 
L 7.625 11.71875 
Q 11.71875 9.328125 16.59375 8.109375 
Q 21.484375 6.890625 26.8125 6.890625 
Q 36.078125 6.890625 40.9375 10.546875 
Q 45.796875 14.203125 45.796875 21.1875 
Q 45.796875 27.640625 41.28125 31.265625 
Q 36.765625 34.90625 28.71875 34.90625 
L 20.21875 34.90625 
L 20.21875 43.015625 
L 29.109375 43.015625 
Q 36.375 43.015625 40.234375 45.921875 
Q 44.09375 48.828125 44.09375 54.296875 
Q 44.09375 59.90625 40.109375 62.90625 
Q 36.140625 65.921875 28.71875 65.921875 
Q 24.65625 65.921875 20.015625 65.03125 
Q 15.375 64.15625 9.8125 62.3125 
L 9.8125 71.09375 
Q 15.4375 72.65625 20.34375 73.4375 
Q 25.25 74.21875 29.59375 74.21875 
Q 40.828125 74.21875 47.359375 69.109375 
Q 53.90625 64.015625 53.90625 55.328125 
Q 53.90625 49.265625 50.4375 45.09375 
Q 46.96875 40.921875 40.578125 39.3125 
z
" id="DejaVuSans-33"/>
      </defs>
      <g style="fill:#555555;" transform="translate(127.134749 332.318437)scale(0.1 -0.1)">
       <use xlink:href="#DejaVuSans-33"/>
       <use x="63.623047" xlink:href="#DejaVuSans-30"/>
      </g>
     </g>
    </g>
    <g id="xtick_4">
     <g id="line2d_7">
      <path clip-path="url(#p0b05e17c1c)" d="M 166.548065 317.72 
L 166.548065 13.32 
" style="fill:none;stroke:#ffffff;stroke-linecap:square;stroke-width:0.8;"/>
     </g>
     <g id="line2d_8">
      <g>
       <use style="fill:#555555;stroke:#555555;stroke-width:0.8;" x="166.548065" xlink:href="#m7696587642" y="317.72"/>
      </g>
     </g>
     <g id="text_4">
      <!-- 40 -->
      <defs>
       <path d="M 37.796875 64.3125 
L 12.890625 25.390625 
L 37.796875 25.390625 
z
M 35.203125 72.90625 
L 47.609375 72.90625 
L 47.609375 25.390625 
L 58.015625 25.390625 
L 58.015625 17.1875 
L 47.609375 17.1875 
L 47.609375 0 
L 37.796875 0 
L 37.796875 17.1875 
L 4.890625 17.1875 
L 4.890625 26.703125 
z
" id="DejaVuSans-34"/>
      </defs>
      <g style="fill:#555555;" transform="translate(160.185565 332.318437)scale(0.1 -0.1)">
       <use xlink:href="#DejaVuSans-34"/>
       <use x="63.623047" xlink:href="#DejaVuSans-30"/>
      </g>
     </g>
    </g>
    <g id="xtick_5">
     <g id="line2d_9">
      <path clip-path="url(#p0b05e17c1c)" d="M 199.598881 317.72 
L 199.598881 13.32 
" style="fill:none;stroke:#ffffff;stroke-linecap:square;stroke-width:0.8;"/>
     </g>
     <g id="line2d_10">
      <g>
       <use style="fill:#555555;stroke:#555555;stroke-width:0.8;" x="199.598881" xlink:href="#m7696587642" y="317.72"/>
      </g>
     </g>
     <g id="text_5">
      <!-- 50 -->
      <defs>
       <path d="M 10.796875 72.90625 
L 49.515625 72.90625 
L 49.515625 64.59375 
L 19.828125 64.59375 
L 19.828125 46.734375 
Q 21.96875 47.46875 24.109375 47.828125 
Q 26.265625 48.1875 28.421875 48.1875 
Q 40.625 48.1875 47.75 41.5 
Q 54.890625 34.8125 54.890625 23.390625 
Q 54.890625 11.625 47.5625 5.09375 
Q 40.234375 -1.421875 26.90625 -1.421875 
Q 22.3125 -1.421875 17.546875 -0.640625 
Q 12.796875 0.140625 7.71875 1.703125 
L 7.71875 11.625 
Q 12.109375 9.234375 16.796875 8.0625 
Q 21.484375 6.890625 26.703125 6.890625 
Q 35.15625 6.890625 40.078125 11.328125 
Q 45.015625 15.765625 45.015625 23.390625 
Q 45.015625 31 40.078125 35.4375 
Q 35.15625 39.890625 26.703125 39.890625 
Q 22.75 39.890625 18.8125 39.015625 
Q 14.890625 38.140625 10.796875 36.28125 
z
" id="DejaVuSans-35"/>
      </defs>
      <g style="fill:#555555;" transform="translate(193.236381 332.318437)scale(0.1 -0.1)">
       <use xlink:href="#DejaVuSans-35"/>
       <use x="63.623047" xlink:href="#DejaVuSans-30"/>
      </g>
     </g>
    </g>
    <g id="xtick_6">
     <g id="line2d_11">
      <path clip-path="url(#p0b05e17c1c)" d="M 232.649697 317.72 
L 232.649697 13.32 
" style="fill:none;stroke:#ffffff;stroke-linecap:square;stroke-width:0.8;"/>
     </g>
     <g id="line2d_12">
      <g>
       <use style="fill:#555555;stroke:#555555;stroke-width:0.8;" x="232.649697" xlink:href="#m7696587642" y="317.72"/>
      </g>
     </g>
     <g id="text_6">
      <!-- 200 -->
      <g style="fill:#555555;" transform="translate(223.105947 332.318437)scale(0.1 -0.1)">
       <use xlink:href="#DejaVuSans-32"/>
       <use x="63.623047" xlink:href="#DejaVuSans-30"/>
       <use x="127.246094" xlink:href="#DejaVuSans-30"/>
      </g>
     </g>
    </g>
    <g id="xtick_7">
     <g id="line2d_13">
      <path clip-path="url(#p0b05e17c1c)" d="M 265.700513 317.72 
L 265.700513 13.32 
" style="fill:none;stroke:#ffffff;stroke-linecap:square;stroke-width:0.8;"/>
     </g>
     <g id="line2d_14">
      <g>
       <use style="fill:#555555;stroke:#555555;stroke-width:0.8;" x="265.700513" xlink:href="#m7696587642" y="317.72"/>
      </g>
     </g>
     <g id="text_7">
      <!-- 350 -->
      <g style="fill:#555555;" transform="translate(256.156763 332.318437)scale(0.1 -0.1)">
       <use xlink:href="#DejaVuSans-33"/>
       <use x="63.623047" xlink:href="#DejaVuSans-35"/>
       <use x="127.246094" xlink:href="#DejaVuSans-30"/>
      </g>
     </g>
    </g>
    <g id="xtick_8">
     <g id="line2d_15">
      <path clip-path="url(#p0b05e17c1c)" d="M 298.751328 317.72 
L 298.751328 13.32 
" style="fill:none;stroke:#ffffff;stroke-linecap:square;stroke-width:0.8;"/>
     </g>
     <g id="line2d_16">
      <g>
       <use style="fill:#555555;stroke:#555555;stroke-width:0.8;" x="298.751328" xlink:href="#m7696587642" y="317.72"/>
      </g>
     </g>
     <g id="text_8">
      <!-- 761 -->
      <defs>
       <path d="M 8.203125 72.90625 
L 55.078125 72.90625 
L 55.078125 68.703125 
L 28.609375 0 
L 18.3125 0 
L 43.21875 64.59375 
L 8.203125 64.59375 
z
" id="DejaVuSans-37"/>
       <path d="M 33.015625 40.375 
Q 26.375 40.375 22.484375 35.828125 
Q 18.609375 31.296875 18.609375 23.390625 
Q 18.609375 15.53125 22.484375 10.953125 
Q 26.375 6.390625 33.015625 6.390625 
Q 39.65625 6.390625 43.53125 10.953125 
Q 47.40625 15.53125 47.40625 23.390625 
Q 47.40625 31.296875 43.53125 35.828125 
Q 39.65625 40.375 33.015625 40.375 
z
M 52.59375 71.296875 
L 52.59375 62.3125 
Q 48.875 64.0625 45.09375 64.984375 
Q 41.3125 65.921875 37.59375 65.921875 
Q 27.828125 65.921875 22.671875 59.328125 
Q 17.53125 52.734375 16.796875 39.40625 
Q 19.671875 43.65625 24.015625 45.921875 
Q 28.375 48.1875 33.59375 48.1875 
Q 44.578125 48.1875 50.953125 41.515625 
Q 57.328125 34.859375 57.328125 23.390625 
Q 57.328125 12.15625 50.6875 5.359375 
Q 44.046875 -1.421875 33.015625 -1.421875 
Q 20.359375 -1.421875 13.671875 8.265625 
Q 6.984375 17.96875 6.984375 36.375 
Q 6.984375 53.65625 15.1875 63.9375 
Q 23.390625 74.21875 37.203125 74.21875 
Q 40.921875 74.21875 44.703125 73.484375 
Q 48.484375 72.75 52.59375 71.296875 
z
" id="DejaVuSans-36"/>
      </defs>
      <g style="fill:#555555;" transform="translate(289.207578 332.318437)scale(0.1 -0.1)">
       <use xlink:href="#DejaVuSans-37"/>
       <use x="63.623047" xlink:href="#DejaVuSans-36"/>
       <use x="127.246094" xlink:href="#DejaVuSans-31"/>
      </g>
     </g>
    </g>
    <g id="xtick_9">
     <g id="line2d_17">
      <path clip-path="url(#p0b05e17c1c)" d="M 331.802144 317.72 
L 331.802144 13.32 
" style="fill:none;stroke:#ffffff;stroke-linecap:square;stroke-width:0.8;"/>
     </g>
     <g id="line2d_18">
      <g>
       <use style="fill:#555555;stroke:#555555;stroke-width:0.8;" x="331.802144" xlink:href="#m7696587642" y="317.72"/>
      </g>
     </g>
     <g id="text_9">
      <!-- 1761 -->
      <g style="fill:#555555;" transform="translate(319.077144 332.318437)scale(0.1 -0.1)">
       <use xlink:href="#DejaVuSans-31"/>
       <use x="63.623047" xlink:href="#DejaVuSans-37"/>
       <use x="127.246094" xlink:href="#DejaVuSans-36"/>
       <use x="190.869141" xlink:href="#DejaVuSans-31"/>
      </g>
     </g>
    </g>
    <g id="xtick_10">
     <g id="line2d_19">
      <path clip-path="url(#p0b05e17c1c)" d="M 364.85296 317.72 
L 364.85296 13.32 
" style="fill:none;stroke:#ffffff;stroke-linecap:square;stroke-width:0.8;"/>
     </g>
     <g id="line2d_20">
      <g>
       <use style="fill:#555555;stroke:#555555;stroke-width:0.8;" x="364.85296" xlink:href="#m7696587642" y="317.72"/>
      </g>
     </g>
     <g id="text_10">
      <!-- 2761 -->
      <g style="fill:#555555;" transform="translate(352.12796 332.318437)scale(0.1 -0.1)">
       <use xlink:href="#DejaVuSans-32"/>
       <use x="63.623047" xlink:href="#DejaVuSans-37"/>
       <use x="127.246094" xlink:href="#DejaVuSans-36"/>
       <use x="190.869141" xlink:href="#DejaVuSans-31"/>
      </g>
     </g>
    </g>
    <g id="xtick_11">
     <g id="line2d_21">
      <path clip-path="url(#p0b05e17c1c)" d="M 397.903776 317.72 
L 397.903776 13.32 
" style="fill:none;stroke:#ffffff;stroke-linecap:square;stroke-width:0.8;"/>
     </g>
     <g id="line2d_22">
      <g>
       <use style="fill:#555555;stroke:#555555;stroke-width:0.8;" x="397.903776" xlink:href="#m7696587642" y="317.72"/>
      </g>
     </g>
     <g id="text_11">
      <!-- 4096 -->
      <defs>
       <path d="M 10.984375 1.515625 
L 10.984375 10.5 
Q 14.703125 8.734375 18.5 7.8125 
Q 22.3125 6.890625 25.984375 6.890625 
Q 35.75 6.890625 40.890625 13.453125 
Q 46.046875 20.015625 46.78125 33.40625 
Q 43.953125 29.203125 39.59375 26.953125 
Q 35.25 24.703125 29.984375 24.703125 
Q 19.046875 24.703125 12.671875 31.3125 
Q 6.296875 37.9375 6.296875 49.421875 
Q 6.296875 60.640625 12.9375 67.421875 
Q 19.578125 74.21875 30.609375 74.21875 
Q 43.265625 74.21875 49.921875 64.515625 
Q 56.59375 54.828125 56.59375 36.375 
Q 56.59375 19.140625 48.40625 8.859375 
Q 40.234375 -1.421875 26.421875 -1.421875 
Q 22.703125 -1.421875 18.890625 -0.6875 
Q 15.09375 0.046875 10.984375 1.515625 
z
M 30.609375 32.421875 
Q 37.25 32.421875 41.125 36.953125 
Q 45.015625 41.5 45.015625 49.421875 
Q 45.015625 57.28125 41.125 61.84375 
Q 37.25 66.40625 30.609375 66.40625 
Q 23.96875 66.40625 20.09375 61.84375 
Q 16.21875 57.28125 16.21875 49.421875 
Q 16.21875 41.5 20.09375 36.953125 
Q 23.96875 32.421875 30.609375 32.421875 
z
" id="DejaVuSans-39"/>
      </defs>
      <g style="fill:#555555;" transform="translate(385.178776 332.318437)scale(0.1 -0.1)">
       <use xlink:href="#DejaVuSans-34"/>
       <use x="63.623047" xlink:href="#DejaVuSans-30"/>
       <use x="127.246094" xlink:href="#DejaVuSans-39"/>
       <use x="190.869141" xlink:href="#DejaVuSans-36"/>
      </g>
     </g>
    </g>
    <g id="xtick_12">
     <g id="line2d_23">
      <path clip-path="url(#p0b05e17c1c)" d="M 430.954592 317.72 
L 430.954592 13.32 
" style="fill:none;stroke:#ffffff;stroke-linecap:square;stroke-width:0.8;"/>
     </g>
     <g id="line2d_24">
      <g>
       <use style="fill:#555555;stroke:#555555;stroke-width:0.8;" x="430.954592" xlink:href="#m7696587642" y="317.72"/>
      </g>
     </g>
     <g id="text_12">
      <!-- 5096 -->
      <g style="fill:#555555;" transform="translate(418.229592 332.318437)scale(0.1 -0.1)">
       <use xlink:href="#DejaVuSans-35"/>
       <use x="63.623047" xlink:href="#DejaVuSans-30"/>
       <use x="127.246094" xlink:href="#DejaVuSans-39"/>
       <use x="190.869141" xlink:href="#DejaVuSans-36"/>
      </g>
     </g>
    </g>
   </g>
   <g id="matplotlib.axis_2">
    <g id="ytick_1">
     <g id="line2d_25">
      <path clip-path="url(#p0b05e17c1c)" d="M 50.870209 276.442532 
L 447.48 276.442532 
" style="fill:none;stroke:#ffffff;stroke-linecap:square;stroke-width:0.8;"/>
     </g>
     <g id="line2d_26">
      <defs>
       <path d="M 0 0 
L -3.5 0 
" id="mdd8d1b45ce" style="stroke:#555555;stroke-width:0.8;"/>
      </defs>
      <g>
       <use style="fill:#555555;stroke:#555555;stroke-width:0.8;" x="50.870209" xlink:href="#mdd8d1b45ce" y="276.442532"/>
      </g>
     </g>
     <g id="text_13">
      <!-- $\mathdefault{10^{2}}$ -->
      <g style="fill:#555555;" transform="translate(26.270209 280.241751)scale(0.1 -0.1)">
       <use transform="translate(0 0.765625)" xlink:href="#DejaVuSans-31"/>
       <use transform="translate(63.623047 0.765625)" xlink:href="#DejaVuSans-30"/>
       <use transform="translate(128.203125 39.046875)scale(0.7)" xlink:href="#DejaVuSans-32"/>
      </g>
     </g>
    </g>
    <g id="ytick_2">
     <g id="line2d_27">
      <path clip-path="url(#p0b05e17c1c)" d="M 50.870209 192.75566 
L 447.48 192.75566 
" style="fill:none;stroke:#ffffff;stroke-linecap:square;stroke-width:0.8;"/>
     </g>
     <g id="line2d_28">
      <g>
       <use style="fill:#555555;stroke:#555555;stroke-width:0.8;" x="50.870209" xlink:href="#mdd8d1b45ce" y="192.75566"/>
      </g>
     </g>
     <g id="text_14">
      <!-- $\mathdefault{10^{3}}$ -->
      <g style="fill:#555555;" transform="translate(26.270209 196.554879)scale(0.1 -0.1)">
       <use transform="translate(0 0.765625)" xlink:href="#DejaVuSans-31"/>
       <use transform="translate(63.623047 0.765625)" xlink:href="#DejaVuSans-30"/>
       <use transform="translate(128.203125 39.046875)scale(0.7)" xlink:href="#DejaVuSans-33"/>
      </g>
     </g>
    </g>
    <g id="ytick_3">
     <g id="line2d_29">
      <path clip-path="url(#p0b05e17c1c)" d="M 50.870209 109.068788 
L 447.48 109.068788 
" style="fill:none;stroke:#ffffff;stroke-linecap:square;stroke-width:0.8;"/>
     </g>
     <g id="line2d_30">
      <g>
       <use style="fill:#555555;stroke:#555555;stroke-width:0.8;" x="50.870209" xlink:href="#mdd8d1b45ce" y="109.068788"/>
      </g>
     </g>
     <g id="text_15">
      <!-- $\mathdefault{10^{4}}$ -->
      <g style="fill:#555555;" transform="translate(26.270209 112.868007)scale(0.1 -0.1)">
       <use transform="translate(0 0.684375)" xlink:href="#DejaVuSans-31"/>
       <use transform="translate(63.623047 0.684375)" xlink:href="#DejaVuSans-30"/>
       <use transform="translate(128.203125 38.965625)scale(0.7)" xlink:href="#DejaVuSans-34"/>
      </g>
     </g>
    </g>
    <g id="ytick_4">
     <g id="line2d_31">
      <path clip-path="url(#p0b05e17c1c)" d="M 50.870209 25.381916 
L 447.48 25.381916 
" style="fill:none;stroke:#ffffff;stroke-linecap:square;stroke-width:0.8;"/>
     </g>
     <g id="line2d_32">
      <g>
       <use style="fill:#555555;stroke:#555555;stroke-width:0.8;" x="50.870209" xlink:href="#mdd8d1b45ce" y="25.381916"/>
      </g>
     </g>
     <g id="text_16">
      <!-- $\mathdefault{10^{5}}$ -->
      <g style="fill:#555555;" transform="translate(26.270209 29.181135)scale(0.1 -0.1)">
       <use transform="translate(0 0.684375)" xlink:href="#DejaVuSans-31"/>
       <use transform="translate(63.623047 0.684375)" xlink:href="#DejaVuSans-30"/>
       <use transform="translate(128.203125 38.965625)scale(0.7)" xlink:href="#DejaVuSans-35"/>
      </g>
     </g>
    </g>
    <g id="ytick_5">
     <g id="line2d_33">
      <defs>
       <path d="M 0 0 
L -2 0 
" id="m2fe9faa925" style="stroke:#555555;stroke-width:0.6;"/>
      </defs>
      <g>
       <use style="fill:#555555;stroke:#555555;stroke-width:0.6;" x="50.870209" xlink:href="#m2fe9faa925" y="309.744886"/>
      </g>
     </g>
    </g>
    <g id="ytick_6">
     <g id="line2d_34">
      <g>
       <use style="fill:#555555;stroke:#555555;stroke-width:0.6;" x="50.870209" xlink:href="#m2fe9faa925" y="301.63479"/>
      </g>
     </g>
    </g>
    <g id="ytick_7">
     <g id="line2d_35">
      <g>
       <use style="fill:#555555;stroke:#555555;stroke-width:0.6;" x="50.870209" xlink:href="#m2fe9faa925" y="295.00836"/>
      </g>
     </g>
    </g>
    <g id="ytick_8">
     <g id="line2d_36">
      <g>
       <use style="fill:#555555;stroke:#555555;stroke-width:0.6;" x="50.870209" xlink:href="#m2fe9faa925" y="289.405792"/>
      </g>
     </g>
    </g>
    <g id="ytick_9">
     <g id="line2d_37">
      <g>
       <use style="fill:#555555;stroke:#555555;stroke-width:0.6;" x="50.870209" xlink:href="#m2fe9faa925" y="284.552628"/>
      </g>
     </g>
    </g>
    <g id="ytick_10">
     <g id="line2d_38">
      <g>
       <use style="fill:#555555;stroke:#555555;stroke-width:0.6;" x="50.870209" xlink:href="#m2fe9faa925" y="280.271833"/>
      </g>
     </g>
    </g>
    <g id="ytick_11">
     <g id="line2d_39">
      <g>
       <use style="fill:#555555;stroke:#555555;stroke-width:0.6;" x="50.870209" xlink:href="#m2fe9faa925" y="251.250273"/>
      </g>
     </g>
    </g>
    <g id="ytick_12">
     <g id="line2d_40">
      <g>
       <use style="fill:#555555;stroke:#555555;stroke-width:0.6;" x="50.870209" xlink:href="#m2fe9faa925" y="236.513747"/>
      </g>
     </g>
    </g>
    <g id="ytick_13">
     <g id="line2d_41">
      <g>
       <use style="fill:#555555;stroke:#555555;stroke-width:0.6;" x="50.870209" xlink:href="#m2fe9faa925" y="226.058014"/>
      </g>
     </g>
    </g>
    <g id="ytick_14">
     <g id="line2d_42">
      <g>
       <use style="fill:#555555;stroke:#555555;stroke-width:0.6;" x="50.870209" xlink:href="#m2fe9faa925" y="217.947919"/>
      </g>
     </g>
    </g>
    <g id="ytick_15">
     <g id="line2d_43">
      <g>
       <use style="fill:#555555;stroke:#555555;stroke-width:0.6;" x="50.870209" xlink:href="#m2fe9faa925" y="211.321488"/>
      </g>
     </g>
    </g>
    <g id="ytick_16">
     <g id="line2d_44">
      <g>
       <use style="fill:#555555;stroke:#555555;stroke-width:0.6;" x="50.870209" xlink:href="#m2fe9faa925" y="205.71892"/>
      </g>
     </g>
    </g>
    <g id="ytick_17">
     <g id="line2d_45">
      <g>
       <use style="fill:#555555;stroke:#555555;stroke-width:0.6;" x="50.870209" xlink:href="#m2fe9faa925" y="200.865756"/>
      </g>
     </g>
    </g>
    <g id="ytick_18">
     <g id="line2d_46">
      <g>
       <use style="fill:#555555;stroke:#555555;stroke-width:0.6;" x="50.870209" xlink:href="#m2fe9faa925" y="196.584961"/>
      </g>
     </g>
    </g>
    <g id="ytick_19">
     <g id="line2d_47">
      <g>
       <use style="fill:#555555;stroke:#555555;stroke-width:0.6;" x="50.870209" xlink:href="#m2fe9faa925" y="167.563401"/>
      </g>
     </g>
    </g>
    <g id="ytick_20">
     <g id="line2d_48">
      <g>
       <use style="fill:#555555;stroke:#555555;stroke-width:0.6;" x="50.870209" xlink:href="#m2fe9faa925" y="152.826875"/>
      </g>
     </g>
    </g>
    <g id="ytick_21">
     <g id="line2d_49">
      <g>
       <use style="fill:#555555;stroke:#555555;stroke-width:0.6;" x="50.870209" xlink:href="#m2fe9faa925" y="142.371143"/>
      </g>
     </g>
    </g>
    <g id="ytick_22">
     <g id="line2d_50">
      <g>
       <use style="fill:#555555;stroke:#555555;stroke-width:0.6;" x="50.870209" xlink:href="#m2fe9faa925" y="134.261047"/>
      </g>
     </g>
    </g>
    <g id="ytick_23">
     <g id="line2d_51">
      <g>
       <use style="fill:#555555;stroke:#555555;stroke-width:0.6;" x="50.870209" xlink:href="#m2fe9faa925" y="127.634616"/>
      </g>
     </g>
    </g>
    <g id="ytick_24">
     <g id="line2d_52">
      <g>
       <use style="fill:#555555;stroke:#555555;stroke-width:0.6;" x="50.870209" xlink:href="#m2fe9faa925" y="122.032049"/>
      </g>
     </g>
    </g>
    <g id="ytick_25">
     <g id="line2d_53">
      <g>
       <use style="fill:#555555;stroke:#555555;stroke-width:0.6;" x="50.870209" xlink:href="#m2fe9faa925" y="117.178884"/>
      </g>
     </g>
    </g>
    <g id="ytick_26">
     <g id="line2d_54">
      <g>
       <use style="fill:#555555;stroke:#555555;stroke-width:0.6;" x="50.870209" xlink:href="#m2fe9faa925" y="112.898089"/>
      </g>
     </g>
    </g>
    <g id="ytick_27">
     <g id="line2d_55">
      <g>
       <use style="fill:#555555;stroke:#555555;stroke-width:0.6;" x="50.870209" xlink:href="#m2fe9faa925" y="83.876529"/>
      </g>
     </g>
    </g>
    <g id="ytick_28">
     <g id="line2d_56">
      <g>
       <use style="fill:#555555;stroke:#555555;stroke-width:0.6;" x="50.870209" xlink:href="#m2fe9faa925" y="69.140003"/>
      </g>
     </g>
    </g>
    <g id="ytick_29">
     <g id="line2d_57">
      <g>
       <use style="fill:#555555;stroke:#555555;stroke-width:0.6;" x="50.870209" xlink:href="#m2fe9faa925" y="58.684271"/>
      </g>
     </g>
    </g>
    <g id="ytick_30">
     <g id="line2d_58">
      <g>
       <use style="fill:#555555;stroke:#555555;stroke-width:0.6;" x="50.870209" xlink:href="#m2fe9faa925" y="50.574175"/>
      </g>
     </g>
    </g>
    <g id="ytick_31">
     <g id="line2d_59">
      <g>
       <use style="fill:#555555;stroke:#555555;stroke-width:0.6;" x="50.870209" xlink:href="#m2fe9faa925" y="43.947744"/>
      </g>
     </g>
    </g>
    <g id="ytick_32">
     <g id="line2d_60">
      <g>
       <use style="fill:#555555;stroke:#555555;stroke-width:0.6;" x="50.870209" xlink:href="#m2fe9faa925" y="38.345177"/>
      </g>
     </g>
    </g>
    <g id="ytick_33">
     <g id="line2d_61">
      <g>
       <use style="fill:#555555;stroke:#555555;stroke-width:0.6;" x="50.870209" xlink:href="#m2fe9faa925" y="33.492012"/>
      </g>
     </g>
    </g>
    <g id="ytick_34">
     <g id="line2d_62">
      <g>
       <use style="fill:#555555;stroke:#555555;stroke-width:0.6;" x="50.870209" xlink:href="#m2fe9faa925" y="29.211218"/>
      </g>
     </g>
    </g>
    <g id="text_17">
     <!-- ns/iter -->
     <defs>
      <path d="M 54.890625 33.015625 
L 54.890625 0 
L 45.90625 0 
L 45.90625 32.71875 
Q 45.90625 40.484375 42.875 44.328125 
Q 39.84375 48.1875 33.796875 48.1875 
Q 26.515625 48.1875 22.3125 43.546875 
Q 18.109375 38.921875 18.109375 30.90625 
L 18.109375 0 
L 9.078125 0 
L 9.078125 54.6875 
L 18.109375 54.6875 
L 18.109375 46.1875 
Q 21.34375 51.125 25.703125 53.5625 
Q 30.078125 56 35.796875 56 
Q 45.21875 56 50.046875 50.171875 
Q 54.890625 44.34375 54.890625 33.015625 
z
" id="DejaVuSans-6e"/>
      <path d="M 44.28125 53.078125 
L 44.28125 44.578125 
Q 40.484375 46.53125 36.375 47.5 
Q 32.28125 48.484375 27.875 48.484375 
Q 21.1875 48.484375 17.84375 46.4375 
Q 14.5 44.390625 14.5 40.28125 
Q 14.5 37.15625 16.890625 35.375 
Q 19.28125 33.59375 26.515625 31.984375 
L 29.59375 31.296875 
Q 39.15625 29.25 43.1875 25.515625 
Q 47.21875 21.78125 47.21875 15.09375 
Q 47.21875 7.46875 41.1875 3.015625 
Q 35.15625 -1.421875 24.609375 -1.421875 
Q 20.21875 -1.421875 15.453125 -0.5625 
Q 10.6875 0.296875 5.421875 2 
L 5.421875 11.28125 
Q 10.40625 8.6875 15.234375 7.390625 
Q 20.0625 6.109375 24.8125 6.109375 
Q 31.15625 6.109375 34.5625 8.28125 
Q 37.984375 10.453125 37.984375 14.40625 
Q 37.984375 18.0625 35.515625 20.015625 
Q 33.0625 21.96875 24.703125 23.78125 
L 21.578125 24.515625 
Q 13.234375 26.265625 9.515625 29.90625 
Q 5.8125 33.546875 5.8125 39.890625 
Q 5.8125 47.609375 11.28125 51.796875 
Q 16.75 56 26.8125 56 
Q 31.78125 56 36.171875 55.265625 
Q 40.578125 54.546875 44.28125 53.078125 
z
" id="DejaVuSans-73"/>
      <path d="M 25.390625 72.90625 
L 33.6875 72.90625 
L 8.296875 -9.28125 
L 0 -9.28125 
z
" id="DejaVuSans-2f"/>
      <path d="M 9.421875 54.6875 
L 18.40625 54.6875 
L 18.40625 0 
L 9.421875 0 
z
M 9.421875 75.984375 
L 18.40625 75.984375 
L 18.40625 64.59375 
L 9.421875 64.59375 
z
" id="DejaVuSans-69"/>
      <path d="M 18.3125 70.21875 
L 18.3125 54.6875 
L 36.8125 54.6875 
L 36.8125 47.703125 
L 18.3125 47.703125 
L 18.3125 18.015625 
Q 18.3125 11.328125 20.140625 9.421875 
Q 21.96875 7.515625 27.59375 7.515625 
L 36.8125 7.515625 
L 36.8125 0 
L 27.59375 0 
Q 17.1875 0 13.234375 3.875 
Q 9.28125 7.765625 9.28125 18.015625 
L 9.28125 47.703125 
L 2.6875 47.703125 
L 2.6875 54.6875 
L 9.28125 54.6875 
L 9.28125 70.21875 
z
" id="DejaVuSans-74"/>
      <path d="M 56.203125 29.59375 
L 56.203125 25.203125 
L 14.890625 25.203125 
Q 15.484375 15.921875 20.484375 11.0625 
Q 25.484375 6.203125 34.421875 6.203125 
Q 39.59375 6.203125 44.453125 7.46875 
Q 49.3125 8.734375 54.109375 11.28125 
L 54.109375 2.78125 
Q 49.265625 0.734375 44.1875 -0.34375 
Q 39.109375 -1.421875 33.890625 -1.421875 
Q 20.796875 -1.421875 13.15625 6.1875 
Q 5.515625 13.8125 5.515625 26.8125 
Q 5.515625 40.234375 12.765625 48.109375 
Q 20.015625 56 32.328125 56 
Q 43.359375 56 49.78125 48.890625 
Q 56.203125 41.796875 56.203125 29.59375 
z
M 47.21875 32.234375 
Q 47.125 39.59375 43.09375 43.984375 
Q 39.0625 48.390625 32.421875 48.390625 
Q 24.90625 48.390625 20.390625 44.140625 
Q 15.875 39.890625 15.1875 32.171875 
z
" id="DejaVuSans-65"/>
      <path d="M 41.109375 46.296875 
Q 39.59375 47.171875 37.8125 47.578125 
Q 36.03125 48 33.890625 48 
Q 26.265625 48 22.1875 43.046875 
Q 18.109375 38.09375 18.109375 28.8125 
L 18.109375 0 
L 9.078125 0 
L 9.078125 54.6875 
L 18.109375 54.6875 
L 18.109375 46.1875 
Q 20.953125 51.171875 25.484375 53.578125 
Q 30.03125 56 36.53125 56 
Q 37.453125 56 38.578125 55.875 
Q 39.703125 55.765625 41.0625 55.515625 
z
" id="DejaVuSans-72"/>
     </defs>
     <g style="fill:#555555;" transform="translate(19.774584 184.646875)rotate(-90)scale(0.12 -0.12)">
      <use xlink:href="#DejaVuSans-6e"/>
      <use x="63.378906" xlink:href="#DejaVuSans-73"/>
      <use x="115.478516" xlink:href="#DejaVuSans-2f"/>
      <use x="149.169922" xlink:href="#DejaVuSans-69"/>
      <use x="176.953125" xlink:href="#DejaVuSans-74"/>
      <use x="216.162109" xlink:href="#DejaVuSans-65"/>
      <use x="277.685547" xlink:href="#DejaVuSans-72"/>
     </g>
    </g>
   </g>
   <g id="patch_3">
    <path clip-path="url(#p0b05e17c1c)" d="M 59.132913 84130.68813 
L 62.437995 84130.68813 
L 62.437995 233.716617 
L 59.132913 233.716617 
z
" style="fill:#e24a33;"/>
   </g>
   <g id="patch_4">
    <path clip-path="url(#p0b05e17c1c)" d="M 92.183729 84130.68813 
L 95.488811 84130.68813 
L 95.488811 230.089794 
L 92.183729 230.089794 
z
" style="fill:#e24a33;"/>
   </g>
   <g id="patch_5">
    <path clip-path="url(#p0b05e17c1c)" d="M 125.234545 84130.68813 
L 128.539627 84130.68813 
L 128.539627 229.187395 
L 125.234545 229.187395 
z
" style="fill:#e24a33;"/>
   </g>
   <g id="patch_6">
    <path clip-path="url(#p0b05e17c1c)" d="M 158.285361 84130.68813 
L 161.590442 84130.68813 
L 161.590442 222.59399 
L 158.285361 222.59399 
z
" style="fill:#e24a33;"/>
   </g>
   <g id="patch_7">
    <path clip-path="url(#p0b05e17c1c)" d="M 191.336177 84130.68813 
L 194.641258 84130.68813 
L 194.641258 223.009363 
L 191.336177 223.009363 
z
" style="fill:#e24a33;"/>
   </g>
   <g id="patch_8">
    <path clip-path="url(#p0b05e17c1c)" d="M 224.386993 84130.68813 
L 227.692074 84130.68813 
L 227.692074 202.491671 
L 224.386993 202.491671 
z
" style="fill:#e24a33;"/>
   </g>
   <g id="patch_9">
    <path clip-path="url(#p0b05e17c1c)" d="M 257.437809 84130.68813 
L 260.74289 84130.68813 
L 260.74289 176.92131 
L 257.437809 176.92131 
z
" style="fill:#e24a33;"/>
   </g>
   <g id="patch_10">
    <path clip-path="url(#p0b05e17c1c)" d="M 290.488624 84130.68813 
L 293.793706 84130.68813 
L 293.793706 153.302454 
L 290.488624 153.302454 
z
" style="fill:#e24a33;"/>
   </g>
   <g id="patch_11">
    <path clip-path="url(#p0b05e17c1c)" d="M 323.53944 84130.68813 
L 326.844522 84130.68813 
L 326.844522 143.068337 
L 323.53944 143.068337 
z
" style="fill:#e24a33;"/>
   </g>
   <g id="patch_12">
    <path clip-path="url(#p0b05e17c1c)" d="M 356.590256 84130.68813 
L 359.895338 84130.68813 
L 359.895338 138.3172 
L 356.590256 138.3172 
z
" style="fill:#e24a33;"/>
   </g>
   <g id="patch_13">
    <path clip-path="url(#p0b05e17c1c)" d="M 389.641072 84130.68813 
L 392.946154 84130.68813 
L 392.946154 131.383241 
L 389.641072 131.383241 
z
" style="fill:#e24a33;"/>
   </g>
   <g id="patch_14">
    <path clip-path="url(#p0b05e17c1c)" d="M 422.691888 84130.68813 
L 425.99697 84130.68813 
L 425.99697 125.379955 
L 422.691888 125.379955 
z
" style="fill:#e24a33;"/>
   </g>
   <g id="patch_15">
    <path clip-path="url(#p0b05e17c1c)" d="M 62.437995 84130.68813 
L 65.743076 84130.68813 
L 65.743076 284.552628 
L 62.437995 284.552628 
z
" style="fill:#348abd;"/>
   </g>
   <g id="patch_16">
    <path clip-path="url(#p0b05e17c1c)" d="M 95.488811 84130.68813 
L 98.793892 84130.68813 
L 98.793892 76.948481 
L 95.488811 76.948481 
z
" style="fill:#348abd;"/>
   </g>
   <g id="patch_17">
    <path clip-path="url(#p0b05e17c1c)" d="M 128.539627 84130.68813 
L 131.844708 84130.68813 
L 131.844708 74.682248 
L 128.539627 74.682248 
z
" style="fill:#348abd;"/>
   </g>
   <g id="patch_18">
    <path clip-path="url(#p0b05e17c1c)" d="M 161.590442 84130.68813 
L 164.895524 84130.68813 
L 164.895524 72.116536 
L 161.590442 72.116536 
z
" style="fill:#348abd;"/>
   </g>
   <g id="patch_19">
    <path clip-path="url(#p0b05e17c1c)" d="M 194.641258 84130.68813 
L 197.94634 84130.68813 
L 197.94634 72.117851 
L 194.641258 72.117851 
z
" style="fill:#348abd;"/>
   </g>
   <g id="patch_20">
    <path clip-path="url(#p0b05e17c1c)" d="M 227.692074 84130.68813 
L 230.997156 84130.68813 
L 230.997156 54.804667 
L 227.692074 54.804667 
z
" style="fill:#348abd;"/>
   </g>
   <g id="patch_21">
    <path clip-path="url(#p0b05e17c1c)" d="M 260.74289 84130.68813 
L 264.047972 84130.68813 
L 264.047972 42.52752 
L 260.74289 42.52752 
z
" style="fill:#348abd;"/>
   </g>
   <g id="patch_22">
    <path clip-path="url(#p0b05e17c1c)" d="M 293.793706 84130.68813 
L 297.098788 84130.68813 
L 297.098788 27.622643 
L 293.793706 27.622643 
z
" style="fill:#348abd;"/>
   </g>
   <g id="patch_23">
    <path clip-path="url(#p0b05e17c1c)" d="M 326.844522 84130.68813 
L 330.149604 84130.68813 
L 330.149604 48.809217 
L 326.844522 48.809217 
z
" style="fill:#348abd;"/>
   </g>
   <g id="patch_24">
    <path clip-path="url(#p0b05e17c1c)" d="M 359.895338 84130.68813 
L 363.200419 84130.68813 
L 363.200419 45.313606 
L 359.895338 45.313606 
z
" style="fill:#348abd;"/>
   </g>
   <g id="patch_25">
    <path clip-path="url(#p0b05e17c1c)" d="M 392.946154 84130.68813 
L 396.251235 84130.68813 
L 396.251235 41.4005 
L 392.946154 41.4005 
z
" style="fill:#348abd;"/>
   </g>
   <g id="patch_26">
    <path clip-path="url(#p0b05e17c1c)" d="M 425.99697 84130.68813 
L 429.302051 84130.68813 
L 429.302051 38.54458 
L 425.99697 38.54458 
z
" style="fill:#348abd;"/>
   </g>
   <g id="patch_27">
    <path clip-path="url(#p0b05e17c1c)" d="M 65.743076 84130.68813 
L 69.048158 84130.68813 
L 69.048158 303.883636 
L 65.743076 303.883636 
z
" style="fill:#988ed5;"/>
   </g>
   <g id="patch_28">
    <path clip-path="url(#p0b05e17c1c)" d="M 98.793892 84130.68813 
L 102.098974 84130.68813 
L 102.098974 222.511482 
L 98.793892 222.511482 
z
" style="fill:#988ed5;"/>
   </g>
   <g id="patch_29">
    <path clip-path="url(#p0b05e17c1c)" d="M 131.844708 84130.68813 
L 135.14979 84130.68813 
L 135.14979 207.857464 
L 131.844708 207.857464 
z
" style="fill:#988ed5;"/>
   </g>
   <g id="patch_30">
    <path clip-path="url(#p0b05e17c1c)" d="M 164.895524 84130.68813 
L 168.200606 84130.68813 
L 168.200606 156.214655 
L 164.895524 156.214655 
z
" style="fill:#988ed5;"/>
   </g>
   <g id="patch_31">
    <path clip-path="url(#p0b05e17c1c)" d="M 197.94634 84130.68813 
L 201.251422 84130.68813 
L 201.251422 153.05779 
L 197.94634 153.05779 
z
" style="fill:#988ed5;"/>
   </g>
   <g id="patch_32">
    <path clip-path="url(#p0b05e17c1c)" d="M 230.997156 84130.68813 
L 234.302237 84130.68813 
L 234.302237 102.752608 
L 230.997156 102.752608 
z
" style="fill:#988ed5;"/>
   </g>
   <g id="patch_33">
    <path clip-path="url(#p0b05e17c1c)" d="M 264.047972 84130.68813 
L 267.353053 84130.68813 
L 267.353053 82.381236 
L 264.047972 82.381236 
z
" style="fill:#988ed5;"/>
   </g>
   <g id="patch_34">
    <path clip-path="url(#p0b05e17c1c)" d="M 297.098788 84130.68813 
L 300.403869 84130.68813 
L 300.403869 54.336502 
L 297.098788 54.336502 
z
" style="fill:#988ed5;"/>
   </g>
   <g id="patch_35">
    <path clip-path="url(#p0b05e17c1c)" d="M 330.149604 84130.68813 
L 333.454685 84130.68813 
L 333.454685 53.403738 
L 330.149604 53.403738 
z
" style="fill:#988ed5;"/>
   </g>
   <g id="patch_36">
    <path clip-path="url(#p0b05e17c1c)" d="M 363.200419 84130.68813 
L 366.505501 84130.68813 
L 366.505501 52.704128 
L 363.200419 52.704128 
z
" style="fill:#988ed5;"/>
   </g>
   <g id="patch_37">
    <path clip-path="url(#p0b05e17c1c)" d="M 396.251235 84130.68813 
L 399.556317 84130.68813 
L 399.556317 50.862439 
L 396.251235 50.862439 
z
" style="fill:#988ed5;"/>
   </g>
   <g id="patch_38">
    <path clip-path="url(#p0b05e17c1c)" d="M 429.302051 84130.68813 
L 432.607133 84130.68813 
L 432.607133 50.360371 
L 429.302051 50.360371 
z
" style="fill:#988ed5;"/>
   </g>
   <g id="patch_39">
    <path clip-path="url(#p0b05e17c1c)" d="M 69.048158 84130.68813 
L 72.35324 84130.68813 
L 72.35324 197.072817 
L 69.048158 197.072817 
z
" style="fill:#777777;"/>
   </g>
   <g id="patch_40">
    <path clip-path="url(#p0b05e17c1c)" d="M 102.098974 84130.68813 
L 105.404055 84130.68813 
L 105.404055 193.304961 
L 102.098974 193.304961 
z
" style="fill:#777777;"/>
   </g>
   <g id="patch_41">
    <path clip-path="url(#p0b05e17c1c)" d="M 135.14979 84130.68813 
L 138.454871 84130.68813 
L 138.454871 190.982394 
L 135.14979 190.982394 
z
" style="fill:#777777;"/>
   </g>
   <g id="patch_42">
    <path clip-path="url(#p0b05e17c1c)" d="M 168.200606 84130.68813 
L 171.505687 84130.68813 
L 171.505687 186.129229 
L 168.200606 186.129229 
z
" style="fill:#777777;"/>
   </g>
   <g id="patch_43">
    <path clip-path="url(#p0b05e17c1c)" d="M 201.251422 84130.68813 
L 204.556503 84130.68813 
L 204.556503 142.644756 
L 201.251422 142.644756 
z
" style="fill:#777777;"/>
   </g>
   <g id="patch_44">
    <path clip-path="url(#p0b05e17c1c)" d="M 234.302237 84130.68813 
L 237.607319 84130.68813 
L 237.607319 98.704032 
L 234.302237 98.704032 
z
" style="fill:#777777;"/>
   </g>
   <g id="patch_45">
    <path clip-path="url(#p0b05e17c1c)" d="M 267.353053 84130.68813 
L 270.658135 84130.68813 
L 270.658135 78.32592 
L 267.353053 78.32592 
z
" style="fill:#777777;"/>
   </g>
   <g id="patch_46">
    <path clip-path="url(#p0b05e17c1c)" d="M 300.403869 84130.68813 
L 303.708951 84130.68813 
L 303.708951 50.7929 
L 300.403869 50.7929 
z
" style="fill:#777777;"/>
   </g>
   <g id="patch_47">
    <path clip-path="url(#p0b05e17c1c)" d="M 333.454685 84130.68813 
L 336.759767 84130.68813 
L 336.759767 50.939452 
L 333.454685 50.939452 
z
" style="fill:#777777;"/>
   </g>
   <g id="patch_48">
    <path clip-path="url(#p0b05e17c1c)" d="M 366.505501 84130.68813 
L 369.810583 84130.68813 
L 369.810583 51.160393 
L 366.505501 51.160393 
z
" style="fill:#777777;"/>
   </g>
   <g id="patch_49">
    <path clip-path="url(#p0b05e17c1c)" d="M 399.556317 84130.68813 
L 402.861399 84130.68813 
L 402.861399 50.068877 
L 399.556317 50.068877 
z
" style="fill:#777777;"/>
   </g>
   <g id="patch_50">
    <path clip-path="url(#p0b05e17c1c)" d="M 432.607133 84130.68813 
L 435.912214 84130.68813 
L 435.912214 49.854453 
L 432.607133 49.854453 
z
" style="fill:#777777;"/>
   </g>
   <g id="patch_51">
    <path clip-path="url(#p0b05e17c1c)" d="M 72.35324 84130.68813 
L 75.658321 84130.68813 
L 75.658321 27.156364 
L 72.35324 27.156364 
z
" style="fill:#fbc15e;"/>
   </g>
   <g id="patch_52">
    <path clip-path="url(#p0b05e17c1c)" d="M 105.404055 84130.68813 
L 108.709137 84130.68813 
L 108.709137 84130.68813 
L 105.404055 84130.68813 
z
" style="fill:#fbc15e;"/>
   </g>
   <g id="patch_53">
    <path clip-path="url(#p0b05e17c1c)" d="M 138.454871 84130.68813 
L 141.759953 84130.68813 
L 141.759953 84130.68813 
L 138.454871 84130.68813 
z
" style="fill:#fbc15e;"/>
   </g>
   <g id="patch_54">
    <path clip-path="url(#p0b05e17c1c)" d="M 171.505687 84130.68813 
L 174.810769 84130.68813 
L 174.810769 84130.68813 
L 171.505687 84130.68813 
z
" style="fill:#fbc15e;"/>
   </g>
   <g id="patch_55">
    <path clip-path="url(#p0b05e17c1c)" d="M 204.556503 84130.68813 
L 207.861585 84130.68813 
L 207.861585 84130.68813 
L 204.556503 84130.68813 
z
" style="fill:#fbc15e;"/>
   </g>
   <g id="patch_56">
    <path clip-path="url(#p0b05e17c1c)" d="M 237.607319 84130.68813 
L 240.912401 84130.68813 
L 240.912401 84130.68813 
L 237.607319 84130.68813 
z
" style="fill:#fbc15e;"/>
   </g>
   <g id="patch_57">
    <path clip-path="url(#p0b05e17c1c)" d="M 270.658135 84130.68813 
L 273.963217 84130.68813 
L 273.963217 84130.68813 
L 270.658135 84130.68813 
z
" style="fill:#fbc15e;"/>
   </g>
   <g id="patch_58">
    <path clip-path="url(#p0b05e17c1c)" d="M 303.708951 84130.68813 
L 307.014032 84130.68813 
L 307.014032 84130.68813 
L 303.708951 84130.68813 
z
" style="fill:#fbc15e;"/>
   </g>
   <g id="patch_59">
    <path clip-path="url(#p0b05e17c1c)" d="M 336.759767 84130.68813 
L 340.064848 84130.68813 
L 340.064848 84130.68813 
L 336.759767 84130.68813 
z
" style="fill:#fbc15e;"/>
   </g>
   <g id="patch_60">
    <path clip-path="url(#p0b05e17c1c)" d="M 369.810583 84130.68813 
L 373.115664 84130.68813 
L 373.115664 84130.68813 
L 369.810583 84130.68813 
z
" style="fill:#fbc15e;"/>
   </g>
   <g id="patch_61">
    <path clip-path="url(#p0b05e17c1c)" d="M 402.861399 84130.68813 
L 406.16648 84130.68813 
L 406.16648 84130.68813 
L 402.861399 84130.68813 
z
" style="fill:#fbc15e;"/>
   </g>
   <g id="patch_62">
    <path clip-path="url(#p0b05e17c1c)" d="M 435.912214 84130.68813 
L 439.217296 84130.68813 
L 439.217296 84130.68813 
L 435.912214 84130.68813 
z
" style="fill:#fbc15e;"/>
   </g>
   <g id="patch_63">
    <path d="M 50.870209 317.72 
L 50.870209 13.32 
" style="fill:none;stroke:#ffffff;stroke-linecap:square;stroke-linejoin:miter;"/>
   </g>
   <g id="patch_64">
    <path d="M 447.48 317.72 
L 447.48 13.32 
" style="fill:none;stroke:#ffffff;stroke-linecap:square;stroke-linejoin:miter;"/>
   </g>
   <g id="patch_65">
    <path d="M 50.870209 317.72 
L 447.48 317.72 
" style="fill:none;stroke:#ffffff;stroke-linecap:square;stroke-linejoin:miter;"/>
   </g>
   <g id="patch_66">
    <path d="M 50.870209 13.32 
L 447.48 13.32 
" style="fill:none;stroke:#ffffff;stroke-linecap:square;stroke-linejoin:miter;"/>
   </g>
   <g id="legend_1">
    <g id="patch_67">
     <path d="M 57.870209 94.710625 
L 124.851459 94.710625 
Q 126.851459 94.710625 126.851459 92.710625 
L 126.851459 20.32 
Q 126.851459 18.32 124.851459 18.32 
L 57.870209 18.32 
Q 55.870209 18.32 55.870209 20.32 
L 55.870209 92.710625 
Q 55.870209 94.710625 57.870209 94.710625 
z
" style="fill:#e5e5e5;opacity:0.8;stroke:#cccccc;stroke-linejoin:miter;stroke-width:0.5;"/>
    </g>
    <g id="patch_68">
     <path d="M 59.870209 29.918437 
L 79.870209 29.918437 
L 79.870209 22.918437 
L 59.870209 22.918437 
z
" style="fill:#e24a33;"/>
    </g>
    <g id="text_18">
     <!-- c++ -->
     <defs>
      <path d="M 48.78125 52.59375 
L 48.78125 44.1875 
Q 44.96875 46.296875 41.140625 47.34375 
Q 37.3125 48.390625 33.40625 48.390625 
Q 24.65625 48.390625 19.8125 42.84375 
Q 14.984375 37.3125 14.984375 27.296875 
Q 14.984375 17.28125 19.8125 11.734375 
Q 24.65625 6.203125 33.40625 6.203125 
Q 37.3125 6.203125 41.140625 7.25 
Q 44.96875 8.296875 48.78125 10.40625 
L 48.78125 2.09375 
Q 45.015625 0.34375 40.984375 -0.53125 
Q 36.96875 -1.421875 32.421875 -1.421875 
Q 20.0625 -1.421875 12.78125 6.34375 
Q 5.515625 14.109375 5.515625 27.296875 
Q 5.515625 40.671875 12.859375 48.328125 
Q 20.21875 56 33.015625 56 
Q 37.15625 56 41.109375 55.140625 
Q 45.0625 54.296875 48.78125 52.59375 
z
" id="DejaVuSans-63"/>
      <path d="M 46 62.703125 
L 46 35.5 
L 73.1875 35.5 
L 73.1875 27.203125 
L 46 27.203125 
L 46 0 
L 37.796875 0 
L 37.796875 27.203125 
L 10.59375 27.203125 
L 10.59375 35.5 
L 37.796875 35.5 
L 37.796875 62.703125 
z
" id="DejaVuSans-2b"/>
     </defs>
     <g transform="translate(87.870209 29.918437)scale(0.1 -0.1)">
      <use xlink:href="#DejaVuSans-63"/>
      <use x="54.980469" xlink:href="#DejaVuSans-2b"/>
      <use x="138.769531" xlink:href="#DejaVuSans-2b"/>
     </g>
    </g>
    <g id="patch_69">
     <path d="M 59.870209 44.596563 
L 79.870209 44.596563 
L 79.870209 37.596563 
L 59.870209 37.596563 
z
" style="fill:#348abd;"/>
    </g>
    <g id="text_19">
     <!-- go -->
     <defs>
      <path d="M 45.40625 27.984375 
Q 45.40625 37.75 41.375 43.109375 
Q 37.359375 48.484375 30.078125 48.484375 
Q 22.859375 48.484375 18.828125 43.109375 
Q 14.796875 37.75 14.796875 27.984375 
Q 14.796875 18.265625 18.828125 12.890625 
Q 22.859375 7.515625 30.078125 7.515625 
Q 37.359375 7.515625 41.375 12.890625 
Q 45.40625 18.265625 45.40625 27.984375 
z
M 54.390625 6.78125 
Q 54.390625 -7.171875 48.1875 -13.984375 
Q 42 -20.796875 29.203125 -20.796875 
Q 24.46875 -20.796875 20.265625 -20.09375 
Q 16.0625 -19.390625 12.109375 -17.921875 
L 12.109375 -9.1875 
Q 16.0625 -11.328125 19.921875 -12.34375 
Q 23.78125 -13.375 27.78125 -13.375 
Q 36.625 -13.375 41.015625 -8.765625 
Q 45.40625 -4.15625 45.40625 5.171875 
L 45.40625 9.625 
Q 42.625 4.78125 38.28125 2.390625 
Q 33.9375 0 27.875 0 
Q 17.828125 0 11.671875 7.65625 
Q 5.515625 15.328125 5.515625 27.984375 
Q 5.515625 40.671875 11.671875 48.328125 
Q 17.828125 56 27.875 56 
Q 33.9375 56 38.28125 53.609375 
Q 42.625 51.21875 45.40625 46.390625 
L 45.40625 54.6875 
L 54.390625 54.6875 
z
" id="DejaVuSans-67"/>
      <path d="M 30.609375 48.390625 
Q 23.390625 48.390625 19.1875 42.75 
Q 14.984375 37.109375 14.984375 27.296875 
Q 14.984375 17.484375 19.15625 11.84375 
Q 23.34375 6.203125 30.609375 6.203125 
Q 37.796875 6.203125 41.984375 11.859375 
Q 46.1875 17.53125 46.1875 27.296875 
Q 46.1875 37.015625 41.984375 42.703125 
Q 37.796875 48.390625 30.609375 48.390625 
z
M 30.609375 56 
Q 42.328125 56 49.015625 48.375 
Q 55.71875 40.765625 55.71875 27.296875 
Q 55.71875 13.875 49.015625 6.21875 
Q 42.328125 -1.421875 30.609375 -1.421875 
Q 18.84375 -1.421875 12.171875 6.21875 
Q 5.515625 13.875 5.515625 27.296875 
Q 5.515625 40.765625 12.171875 48.375 
Q 18.84375 56 30.609375 56 
z
" id="DejaVuSans-6f"/>
     </defs>
     <g transform="translate(87.870209 44.596563)scale(0.1 -0.1)">
      <use xlink:href="#DejaVuSans-67"/>
      <use x="63.476562" xlink:href="#DejaVuSans-6f"/>
     </g>
    </g>
    <g id="patch_70">
     <path d="M 59.870209 59.274687 
L 79.870209 59.274687 
L 79.870209 52.274687 
L 59.870209 52.274687 
z
" style="fill:#988ed5;"/>
    </g>
    <g id="text_20">
     <!-- lexical -->
     <defs>
      <path d="M 9.421875 75.984375 
L 18.40625 75.984375 
L 18.40625 0 
L 9.421875 0 
z
" id="DejaVuSans-6c"/>
      <path d="M 54.890625 54.6875 
L 35.109375 28.078125 
L 55.90625 0 
L 45.3125 0 
L 29.390625 21.484375 
L 13.484375 0 
L 2.875 0 
L 24.125 28.609375 
L 4.6875 54.6875 
L 15.28125 54.6875 
L 29.78125 35.203125 
L 44.28125 54.6875 
z
" id="DejaVuSans-78"/>
      <path d="M 34.28125 27.484375 
Q 23.390625 27.484375 19.1875 25 
Q 14.984375 22.515625 14.984375 16.5 
Q 14.984375 11.71875 18.140625 8.90625 
Q 21.296875 6.109375 26.703125 6.109375 
Q 34.1875 6.109375 38.703125 11.40625 
Q 43.21875 16.703125 43.21875 25.484375 
L 43.21875 27.484375 
z
M 52.203125 31.203125 
L 52.203125 0 
L 43.21875 0 
L 43.21875 8.296875 
Q 40.140625 3.328125 35.546875 0.953125 
Q 30.953125 -1.421875 24.3125 -1.421875 
Q 15.921875 -1.421875 10.953125 3.296875 
Q 6 8.015625 6 15.921875 
Q 6 25.140625 12.171875 29.828125 
Q 18.359375 34.515625 30.609375 34.515625 
L 43.21875 34.515625 
L 43.21875 35.40625 
Q 43.21875 41.609375 39.140625 45 
Q 35.0625 48.390625 27.6875 48.390625 
Q 23 48.390625 18.546875 47.265625 
Q 14.109375 46.140625 10.015625 43.890625 
L 10.015625 52.203125 
Q 14.9375 54.109375 19.578125 55.046875 
Q 24.21875 56 28.609375 56 
Q 40.484375 56 46.34375 49.84375 
Q 52.203125 43.703125 52.203125 31.203125 
z
" id="DejaVuSans-61"/>
     </defs>
     <g transform="translate(87.870209 59.274687)scale(0.1 -0.1)">
      <use xlink:href="#DejaVuSans-6c"/>
      <use x="27.783203" xlink:href="#DejaVuSans-65"/>
      <use x="89.291016" xlink:href="#DejaVuSans-78"/>
      <use x="148.470703" xlink:href="#DejaVuSans-69"/>
      <use x="176.253906" xlink:href="#DejaVuSans-63"/>
      <use x="231.234375" xlink:href="#DejaVuSans-61"/>
      <use x="292.513672" xlink:href="#DejaVuSans-6c"/>
     </g>
    </g>
    <g id="patch_71">
     <path d="M 59.870209 73.952812 
L 79.870209 73.952812 
L 79.870209 66.952812 
L 59.870209 66.952812 
z
" style="fill:#777777;"/>
    </g>
    <g id="text_21">
     <!-- python -->
     <defs>
      <path d="M 18.109375 8.203125 
L 18.109375 -20.796875 
L 9.078125 -20.796875 
L 9.078125 54.6875 
L 18.109375 54.6875 
L 18.109375 46.390625 
Q 20.953125 51.265625 25.265625 53.625 
Q 29.59375 56 35.59375 56 
Q 45.5625 56 51.78125 48.09375 
Q 58.015625 40.1875 58.015625 27.296875 
Q 58.015625 14.40625 51.78125 6.484375 
Q 45.5625 -1.421875 35.59375 -1.421875 
Q 29.59375 -1.421875 25.265625 0.953125 
Q 20.953125 3.328125 18.109375 8.203125 
z
M 48.6875 27.296875 
Q 48.6875 37.203125 44.609375 42.84375 
Q 40.53125 48.484375 33.40625 48.484375 
Q 26.265625 48.484375 22.1875 42.84375 
Q 18.109375 37.203125 18.109375 27.296875 
Q 18.109375 17.390625 22.1875 11.75 
Q 26.265625 6.109375 33.40625 6.109375 
Q 40.53125 6.109375 44.609375 11.75 
Q 48.6875 17.390625 48.6875 27.296875 
z
" id="DejaVuSans-70"/>
      <path d="M 32.171875 -5.078125 
Q 28.375 -14.84375 24.75 -17.8125 
Q 21.140625 -20.796875 15.09375 -20.796875 
L 7.90625 -20.796875 
L 7.90625 -13.28125 
L 13.1875 -13.28125 
Q 16.890625 -13.28125 18.9375 -11.515625 
Q 21 -9.765625 23.484375 -3.21875 
L 25.09375 0.875 
L 2.984375 54.6875 
L 12.5 54.6875 
L 29.59375 11.921875 
L 46.6875 54.6875 
L 56.203125 54.6875 
z
" id="DejaVuSans-79"/>
      <path d="M 54.890625 33.015625 
L 54.890625 0 
L 45.90625 0 
L 45.90625 32.71875 
Q 45.90625 40.484375 42.875 44.328125 
Q 39.84375 48.1875 33.796875 48.1875 
Q 26.515625 48.1875 22.3125 43.546875 
Q 18.109375 38.921875 18.109375 30.90625 
L 18.109375 0 
L 9.078125 0 
L 9.078125 75.984375 
L 18.109375 75.984375 
L 18.109375 46.1875 
Q 21.34375 51.125 25.703125 53.5625 
Q 30.078125 56 35.796875 56 
Q 45.21875 56 50.046875 50.171875 
Q 54.890625 44.34375 54.890625 33.015625 
z
" id="DejaVuSans-68"/>
     </defs>
     <g transform="translate(87.870209 73.952812)scale(0.1 -0.1)">
      <use xlink:href="#DejaVuSans-70"/>
      <use x="63.476562" xlink:href="#DejaVuSans-79"/>
      <use x="122.65625" xlink:href="#DejaVuSans-74"/>
      <use x="161.865234" xlink:href="#DejaVuSans-68"/>
      <use x="225.244141" xlink:href="#DejaVuSans-6f"/>
      <use x="286.425781" xlink:href="#DejaVuSans-6e"/>
     </g>
    </g>
    <g id="patch_72">
     <path d="M 59.870209 88.630938 
L 79.870209 88.630938 
L 79.870209 81.630938 
L 59.870209 81.630938 
z
" style="fill:#fbc15e;"/>
    </g>
    <g id="text_22">
     <!-- rust -->
     <defs>
      <path d="M 8.5 21.578125 
L 8.5 54.6875 
L 17.484375 54.6875 
L 17.484375 21.921875 
Q 17.484375 14.15625 20.5 10.265625 
Q 23.53125 6.390625 29.59375 6.390625 
Q 36.859375 6.390625 41.078125 11.03125 
Q 45.3125 15.671875 45.3125 23.6875 
L 45.3125 54.6875 
L 54.296875 54.6875 
L 54.296875 0 
L 45.3125 0 
L 45.3125 8.40625 
Q 42.046875 3.421875 37.71875 1 
Q 33.40625 -1.421875 27.6875 -1.421875 
Q 18.265625 -1.421875 13.375 4.4375 
Q 8.5 10.296875 8.5 21.578125 
z
M 31.109375 56 
z
" id="DejaVuSans-75"/>
     </defs>
     <g transform="translate(87.870209 88.630938)scale(0.1 -0.1)">
      <use xlink:href="#DejaVuSans-72"/>
      <use x="41.113281" xlink:href="#DejaVuSans-75"/>
      <use x="104.492188" xlink:href="#DejaVuSans-73"/>
      <use x="156.591797" xlink:href="#DejaVuSans-74"/>
     </g>
    </g>
   </g>
  </g>
 </g>
 <defs>
  <clipPath id="p0b05e17c1c">
   <rect height="304.4" width="396.609791" x="50.870209" y="13.32"/>
  </clipPath>
 </defs>
</svg>
