<?xml version="1.0" encoding="utf-8" standalone="no"?>
<!DOCTYPE svg PUBLIC "-//W3C//DTD SVG 1.1//EN"
  "http://www.w3.org/Graphics/SVG/1.1/DTD/svg11.dtd">
<!-- Created with matplotlib (http://matplotlib.org/) -->
<svg height="576pt" version="1.1" viewBox="0 0 1152 576" width="1152pt" xmlns="http://www.w3.org/2000/svg" xmlns:xlink="http://www.w3.org/1999/xlink">
 <defs>
  <style type="text/css">
*{stroke-linecap:butt;stroke-linejoin:round;}
  </style>
 </defs>
 <g id="figure_1">
  <g id="patch_1">
   <path d="M 0 576 
L 1152 576 
L 1152 0 
L 0 0 
z
" style="fill:#ffffff;"/>
  </g>
  <g id="axes_1">
   <g id="patch_2">
    <path d="M 57.630082 529.72 
L 1138.68 529.72 
L 1138.68 13.32 
L 57.630082 13.32 
z
" style="fill:#e5e5e5;"/>
   </g>
   <g id="matplotlib.axis_1">
    <g id="xtick_1">
     <g id="line2d_1">
      <path clip-path="url(#pbd11050d22)" d="M 102.673829 529.72 
L 102.673829 13.32 
" style="fill:none;stroke:#ffffff;stroke-linecap:square;stroke-width:0.8;"/>
     </g>
     <g id="line2d_2">
      <defs>
       <path d="M 0 0 
L 0 3.5 
" id="m1adda224b7" style="stroke:#555555;stroke-width:0.8;"/>
      </defs>
      <g>
       <use style="fill:#555555;stroke:#555555;stroke-width:0.8;" x="102.673829" xlink:href="#m1adda224b7" y="529.72"/>
      </g>
     </g>
     <g id="text_1">
      <!-- 10 -->
      <defs>
       <path d="M 12.40625 8.296875 
L 28.515625 8.296875 
L 28.515625 63.921875 
L 10.984375 60.40625 
L 10.984375 69.390625 
L 28.421875 72.90625 
L 38.28125 72.90625 
L 38.28125 8.296875 
L 54.390625 8.296875 
L 54.390625 0 
L 12.40625 0 
z
" id="DejaVuSans-31"/>
       <path d="M 31.78125 66.40625 
Q 24.171875 66.40625 20.328125 58.90625 
Q 16.5 51.421875 16.5 36.375 
Q 16.5 21.390625 20.328125 13.890625 
Q 24.171875 6.390625 31.78125 6.390625 
Q 39.453125 6.390625 43.28125 13.890625 
Q 47.125 21.390625 47.125 36.375 
Q 47.125 51.421875 43.28125 58.90625 
Q 39.453125 66.40625 31.78125 66.40625 
z
M 31.78125 74.21875 
Q 44.046875 74.21875 50.515625 64.515625 
Q 56.984375 54.828125 56.984375 36.375 
Q 56.984375 17.96875 50.515625 8.265625 
Q 44.046875 -1.421875 31.78125 -1.421875 
Q 19.53125 -1.421875 13.0625 8.265625 
Q 6.59375 17.96875 6.59375 36.375 
Q 6.59375 54.828125 13.0625 64.515625 
Q 19.53125 74.21875 31.78125 74.21875 
z
" id="DejaVuSans-30"/>
      </defs>
      <g style="fill:#555555;" transform="translate(93.766329 547.357813)scale(0.14 -0.14)">
       <use xlink:href="#DejaVuSans-31"/>
       <use x="63.623047" xlink:href="#DejaVuSans-30"/>
      </g>
     </g>
    </g>
    <g id="xtick_2">
     <g id="line2d_3">
      <path clip-path="url(#pbd11050d22)" d="M 192.761322 529.72 
L 192.761322 13.32 
" style="fill:none;stroke:#ffffff;stroke-linecap:square;stroke-width:0.8;"/>
     </g>
     <g id="line2d_4">
      <g>
       <use style="fill:#555555;stroke:#555555;stroke-width:0.8;" x="192.761322" xlink:href="#m1adda224b7" y="529.72"/>
      </g>
     </g>
     <g id="text_2">
      <!-- 20 -->
      <defs>
       <path d="M 19.1875 8.296875 
L 53.609375 8.296875 
L 53.609375 0 
L 7.328125 0 
L 7.328125 8.296875 
Q 12.9375 14.109375 22.625 23.890625 
Q 32.328125 33.6875 34.8125 36.53125 
Q 39.546875 41.84375 41.421875 45.53125 
Q 43.3125 49.21875 43.3125 52.78125 
Q 43.3125 58.59375 39.234375 62.25 
Q 35.15625 65.921875 28.609375 65.921875 
Q 23.96875 65.921875 18.8125 64.3125 
Q 13.671875 62.703125 7.8125 59.421875 
L 7.8125 69.390625 
Q 13.765625 71.78125 18.9375 73 
Q 24.125 74.21875 28.421875 74.21875 
Q 39.75 74.21875 46.484375 68.546875 
Q 53.21875 62.890625 53.21875 53.421875 
Q 53.21875 48.921875 51.53125 44.890625 
Q 49.859375 40.875 45.40625 35.40625 
Q 44.1875 33.984375 37.640625 27.21875 
Q 31.109375 20.453125 19.1875 8.296875 
z
" id="DejaVuSans-32"/>
      </defs>
      <g style="fill:#555555;" transform="translate(183.853822 547.357813)scale(0.14 -0.14)">
       <use xlink:href="#DejaVuSans-32"/>
       <use x="63.623047" xlink:href="#DejaVuSans-30"/>
      </g>
     </g>
    </g>
    <g id="xtick_3">
     <g id="line2d_5">
      <path clip-path="url(#pbd11050d22)" d="M 282.848815 529.72 
L 282.848815 13.32 
" style="fill:none;stroke:#ffffff;stroke-linecap:square;stroke-width:0.8;"/>
     </g>
     <g id="line2d_6">
      <g>
       <use style="fill:#555555;stroke:#555555;stroke-width:0.8;" x="282.848815" xlink:href="#m1adda224b7" y="529.72"/>
      </g>
     </g>
     <g id="text_3">
      <!-- 30 -->
      <defs>
       <path d="M 40.578125 39.3125 
Q 47.65625 37.796875 51.625 33 
Q 55.609375 28.21875 55.609375 21.1875 
Q 55.609375 10.40625 48.1875 4.484375 
Q 40.765625 -1.421875 27.09375 -1.421875 
Q 22.515625 -1.421875 17.65625 -0.515625 
Q 12.796875 0.390625 7.625 2.203125 
L 7.625 11.71875 
Q 11.71875 9.328125 16.59375 8.109375 
Q 21.484375 6.890625 26.8125 6.890625 
Q 36.078125 6.890625 40.9375 10.546875 
Q 45.796875 14.203125 45.796875 21.1875 
Q 45.796875 27.640625 41.28125 31.265625 
Q 36.765625 34.90625 28.71875 34.90625 
L 20.21875 34.90625 
L 20.21875 43.015625 
L 29.109375 43.015625 
Q 36.375 43.015625 40.234375 45.921875 
Q 44.09375 48.828125 44.09375 54.296875 
Q 44.09375 59.90625 40.109375 62.90625 
Q 36.140625 65.921875 28.71875 65.921875 
Q 24.65625 65.921875 20.015625 65.03125 
Q 15.375 64.15625 9.8125 62.3125 
L 9.8125 71.09375 
Q 15.4375 72.65625 20.34375 73.4375 
Q 25.25 74.21875 29.59375 74.21875 
Q 40.828125 74.21875 47.359375 69.109375 
Q 53.90625 64.015625 53.90625 55.328125 
Q 53.90625 49.265625 50.4375 45.09375 
Q 46.96875 40.921875 40.578125 39.3125 
z
" id="DejaVuSans-33"/>
      </defs>
      <g style="fill:#555555;" transform="translate(273.941315 547.357813)scale(0.14 -0.14)">
       <use xlink:href="#DejaVuSans-33"/>
       <use x="63.623047" xlink:href="#DejaVuSans-30"/>
      </g>
     </g>
    </g>
    <g id="xtick_4">
     <g id="line2d_7">
      <path clip-path="url(#pbd11050d22)" d="M 372.936308 529.72 
L 372.936308 13.32 
" style="fill:none;stroke:#ffffff;stroke-linecap:square;stroke-width:0.8;"/>
     </g>
     <g id="line2d_8">
      <g>
       <use style="fill:#555555;stroke:#555555;stroke-width:0.8;" x="372.936308" xlink:href="#m1adda224b7" y="529.72"/>
      </g>
     </g>
     <g id="text_4">
      <!-- 40 -->
      <defs>
       <path d="M 37.796875 64.3125 
L 12.890625 25.390625 
L 37.796875 25.390625 
z
M 35.203125 72.90625 
L 47.609375 72.90625 
L 47.609375 25.390625 
L 58.015625 25.390625 
L 58.015625 17.1875 
L 47.609375 17.1875 
L 47.609375 0 
L 37.796875 0 
L 37.796875 17.1875 
L 4.890625 17.1875 
L 4.890625 26.703125 
z
" id="DejaVuSans-34"/>
      </defs>
      <g style="fill:#555555;" transform="translate(364.028808 547.357813)scale(0.14 -0.14)">
       <use xlink:href="#DejaVuSans-34"/>
       <use x="63.623047" xlink:href="#DejaVuSans-30"/>
      </g>
     </g>
    </g>
    <g id="xtick_5">
     <g id="line2d_9">
      <path clip-path="url(#pbd11050d22)" d="M 463.023801 529.72 
L 463.023801 13.32 
" style="fill:none;stroke:#ffffff;stroke-linecap:square;stroke-width:0.8;"/>
     </g>
     <g id="line2d_10">
      <g>
       <use style="fill:#555555;stroke:#555555;stroke-width:0.8;" x="463.023801" xlink:href="#m1adda224b7" y="529.72"/>
      </g>
     </g>
     <g id="text_5">
      <!-- 50 -->
      <defs>
       <path d="M 10.796875 72.90625 
L 49.515625 72.90625 
L 49.515625 64.59375 
L 19.828125 64.59375 
L 19.828125 46.734375 
Q 21.96875 47.46875 24.109375 47.828125 
Q 26.265625 48.1875 28.421875 48.1875 
Q 40.625 48.1875 47.75 41.5 
Q 54.890625 34.8125 54.890625 23.390625 
Q 54.890625 11.625 47.5625 5.09375 
Q 40.234375 -1.421875 26.90625 -1.421875 
Q 22.3125 -1.421875 17.546875 -0.640625 
Q 12.796875 0.140625 7.71875 1.703125 
L 7.71875 11.625 
Q 12.109375 9.234375 16.796875 8.0625 
Q 21.484375 6.890625 26.703125 6.890625 
Q 35.15625 6.890625 40.078125 11.328125 
Q 45.015625 15.765625 45.015625 23.390625 
Q 45.015625 31 40.078125 35.4375 
Q 35.15625 39.890625 26.703125 39.890625 
Q 22.75 39.890625 18.8125 39.015625 
Q 14.890625 38.140625 10.796875 36.28125 
z
" id="DejaVuSans-35"/>
      </defs>
      <g style="fill:#555555;" transform="translate(454.116301 547.357813)scale(0.14 -0.14)">
       <use xlink:href="#DejaVuSans-35"/>
       <use x="63.623047" xlink:href="#DejaVuSans-30"/>
      </g>
     </g>
    </g>
    <g id="xtick_6">
     <g id="line2d_11">
      <path clip-path="url(#pbd11050d22)" d="M 553.111294 529.72 
L 553.111294 13.32 
" style="fill:none;stroke:#ffffff;stroke-linecap:square;stroke-width:0.8;"/>
     </g>
     <g id="line2d_12">
      <g>
       <use style="fill:#555555;stroke:#555555;stroke-width:0.8;" x="553.111294" xlink:href="#m1adda224b7" y="529.72"/>
      </g>
     </g>
     <g id="text_6">
      <!-- 100 -->
      <g style="fill:#555555;" transform="translate(539.750044 547.357813)scale(0.14 -0.14)">
       <use xlink:href="#DejaVuSans-31"/>
       <use x="63.623047" xlink:href="#DejaVuSans-30"/>
       <use x="127.246094" xlink:href="#DejaVuSans-30"/>
      </g>
     </g>
    </g>
    <g id="xtick_7">
     <g id="line2d_13">
      <path clip-path="url(#pbd11050d22)" d="M 643.198788 529.72 
L 643.198788 13.32 
" style="fill:none;stroke:#ffffff;stroke-linecap:square;stroke-width:0.8;"/>
     </g>
     <g id="line2d_14">
      <g>
       <use style="fill:#555555;stroke:#555555;stroke-width:0.8;" x="643.198788" xlink:href="#m1adda224b7" y="529.72"/>
      </g>
     </g>
     <g id="text_7">
      <!-- 200 -->
      <g style="fill:#555555;" transform="translate(629.837538 547.357813)scale(0.14 -0.14)">
       <use xlink:href="#DejaVuSans-32"/>
       <use x="63.623047" xlink:href="#DejaVuSans-30"/>
       <use x="127.246094" xlink:href="#DejaVuSans-30"/>
      </g>
     </g>
    </g>
    <g id="xtick_8">
     <g id="line2d_15">
      <path clip-path="url(#pbd11050d22)" d="M 733.286281 529.72 
L 733.286281 13.32 
" style="fill:none;stroke:#ffffff;stroke-linecap:square;stroke-width:0.8;"/>
     </g>
     <g id="line2d_16">
      <g>
       <use style="fill:#555555;stroke:#555555;stroke-width:0.8;" x="733.286281" xlink:href="#m1adda224b7" y="529.72"/>
      </g>
     </g>
     <g id="text_8">
      <!-- 400 -->
      <g style="fill:#555555;" transform="translate(719.925031 547.357813)scale(0.14 -0.14)">
       <use xlink:href="#DejaVuSans-34"/>
       <use x="63.623047" xlink:href="#DejaVuSans-30"/>
       <use x="127.246094" xlink:href="#DejaVuSans-30"/>
      </g>
     </g>
    </g>
    <g id="xtick_9">
     <g id="line2d_17">
      <path clip-path="url(#pbd11050d22)" d="M 823.373774 529.72 
L 823.373774 13.32 
" style="fill:none;stroke:#ffffff;stroke-linecap:square;stroke-width:0.8;"/>
     </g>
     <g id="line2d_18">
      <g>
       <use style="fill:#555555;stroke:#555555;stroke-width:0.8;" x="823.373774" xlink:href="#m1adda224b7" y="529.72"/>
      </g>
     </g>
     <g id="text_9">
      <!-- 800 -->
      <defs>
       <path d="M 31.78125 34.625 
Q 24.75 34.625 20.71875 30.859375 
Q 16.703125 27.09375 16.703125 20.515625 
Q 16.703125 13.921875 20.71875 10.15625 
Q 24.75 6.390625 31.78125 6.390625 
Q 38.8125 6.390625 42.859375 10.171875 
Q 46.921875 13.96875 46.921875 20.515625 
Q 46.921875 27.09375 42.890625 30.859375 
Q 38.875 34.625 31.78125 34.625 
z
M 21.921875 38.8125 
Q 15.578125 40.375 12.03125 44.71875 
Q 8.5 49.078125 8.5 55.328125 
Q 8.5 64.0625 14.71875 69.140625 
Q 20.953125 74.21875 31.78125 74.21875 
Q 42.671875 74.21875 48.875 69.140625 
Q 55.078125 64.0625 55.078125 55.328125 
Q 55.078125 49.078125 51.53125 44.71875 
Q 48 40.375 41.703125 38.8125 
Q 48.828125 37.15625 52.796875 32.3125 
Q 56.78125 27.484375 56.78125 20.515625 
Q 56.78125 9.90625 50.3125 4.234375 
Q 43.84375 -1.421875 31.78125 -1.421875 
Q 19.734375 -1.421875 13.25 4.234375 
Q 6.78125 9.90625 6.78125 20.515625 
Q 6.78125 27.484375 10.78125 32.3125 
Q 14.796875 37.15625 21.921875 38.8125 
z
M 18.3125 54.390625 
Q 18.3125 48.734375 21.84375 45.5625 
Q 25.390625 42.390625 31.78125 42.390625 
Q 38.140625 42.390625 41.71875 45.5625 
Q 45.3125 48.734375 45.3125 54.390625 
Q 45.3125 60.0625 41.71875 63.234375 
Q 38.140625 66.40625 31.78125 66.40625 
Q 25.390625 66.40625 21.84375 63.234375 
Q 18.3125 60.0625 18.3125 54.390625 
z
" id="DejaVuSans-38"/>
      </defs>
      <g style="fill:#555555;" transform="translate(810.012524 547.357813)scale(0.14 -0.14)">
       <use xlink:href="#DejaVuSans-38"/>
       <use x="63.623047" xlink:href="#DejaVuSans-30"/>
       <use x="127.246094" xlink:href="#DejaVuSans-30"/>
      </g>
     </g>
    </g>
    <g id="xtick_10">
     <g id="line2d_19">
      <path clip-path="url(#pbd11050d22)" d="M 913.461267 529.72 
L 913.461267 13.32 
" style="fill:none;stroke:#ffffff;stroke-linecap:square;stroke-width:0.8;"/>
     </g>
     <g id="line2d_20">
      <g>
       <use style="fill:#555555;stroke:#555555;stroke-width:0.8;" x="913.461267" xlink:href="#m1adda224b7" y="529.72"/>
      </g>
     </g>
     <g id="text_10">
      <!-- 1600 -->
      <defs>
       <path d="M 33.015625 40.375 
Q 26.375 40.375 22.484375 35.828125 
Q 18.609375 31.296875 18.609375 23.390625 
Q 18.609375 15.53125 22.484375 10.953125 
Q 26.375 6.390625 33.015625 6.390625 
Q 39.65625 6.390625 43.53125 10.953125 
Q 47.40625 15.53125 47.40625 23.390625 
Q 47.40625 31.296875 43.53125 35.828125 
Q 39.65625 40.375 33.015625 40.375 
z
M 52.59375 71.296875 
L 52.59375 62.3125 
Q 48.875 64.0625 45.09375 64.984375 
Q 41.3125 65.921875 37.59375 65.921875 
Q 27.828125 65.921875 22.671875 59.328125 
Q 17.53125 52.734375 16.796875 39.40625 
Q 19.671875 43.65625 24.015625 45.921875 
Q 28.375 48.1875 33.59375 48.1875 
Q 44.578125 48.1875 50.953125 41.515625 
Q 57.328125 34.859375 57.328125 23.390625 
Q 57.328125 12.15625 50.6875 5.359375 
Q 44.046875 -1.421875 33.015625 -1.421875 
Q 20.359375 -1.421875 13.671875 8.265625 
Q 6.984375 17.96875 6.984375 36.375 
Q 6.984375 53.65625 15.1875 63.9375 
Q 23.390625 74.21875 37.203125 74.21875 
Q 40.921875 74.21875 44.703125 73.484375 
Q 48.484375 72.75 52.59375 71.296875 
z
" id="DejaVuSans-36"/>
      </defs>
      <g style="fill:#555555;" transform="translate(895.646267 547.357813)scale(0.14 -0.14)">
       <use xlink:href="#DejaVuSans-31"/>
       <use x="63.623047" xlink:href="#DejaVuSans-36"/>
       <use x="127.246094" xlink:href="#DejaVuSans-30"/>
       <use x="190.869141" xlink:href="#DejaVuSans-30"/>
      </g>
     </g>
    </g>
    <g id="xtick_11">
     <g id="line2d_21">
      <path clip-path="url(#pbd11050d22)" d="M 1003.54876 529.72 
L 1003.54876 13.32 
" style="fill:none;stroke:#ffffff;stroke-linecap:square;stroke-width:0.8;"/>
     </g>
     <g id="line2d_22">
      <g>
       <use style="fill:#555555;stroke:#555555;stroke-width:0.8;" x="1003.54876" xlink:href="#m1adda224b7" y="529.72"/>
      </g>
     </g>
     <g id="text_11">
      <!-- 3200 -->
      <g style="fill:#555555;" transform="translate(985.73376 547.357813)scale(0.14 -0.14)">
       <use xlink:href="#DejaVuSans-33"/>
       <use x="63.623047" xlink:href="#DejaVuSans-32"/>
       <use x="127.246094" xlink:href="#DejaVuSans-30"/>
       <use x="190.869141" xlink:href="#DejaVuSans-30"/>
      </g>
     </g>
    </g>
    <g id="xtick_12">
     <g id="line2d_23">
      <path clip-path="url(#pbd11050d22)" d="M 1093.636253 529.72 
L 1093.636253 13.32 
" style="fill:none;stroke:#ffffff;stroke-linecap:square;stroke-width:0.8;"/>
     </g>
     <g id="line2d_24">
      <g>
       <use style="fill:#555555;stroke:#555555;stroke-width:0.8;" x="1093.636253" xlink:href="#m1adda224b7" y="529.72"/>
      </g>
     </g>
     <g id="text_12">
      <!-- 6400 -->
      <g style="fill:#555555;" transform="translate(1075.821253 547.357813)scale(0.14 -0.14)">
       <use xlink:href="#DejaVuSans-36"/>
       <use x="63.623047" xlink:href="#DejaVuSans-34"/>
       <use x="127.246094" xlink:href="#DejaVuSans-30"/>
       <use x="190.869141" xlink:href="#DejaVuSans-30"/>
      </g>
     </g>
    </g>
    <g id="text_13">
     <!-- digits -->
     <defs>
      <path d="M 45.40625 46.390625 
L 45.40625 75.984375 
L 54.390625 75.984375 
L 54.390625 0 
L 45.40625 0 
L 45.40625 8.203125 
Q 42.578125 3.328125 38.25 0.953125 
Q 33.9375 -1.421875 27.875 -1.421875 
Q 17.96875 -1.421875 11.734375 6.484375 
Q 5.515625 14.40625 5.515625 27.296875 
Q 5.515625 40.1875 11.734375 48.09375 
Q 17.96875 56 27.875 56 
Q 33.9375 56 38.25 53.625 
Q 42.578125 51.265625 45.40625 46.390625 
z
M 14.796875 27.296875 
Q 14.796875 17.390625 18.875 11.75 
Q 22.953125 6.109375 30.078125 6.109375 
Q 37.203125 6.109375 41.296875 11.75 
Q 45.40625 17.390625 45.40625 27.296875 
Q 45.40625 37.203125 41.296875 42.84375 
Q 37.203125 48.484375 30.078125 48.484375 
Q 22.953125 48.484375 18.875 42.84375 
Q 14.796875 37.203125 14.796875 27.296875 
z
" id="DejaVuSans-64"/>
      <path d="M 9.421875 54.6875 
L 18.40625 54.6875 
L 18.40625 0 
L 9.421875 0 
z
M 9.421875 75.984375 
L 18.40625 75.984375 
L 18.40625 64.59375 
L 9.421875 64.59375 
z
" id="DejaVuSans-69"/>
      <path d="M 45.40625 27.984375 
Q 45.40625 37.75 41.375 43.109375 
Q 37.359375 48.484375 30.078125 48.484375 
Q 22.859375 48.484375 18.828125 43.109375 
Q 14.796875 37.75 14.796875 27.984375 
Q 14.796875 18.265625 18.828125 12.890625 
Q 22.859375 7.515625 30.078125 7.515625 
Q 37.359375 7.515625 41.375 12.890625 
Q 45.40625 18.265625 45.40625 27.984375 
z
M 54.390625 6.78125 
Q 54.390625 -7.171875 48.1875 -13.984375 
Q 42 -20.796875 29.203125 -20.796875 
Q 24.46875 -20.796875 20.265625 -20.09375 
Q 16.0625 -19.390625 12.109375 -17.921875 
L 12.109375 -9.1875 
Q 16.0625 -11.328125 19.921875 -12.34375 
Q 23.78125 -13.375 27.78125 -13.375 
Q 36.625 -13.375 41.015625 -8.765625 
Q 45.40625 -4.15625 45.40625 5.171875 
L 45.40625 9.625 
Q 42.625 4.78125 38.28125 2.390625 
Q 33.9375 0 27.875 0 
Q 17.828125 0 11.671875 7.65625 
Q 5.515625 15.328125 5.515625 27.984375 
Q 5.515625 40.671875 11.671875 48.328125 
Q 17.828125 56 27.875 56 
Q 33.9375 56 38.28125 53.609375 
Q 42.625 51.21875 45.40625 46.390625 
L 45.40625 54.6875 
L 54.390625 54.6875 
z
" id="DejaVuSans-67"/>
      <path d="M 18.3125 70.21875 
L 18.3125 54.6875 
L 36.8125 54.6875 
L 36.8125 47.703125 
L 18.3125 47.703125 
L 18.3125 18.015625 
Q 18.3125 11.328125 20.140625 9.421875 
Q 21.96875 7.515625 27.59375 7.515625 
L 36.8125 7.515625 
L 36.8125 0 
L 27.59375 0 
Q 17.1875 0 13.234375 3.875 
Q 9.28125 7.765625 9.28125 18.015625 
L 9.28125 47.703125 
L 2.6875 47.703125 
L 2.6875 54.6875 
L 9.28125 54.6875 
L 9.28125 70.21875 
z
" id="DejaVuSans-74"/>
      <path d="M 44.28125 53.078125 
L 44.28125 44.578125 
Q 40.484375 46.53125 36.375 47.5 
Q 32.28125 48.484375 27.875 48.484375 
Q 21.1875 48.484375 17.84375 46.4375 
Q 14.5 44.390625 14.5 40.28125 
Q 14.5 37.15625 16.890625 35.375 
Q 19.28125 33.59375 26.515625 31.984375 
L 29.59375 31.296875 
Q 39.15625 29.25 43.1875 25.515625 
Q 47.21875 21.78125 47.21875 15.09375 
Q 47.21875 7.46875 41.1875 3.015625 
Q 35.15625 -1.421875 24.609375 -1.421875 
Q 20.21875 -1.421875 15.453125 -0.5625 
Q 10.6875 0.296875 5.421875 2 
L 5.421875 11.28125 
Q 10.40625 8.6875 15.234375 7.390625 
Q 20.0625 6.109375 24.8125 6.109375 
Q 31.15625 6.109375 34.5625 8.28125 
Q 37.984375 10.453125 37.984375 14.40625 
Q 37.984375 18.0625 35.515625 20.015625 
Q 33.0625 21.96875 24.703125 23.78125 
L 21.578125 24.515625 
Q 13.234375 26.265625 9.515625 29.90625 
Q 5.8125 33.546875 5.8125 39.890625 
Q 5.8125 47.609375 11.28125 51.796875 
Q 16.75 56 26.8125 56 
Q 31.78125 56 36.171875 55.265625 
Q 40.578125 54.546875 44.28125 53.078125 
z
" id="DejaVuSans-73"/>
     </defs>
     <g style="fill:#555555;" transform="translate(581.725353 563.3875)scale(0.12 -0.12)">
      <use xlink:href="#DejaVuSans-64"/>
      <use x="63.476562" xlink:href="#DejaVuSans-69"/>
      <use x="91.259766" xlink:href="#DejaVuSans-67"/>
      <use x="154.736328" xlink:href="#DejaVuSans-69"/>
      <use x="182.519531" xlink:href="#DejaVuSans-74"/>
      <use x="221.728516" xlink:href="#DejaVuSans-73"/>
     </g>
    </g>
   </g>
   <g id="matplotlib.axis_2">
    <g id="ytick_1">
     <g id="line2d_25">
      <path clip-path="url(#pbd11050d22)" d="M 57.630082 476.339191 
L 1138.68 476.339191 
" style="fill:none;stroke:#ffffff;stroke-linecap:square;stroke-width:0.8;"/>
     </g>
     <g id="line2d_26">
      <defs>
       <path d="M 0 0 
L -3.5 0 
" id="m2656f49d8d" style="stroke:#555555;stroke-width:0.8;"/>
      </defs>
      <g>
       <use style="fill:#555555;stroke:#555555;stroke-width:0.8;" x="57.630082" xlink:href="#m2656f49d8d" y="476.339191"/>
      </g>
     </g>
     <g id="text_14">
      <!-- $\mathdefault{10^{2}}$ -->
      <g style="fill:#555555;" transform="translate(25.990082 481.658097)scale(0.14 -0.14)">
       <use transform="translate(0 0.765625)" xlink:href="#DejaVuSans-31"/>
       <use transform="translate(63.623047 0.765625)" xlink:href="#DejaVuSans-30"/>
       <use transform="translate(128.203125 39.046875)scale(0.7)" xlink:href="#DejaVuSans-32"/>
      </g>
     </g>
    </g>
    <g id="ytick_2">
     <g id="line2d_27">
      <path clip-path="url(#pbd11050d22)" d="M 57.630082 345.820558 
L 1138.68 345.820558 
" style="fill:none;stroke:#ffffff;stroke-linecap:square;stroke-width:0.8;"/>
     </g>
     <g id="line2d_28">
      <g>
       <use style="fill:#555555;stroke:#555555;stroke-width:0.8;" x="57.630082" xlink:href="#m2656f49d8d" y="345.820558"/>
      </g>
     </g>
     <g id="text_15">
      <!-- $\mathdefault{10^{3}}$ -->
      <g style="fill:#555555;" transform="translate(25.990082 351.139464)scale(0.14 -0.14)">
       <use transform="translate(0 0.765625)" xlink:href="#DejaVuSans-31"/>
       <use transform="translate(63.623047 0.765625)" xlink:href="#DejaVuSans-30"/>
       <use transform="translate(128.203125 39.046875)scale(0.7)" xlink:href="#DejaVuSans-33"/>
      </g>
     </g>
    </g>
    <g id="ytick_3">
     <g id="line2d_29">
      <path clip-path="url(#pbd11050d22)" d="M 57.630082 215.301925 
L 1138.68 215.301925 
" style="fill:none;stroke:#ffffff;stroke-linecap:square;stroke-width:0.8;"/>
     </g>
     <g id="line2d_30">
      <g>
       <use style="fill:#555555;stroke:#555555;stroke-width:0.8;" x="57.630082" xlink:href="#m2656f49d8d" y="215.301925"/>
      </g>
     </g>
     <g id="text_16">
      <!-- $\mathdefault{10^{4}}$ -->
      <g style="fill:#555555;" transform="translate(25.990082 220.620832)scale(0.14 -0.14)">
       <use transform="translate(0 0.684375)" xlink:href="#DejaVuSans-31"/>
       <use transform="translate(63.623047 0.684375)" xlink:href="#DejaVuSans-30"/>
       <use transform="translate(128.203125 38.965625)scale(0.7)" xlink:href="#DejaVuSans-34"/>
      </g>
     </g>
    </g>
    <g id="ytick_4">
     <g id="line2d_31">
      <path clip-path="url(#pbd11050d22)" d="M 57.630082 84.783293 
L 1138.68 84.783293 
" style="fill:none;stroke:#ffffff;stroke-linecap:square;stroke-width:0.8;"/>
     </g>
     <g id="line2d_32">
      <g>
       <use style="fill:#555555;stroke:#555555;stroke-width:0.8;" x="57.630082" xlink:href="#m2656f49d8d" y="84.783293"/>
      </g>
     </g>
     <g id="text_17">
      <!-- $\mathdefault{10^{5}}$ -->
      <g style="fill:#555555;" transform="translate(25.990082 90.102199)scale(0.14 -0.14)">
       <use transform="translate(0 0.684375)" xlink:href="#DejaVuSans-31"/>
       <use transform="translate(63.623047 0.684375)" xlink:href="#DejaVuSans-30"/>
       <use transform="translate(128.203125 38.965625)scale(0.7)" xlink:href="#DejaVuSans-35"/>
      </g>
     </g>
    </g>
    <g id="ytick_5">
     <g id="line2d_33">
      <defs>
       <path d="M 0 0 
L -2 0 
" id="m1803a0cbb2" style="stroke:#555555;stroke-width:0.6;"/>
      </defs>
      <g>
       <use style="fill:#555555;stroke:#555555;stroke-width:0.6;" x="57.630082" xlink:href="#m1803a0cbb2" y="528.277776"/>
      </g>
     </g>
    </g>
    <g id="ytick_6">
     <g id="line2d_34">
      <g>
       <use style="fill:#555555;stroke:#555555;stroke-width:0.6;" x="57.630082" xlink:href="#m1803a0cbb2" y="515.629214"/>
      </g>
     </g>
    </g>
    <g id="ytick_7">
     <g id="line2d_35">
      <g>
       <use style="fill:#555555;stroke:#555555;stroke-width:0.6;" x="57.630082" xlink:href="#m1803a0cbb2" y="505.294586"/>
      </g>
     </g>
    </g>
    <g id="ytick_8">
     <g id="line2d_36">
      <g>
       <use style="fill:#555555;stroke:#555555;stroke-width:0.6;" x="57.630082" xlink:href="#m1803a0cbb2" y="496.556783"/>
      </g>
     </g>
    </g>
    <g id="ytick_9">
     <g id="line2d_37">
      <g>
       <use style="fill:#555555;stroke:#555555;stroke-width:0.6;" x="57.630082" xlink:href="#m1803a0cbb2" y="488.987753"/>
      </g>
     </g>
    </g>
    <g id="ytick_10">
     <g id="line2d_38">
      <g>
       <use style="fill:#555555;stroke:#555555;stroke-width:0.6;" x="57.630082" xlink:href="#m1803a0cbb2" y="482.311396"/>
      </g>
     </g>
    </g>
    <g id="ytick_11">
     <g id="line2d_39">
      <g>
       <use style="fill:#555555;stroke:#555555;stroke-width:0.6;" x="57.630082" xlink:href="#m1803a0cbb2" y="437.049167"/>
      </g>
     </g>
    </g>
    <g id="ytick_12">
     <g id="line2d_40">
      <g>
       <use style="fill:#555555;stroke:#555555;stroke-width:0.6;" x="57.630082" xlink:href="#m1803a0cbb2" y="414.065977"/>
      </g>
     </g>
    </g>
    <g id="ytick_13">
     <g id="line2d_41">
      <g>
       <use style="fill:#555555;stroke:#555555;stroke-width:0.6;" x="57.630082" xlink:href="#m1803a0cbb2" y="397.759144"/>
      </g>
     </g>
    </g>
    <g id="ytick_14">
     <g id="line2d_42">
      <g>
       <use style="fill:#555555;stroke:#555555;stroke-width:0.6;" x="57.630082" xlink:href="#m1803a0cbb2" y="385.110581"/>
      </g>
     </g>
    </g>
    <g id="ytick_15">
     <g id="line2d_43">
      <g>
       <use style="fill:#555555;stroke:#555555;stroke-width:0.6;" x="57.630082" xlink:href="#m1803a0cbb2" y="374.775953"/>
      </g>
     </g>
    </g>
    <g id="ytick_16">
     <g id="line2d_44">
      <g>
       <use style="fill:#555555;stroke:#555555;stroke-width:0.6;" x="57.630082" xlink:href="#m1803a0cbb2" y="366.03815"/>
      </g>
     </g>
    </g>
    <g id="ytick_17">
     <g id="line2d_45">
      <g>
       <use style="fill:#555555;stroke:#555555;stroke-width:0.6;" x="57.630082" xlink:href="#m1803a0cbb2" y="358.46912"/>
      </g>
     </g>
    </g>
    <g id="ytick_18">
     <g id="line2d_46">
      <g>
       <use style="fill:#555555;stroke:#555555;stroke-width:0.6;" x="57.630082" xlink:href="#m1803a0cbb2" y="351.792763"/>
      </g>
     </g>
    </g>
    <g id="ytick_19">
     <g id="line2d_47">
      <g>
       <use style="fill:#555555;stroke:#555555;stroke-width:0.6;" x="57.630082" xlink:href="#m1803a0cbb2" y="306.530535"/>
      </g>
     </g>
    </g>
    <g id="ytick_20">
     <g id="line2d_48">
      <g>
       <use style="fill:#555555;stroke:#555555;stroke-width:0.6;" x="57.630082" xlink:href="#m1803a0cbb2" y="283.547344"/>
      </g>
     </g>
    </g>
    <g id="ytick_21">
     <g id="line2d_49">
      <g>
       <use style="fill:#555555;stroke:#555555;stroke-width:0.6;" x="57.630082" xlink:href="#m1803a0cbb2" y="267.240511"/>
      </g>
     </g>
    </g>
    <g id="ytick_22">
     <g id="line2d_50">
      <g>
       <use style="fill:#555555;stroke:#555555;stroke-width:0.6;" x="57.630082" xlink:href="#m1803a0cbb2" y="254.591949"/>
      </g>
     </g>
    </g>
    <g id="ytick_23">
     <g id="line2d_51">
      <g>
       <use style="fill:#555555;stroke:#555555;stroke-width:0.6;" x="57.630082" xlink:href="#m1803a0cbb2" y="244.257321"/>
      </g>
     </g>
    </g>
    <g id="ytick_24">
     <g id="line2d_52">
      <g>
       <use style="fill:#555555;stroke:#555555;stroke-width:0.6;" x="57.630082" xlink:href="#m1803a0cbb2" y="235.519517"/>
      </g>
     </g>
    </g>
    <g id="ytick_25">
     <g id="line2d_53">
      <g>
       <use style="fill:#555555;stroke:#555555;stroke-width:0.6;" x="57.630082" xlink:href="#m1803a0cbb2" y="227.950488"/>
      </g>
     </g>
    </g>
    <g id="ytick_26">
     <g id="line2d_54">
      <g>
       <use style="fill:#555555;stroke:#555555;stroke-width:0.6;" x="57.630082" xlink:href="#m1803a0cbb2" y="221.27413"/>
      </g>
     </g>
    </g>
    <g id="ytick_27">
     <g id="line2d_55">
      <g>
       <use style="fill:#555555;stroke:#555555;stroke-width:0.6;" x="57.630082" xlink:href="#m1803a0cbb2" y="176.011902"/>
      </g>
     </g>
    </g>
    <g id="ytick_28">
     <g id="line2d_56">
      <g>
       <use style="fill:#555555;stroke:#555555;stroke-width:0.6;" x="57.630082" xlink:href="#m1803a0cbb2" y="153.028712"/>
      </g>
     </g>
    </g>
    <g id="ytick_29">
     <g id="line2d_57">
      <g>
       <use style="fill:#555555;stroke:#555555;stroke-width:0.6;" x="57.630082" xlink:href="#m1803a0cbb2" y="136.721879"/>
      </g>
     </g>
    </g>
    <g id="ytick_30">
     <g id="line2d_58">
      <g>
       <use style="fill:#555555;stroke:#555555;stroke-width:0.6;" x="57.630082" xlink:href="#m1803a0cbb2" y="124.073316"/>
      </g>
     </g>
    </g>
    <g id="ytick_31">
     <g id="line2d_59">
      <g>
       <use style="fill:#555555;stroke:#555555;stroke-width:0.6;" x="57.630082" xlink:href="#m1803a0cbb2" y="113.738688"/>
      </g>
     </g>
    </g>
    <g id="ytick_32">
     <g id="line2d_60">
      <g>
       <use style="fill:#555555;stroke:#555555;stroke-width:0.6;" x="57.630082" xlink:href="#m1803a0cbb2" y="105.000885"/>
      </g>
     </g>
    </g>
    <g id="ytick_33">
     <g id="line2d_61">
      <g>
       <use style="fill:#555555;stroke:#555555;stroke-width:0.6;" x="57.630082" xlink:href="#m1803a0cbb2" y="97.431855"/>
      </g>
     </g>
    </g>
    <g id="ytick_34">
     <g id="line2d_62">
      <g>
       <use style="fill:#555555;stroke:#555555;stroke-width:0.6;" x="57.630082" xlink:href="#m1803a0cbb2" y="90.755498"/>
      </g>
     </g>
    </g>
    <g id="ytick_35">
     <g id="line2d_63">
      <g>
       <use style="fill:#555555;stroke:#555555;stroke-width:0.6;" x="57.630082" xlink:href="#m1803a0cbb2" y="45.493269"/>
      </g>
     </g>
    </g>
    <g id="ytick_36">
     <g id="line2d_64">
      <g>
       <use style="fill:#555555;stroke:#555555;stroke-width:0.6;" x="57.630082" xlink:href="#m1803a0cbb2" y="22.510079"/>
      </g>
     </g>
    </g>
    <g id="text_18">
     <!-- ns/iter -->
     <defs>
      <path d="M 54.890625 33.015625 
L 54.890625 0 
L 45.90625 0 
L 45.90625 32.71875 
Q 45.90625 40.484375 42.875 44.328125 
Q 39.84375 48.1875 33.796875 48.1875 
Q 26.515625 48.1875 22.3125 43.546875 
Q 18.109375 38.921875 18.109375 30.90625 
L 18.109375 0 
L 9.078125 0 
L 9.078125 54.6875 
L 18.109375 54.6875 
L 18.109375 46.1875 
Q 21.34375 51.125 25.703125 53.5625 
Q 30.078125 56 35.796875 56 
Q 45.21875 56 50.046875 50.171875 
Q 54.890625 44.34375 54.890625 33.015625 
z
" id="DejaVuSans-6e"/>
      <path d="M 25.390625 72.90625 
L 33.6875 72.90625 
L 8.296875 -9.28125 
L 0 -9.28125 
z
" id="DejaVuSans-2f"/>
      <path d="M 56.203125 29.59375 
L 56.203125 25.203125 
L 14.890625 25.203125 
Q 15.484375 15.921875 20.484375 11.0625 
Q 25.484375 6.203125 34.421875 6.203125 
Q 39.59375 6.203125 44.453125 7.46875 
Q 49.3125 8.734375 54.109375 11.28125 
L 54.109375 2.78125 
Q 49.265625 0.734375 44.1875 -0.34375 
Q 39.109375 -1.421875 33.890625 -1.421875 
Q 20.796875 -1.421875 13.15625 6.1875 
Q 5.515625 13.8125 5.515625 26.8125 
Q 5.515625 40.234375 12.765625 48.109375 
Q 20.015625 56 32.328125 56 
Q 43.359375 56 49.78125 48.890625 
Q 56.203125 41.796875 56.203125 29.59375 
z
M 47.21875 32.234375 
Q 47.125 39.59375 43.09375 43.984375 
Q 39.0625 48.390625 32.421875 48.390625 
Q 24.90625 48.390625 20.390625 44.140625 
Q 15.875 39.890625 15.1875 32.171875 
z
" id="DejaVuSans-65"/>
      <path d="M 41.109375 46.296875 
Q 39.59375 47.171875 37.8125 47.578125 
Q 36.03125 48 33.890625 48 
Q 26.265625 48 22.1875 43.046875 
Q 18.109375 38.09375 18.109375 28.8125 
L 18.109375 0 
L 9.078125 0 
L 9.078125 54.6875 
L 18.109375 54.6875 
L 18.109375 46.1875 
Q 20.953125 51.171875 25.484375 53.578125 
Q 30.03125 56 36.53125 56 
Q 37.453125 56 38.578125 55.875 
Q 39.703125 55.765625 41.0625 55.515625 
z
" id="DejaVuSans-72"/>
     </defs>
     <g style="fill:#555555;" transform="translate(19.494457 290.646875)rotate(-90)scale(0.12 -0.12)">
      <use xlink:href="#DejaVuSans-6e"/>
      <use x="63.378906" xlink:href="#DejaVuSans-73"/>
      <use x="115.478516" xlink:href="#DejaVuSans-2f"/>
      <use x="149.169922" xlink:href="#DejaVuSans-69"/>
      <use x="176.953125" xlink:href="#DejaVuSans-74"/>
      <use x="216.162109" xlink:href="#DejaVuSans-65"/>
      <use x="277.685547" xlink:href="#DejaVuSans-72"/>
     </g>
    </g>
   </g>
   <g id="patch_3">
    <path clip-path="url(#pbd11050d22)" d="M 80.151955 131256.00909 
L 86.586776 131256.00909 
L 86.586776 505.328411 
L 80.151955 505.328411 
z
" style="fill:#e24a33;"/>
   </g>
   <g id="patch_4">
    <path clip-path="url(#pbd11050d22)" d="M 170.239448 131256.00909 
L 176.674269 131256.00909 
L 176.674269 364.220269 
L 170.239448 364.220269 
z
" style="fill:#e24a33;"/>
   </g>
   <g id="patch_5">
    <path clip-path="url(#pbd11050d22)" d="M 260.326942 131256.00909 
L 266.761763 131256.00909 
L 266.761763 353.716806 
L 260.326942 353.716806 
z
" style="fill:#e24a33;"/>
   </g>
   <g id="patch_6">
    <path clip-path="url(#pbd11050d22)" d="M 350.414435 131256.00909 
L 356.849256 131256.00909 
L 356.849256 342.237865 
L 350.414435 342.237865 
z
" style="fill:#e24a33;"/>
   </g>
   <g id="patch_7">
    <path clip-path="url(#pbd11050d22)" d="M 440.501928 131256.00909 
L 446.936749 131256.00909 
L 446.936749 342.845345 
L 440.501928 342.845345 
z
" style="fill:#e24a33;"/>
   </g>
   <g id="patch_8">
    <path clip-path="url(#pbd11050d22)" d="M 530.589421 131256.00909 
L 537.024242 131256.00909 
L 537.024242 319.888227 
L 530.589421 319.888227 
z
" style="fill:#e24a33;"/>
   </g>
   <g id="patch_9">
    <path clip-path="url(#pbd11050d22)" d="M 620.676914 131256.00909 
L 627.111735 131256.00909 
L 627.111735 292.266814 
L 620.676914 292.266814 
z
" style="fill:#e24a33;"/>
   </g>
   <g id="patch_10">
    <path clip-path="url(#pbd11050d22)" d="M 710.764407 131256.00909 
L 717.199228 131256.00909 
L 717.199228 267.12982 
L 710.764407 267.12982 
z
" style="fill:#e24a33;"/>
   </g>
   <g id="patch_11">
    <path clip-path="url(#pbd11050d22)" d="M 800.851901 131256.00909 
L 807.286722 131256.00909 
L 807.286722 259.964939 
L 800.851901 259.964939 
z
" style="fill:#e24a33;"/>
   </g>
   <g id="patch_12">
    <path clip-path="url(#pbd11050d22)" d="M 890.939394 131256.00909 
L 897.374215 131256.00909 
L 897.374215 246.314789 
L 890.939394 246.314789 
z
" style="fill:#e24a33;"/>
   </g>
   <g id="patch_13">
    <path clip-path="url(#pbd11050d22)" d="M 981.026887 131256.00909 
L 987.461708 131256.00909 
L 987.461708 234.699467 
L 981.026887 234.699467 
z
" style="fill:#e24a33;"/>
   </g>
   <g id="patch_14">
    <path clip-path="url(#pbd11050d22)" d="M 1071.11438 131256.00909 
L 1077.549201 131256.00909 
L 1077.549201 214.505053 
L 1071.11438 214.505053 
z
" style="fill:#e24a33;"/>
   </g>
   <g id="patch_15">
    <path clip-path="url(#pbd11050d22)" d="M 86.586776 131256.00909 
L 93.021597 131256.00909 
L 93.021597 482.817502 
L 86.586776 482.817502 
z
" style="fill:#348abd;"/>
   </g>
   <g id="patch_16">
    <path clip-path="url(#pbd11050d22)" d="M 176.674269 131256.00909 
L 183.10909 131256.00909 
L 183.10909 145.247987 
L 176.674269 145.247987 
z
" style="fill:#348abd;"/>
   </g>
   <g id="patch_17">
    <path clip-path="url(#pbd11050d22)" d="M 266.761763 131256.00909 
L 273.196583 131256.00909 
L 273.196583 138.322914 
L 266.761763 138.322914 
z
" style="fill:#348abd;"/>
   </g>
   <g id="patch_18">
    <path clip-path="url(#pbd11050d22)" d="M 356.849256 131256.00909 
L 363.284077 131256.00909 
L 363.284077 145.445985 
L 356.849256 145.445985 
z
" style="fill:#348abd;"/>
   </g>
   <g id="patch_19">
    <path clip-path="url(#pbd11050d22)" d="M 446.936749 131256.00909 
L 453.37157 131256.00909 
L 453.37157 143.584357 
L 446.936749 143.584357 
z
" style="fill:#348abd;"/>
   </g>
   <g id="patch_20">
    <path clip-path="url(#pbd11050d22)" d="M 537.024242 131256.00909 
L 543.459063 131256.00909 
L 543.459063 137.761579 
L 537.024242 137.761579 
z
" style="fill:#348abd;"/>
   </g>
   <g id="patch_21">
    <path clip-path="url(#pbd11050d22)" d="M 627.111735 131256.00909 
L 633.546556 131256.00909 
L 633.546556 124.197021 
L 627.111735 124.197021 
z
" style="fill:#348abd;"/>
   </g>
   <g id="patch_22">
    <path clip-path="url(#pbd11050d22)" d="M 717.199228 131256.00909 
L 723.634049 131256.00909 
L 723.634049 192.356537 
L 717.199228 192.356537 
z
" style="fill:#348abd;"/>
   </g>
   <g id="patch_23">
    <path clip-path="url(#pbd11050d22)" d="M 807.286722 131256.00909 
L 813.721542 131256.00909 
L 813.721542 183.830889 
L 807.286722 183.830889 
z
" style="fill:#348abd;"/>
   </g>
   <g id="patch_24">
    <path clip-path="url(#pbd11050d22)" d="M 897.374215 131256.00909 
L 903.809036 131256.00909 
L 903.809036 170.55273 
L 897.374215 170.55273 
z
" style="fill:#348abd;"/>
   </g>
   <g id="patch_25">
    <path clip-path="url(#pbd11050d22)" d="M 987.461708 131256.00909 
L 993.896529 131256.00909 
L 993.896529 152.637062 
L 987.461708 152.637062 
z
" style="fill:#348abd;"/>
   </g>
   <g id="patch_26">
    <path clip-path="url(#pbd11050d22)" d="M 1077.549201 131256.00909 
L 1083.984022 131256.00909 
L 1083.984022 127.117005 
L 1077.549201 127.117005 
z
" style="fill:#348abd;"/>
   </g>
   <g id="patch_27">
    <path clip-path="url(#pbd11050d22)" d="M 93.021597 131256.00909 
L 99.456418 131256.00909 
L 99.456418 506.247273 
L 93.021597 506.247273 
z
" style="fill:#988ed5;"/>
   </g>
   <g id="patch_28">
    <path clip-path="url(#pbd11050d22)" d="M 183.10909 131256.00909 
L 189.543911 131256.00909 
L 189.543911 425.7776 
L 183.10909 425.7776 
z
" style="fill:#988ed5;"/>
   </g>
   <g id="patch_29">
    <path clip-path="url(#pbd11050d22)" d="M 273.196583 131256.00909 
L 279.631404 131256.00909 
L 279.631404 418.179539 
L 273.196583 418.179539 
z
" style="fill:#988ed5;"/>
   </g>
   <g id="patch_30">
    <path clip-path="url(#pbd11050d22)" d="M 363.284077 131256.00909 
L 369.718898 131256.00909 
L 369.718898 415.792512 
L 363.284077 415.792512 
z
" style="fill:#988ed5;"/>
   </g>
   <g id="patch_31">
    <path clip-path="url(#pbd11050d22)" d="M 453.37157 131256.00909 
L 459.806391 131256.00909 
L 459.806391 409.703554 
L 453.37157 409.703554 
z
" style="fill:#988ed5;"/>
   </g>
   <g id="patch_32">
    <path clip-path="url(#pbd11050d22)" d="M 543.459063 131256.00909 
L 549.893884 131256.00909 
L 549.893884 390.083932 
L 543.459063 390.083932 
z
" style="fill:#988ed5;"/>
   </g>
   <g id="patch_33">
    <path clip-path="url(#pbd11050d22)" d="M 633.546556 131256.00909 
L 639.981377 131256.00909 
L 639.981377 362.127391 
L 633.546556 362.127391 
z
" style="fill:#988ed5;"/>
   </g>
   <g id="patch_34">
    <path clip-path="url(#pbd11050d22)" d="M 723.634049 131256.00909 
L 730.06887 131256.00909 
L 730.06887 336.775876 
L 723.634049 336.775876 
z
" style="fill:#988ed5;"/>
   </g>
   <g id="patch_35">
    <path clip-path="url(#pbd11050d22)" d="M 813.721542 131256.00909 
L 820.156363 131256.00909 
L 820.156363 313.873282 
L 813.721542 313.873282 
z
" style="fill:#988ed5;"/>
   </g>
   <g id="patch_36">
    <path clip-path="url(#pbd11050d22)" d="M 903.809036 131256.00909 
L 910.243857 131256.00909 
L 910.243857 291.094784 
L 903.809036 291.094784 
z
" style="fill:#988ed5;"/>
   </g>
   <g id="patch_37">
    <path clip-path="url(#pbd11050d22)" d="M 993.896529 131256.00909 
L 1000.33135 131256.00909 
L 1000.33135 263.365663 
L 993.896529 263.365663 
z
" style="fill:#988ed5;"/>
   </g>
   <g id="patch_38">
    <path clip-path="url(#pbd11050d22)" d="M 1083.984022 131256.00909 
L 1090.418843 131256.00909 
L 1090.418843 231.224615 
L 1083.984022 231.224615 
z
" style="fill:#988ed5;"/>
   </g>
   <g id="patch_39">
    <path clip-path="url(#pbd11050d22)" d="M 99.456418 131256.00909 
L 105.891239 131256.00909 
L 105.891239 38.350005 
L 99.456418 38.350005 
z
" style="fill:#777777;"/>
   </g>
   <g id="patch_40">
    <path clip-path="url(#pbd11050d22)" d="M 189.543911 131256.00909 
L 195.978732 131256.00909 
L 195.978732 39.626821 
L 189.543911 39.626821 
z
" style="fill:#777777;"/>
   </g>
   <g id="patch_41">
    <path clip-path="url(#pbd11050d22)" d="M 279.631404 131256.00909 
L 286.066225 131256.00909 
L 286.066225 39.692536 
L 279.631404 39.692536 
z
" style="fill:#777777;"/>
   </g>
   <g id="patch_42">
    <path clip-path="url(#pbd11050d22)" d="M 369.718898 131256.00909 
L 376.153719 131256.00909 
L 376.153719 39.700212 
L 369.718898 39.700212 
z
" style="fill:#777777;"/>
   </g>
   <g id="patch_43">
    <path clip-path="url(#pbd11050d22)" d="M 459.806391 131256.00909 
L 466.241212 131256.00909 
L 466.241212 39.642923 
L 459.806391 39.642923 
z
" style="fill:#777777;"/>
   </g>
   <g id="patch_44">
    <path clip-path="url(#pbd11050d22)" d="M 549.893884 131256.00909 
L 556.328705 131256.00909 
L 556.328705 39.602549 
L 549.893884 39.602549 
z
" style="fill:#777777;"/>
   </g>
   <g id="patch_45">
    <path clip-path="url(#pbd11050d22)" d="M 639.981377 131256.00909 
L 646.416198 131256.00909 
L 646.416198 39.270426 
L 639.981377 39.270426 
z
" style="fill:#777777;"/>
   </g>
   <g id="patch_46">
    <path clip-path="url(#pbd11050d22)" d="M 730.06887 131256.00909 
L 736.503691 131256.00909 
L 736.503691 38.747423 
L 730.06887 38.747423 
z
" style="fill:#777777;"/>
   </g>
   <g id="patch_47">
    <path clip-path="url(#pbd11050d22)" d="M 820.156363 131256.00909 
L 826.591184 131256.00909 
L 826.591184 36.792727 
L 820.156363 36.792727 
z
" style="fill:#777777;"/>
   </g>
   <g id="patch_48">
    <path clip-path="url(#pbd11050d22)" d="M 910.243857 131256.00909 
L 916.678678 131256.00909 
L 916.678678 38.525929 
L 910.243857 38.525929 
z
" style="fill:#777777;"/>
   </g>
   <g id="patch_49">
    <path clip-path="url(#pbd11050d22)" d="M 1000.33135 131256.00909 
L 1006.766171 131256.00909 
L 1006.766171 38.133042 
L 1000.33135 38.133042 
z
" style="fill:#777777;"/>
   </g>
   <g id="patch_50">
    <path clip-path="url(#pbd11050d22)" d="M 1090.418843 131256.00909 
L 1096.853664 131256.00909 
L 1096.853664 37.466426 
L 1090.418843 37.466426 
z
" style="fill:#777777;"/>
   </g>
   <g id="patch_51">
    <path clip-path="url(#pbd11050d22)" d="M 105.891239 131256.00909 
L 112.32606 131256.00909 
L 112.32606 390.831418 
L 105.891239 390.831418 
z
" style="fill:#fbc15e;"/>
   </g>
   <g id="patch_52">
    <path clip-path="url(#pbd11050d22)" d="M 195.978732 131256.00909 
L 202.413553 131256.00909 
L 202.413553 379.399722 
L 195.978732 379.399722 
z
" style="fill:#fbc15e;"/>
   </g>
   <g id="patch_53">
    <path clip-path="url(#pbd11050d22)" d="M 286.066225 131256.00909 
L 292.501046 131256.00909 
L 292.501046 373.100456 
L 286.066225 373.100456 
z
" style="fill:#fbc15e;"/>
   </g>
   <g id="patch_54">
    <path clip-path="url(#pbd11050d22)" d="M 376.153719 131256.00909 
L 382.588539 131256.00909 
L 382.588539 368.267797 
L 376.153719 368.267797 
z
" style="fill:#fbc15e;"/>
   </g>
   <g id="patch_55">
    <path clip-path="url(#pbd11050d22)" d="M 466.241212 131256.00909 
L 472.676033 131256.00909 
L 472.676033 269.702251 
L 466.241212 269.702251 
z
" style="fill:#fbc15e;"/>
   </g>
   <g id="patch_56">
    <path clip-path="url(#pbd11050d22)" d="M 556.328705 131256.00909 
L 562.763526 131256.00909 
L 562.763526 237.917865 
L 556.328705 237.917865 
z
" style="fill:#fbc15e;"/>
   </g>
   <g id="patch_57">
    <path clip-path="url(#pbd11050d22)" d="M 646.416198 131256.00909 
L 652.851019 131256.00909 
L 652.851019 199.995836 
L 646.416198 199.995836 
z
" style="fill:#fbc15e;"/>
   </g>
   <g id="patch_58">
    <path clip-path="url(#pbd11050d22)" d="M 736.503691 131256.00909 
L 742.938512 131256.00909 
L 742.938512 175.167963 
L 736.503691 175.167963 
z
" style="fill:#fbc15e;"/>
   </g>
   <g id="patch_59">
    <path clip-path="url(#pbd11050d22)" d="M 826.591184 131256.00909 
L 833.026005 131256.00909 
L 833.026005 177.157063 
L 826.591184 177.157063 
z
" style="fill:#fbc15e;"/>
   </g>
   <g id="patch_60">
    <path clip-path="url(#pbd11050d22)" d="M 916.678678 131256.00909 
L 923.113498 131256.00909 
L 923.113498 173.246304 
L 916.678678 173.246304 
z
" style="fill:#fbc15e;"/>
   </g>
   <g id="patch_61">
    <path clip-path="url(#pbd11050d22)" d="M 1006.766171 131256.00909 
L 1013.200992 131256.00909 
L 1013.200992 166.390284 
L 1006.766171 166.390284 
z
" style="fill:#fbc15e;"/>
   </g>
   <g id="patch_62">
    <path clip-path="url(#pbd11050d22)" d="M 1096.853664 131256.00909 
L 1103.288485 131256.00909 
L 1103.288485 154.367002 
L 1096.853664 154.367002 
z
" style="fill:#fbc15e;"/>
   </g>
   <g id="patch_63">
    <path clip-path="url(#pbd11050d22)" d="M 112.32606 131256.00909 
L 118.760881 131256.00909 
L 118.760881 485.733169 
L 112.32606 485.733169 
z
" style="fill:#8eba42;"/>
   </g>
   <g id="patch_64">
    <path clip-path="url(#pbd11050d22)" d="M 202.413553 131256.00909 
L 208.848374 131256.00909 
L 208.848374 415.764796 
L 202.413553 415.764796 
z
" style="fill:#8eba42;"/>
   </g>
   <g id="patch_65">
    <path clip-path="url(#pbd11050d22)" d="M 292.501046 131256.00909 
L 298.935867 131256.00909 
L 298.935867 409.78161 
L 292.501046 409.78161 
z
" style="fill:#8eba42;"/>
   </g>
   <g id="patch_66">
    <path clip-path="url(#pbd11050d22)" d="M 382.588539 131256.00909 
L 389.02336 131256.00909 
L 389.02336 397.120448 
L 382.588539 397.120448 
z
" style="fill:#8eba42;"/>
   </g>
   <g id="patch_67">
    <path clip-path="url(#pbd11050d22)" d="M 472.676033 131256.00909 
L 479.110854 131256.00909 
L 479.110854 393.466961 
L 472.676033 393.466961 
z
" style="fill:#8eba42;"/>
   </g>
   <g id="patch_68">
    <path clip-path="url(#pbd11050d22)" d="M 562.763526 131256.00909 
L 569.198347 131256.00909 
L 569.198347 370.169921 
L 562.763526 370.169921 
z
" style="fill:#8eba42;"/>
   </g>
   <g id="patch_69">
    <path clip-path="url(#pbd11050d22)" d="M 652.851019 131256.00909 
L 659.28584 131256.00909 
L 659.28584 343.686136 
L 652.851019 343.686136 
z
" style="fill:#8eba42;"/>
   </g>
   <g id="patch_70">
    <path clip-path="url(#pbd11050d22)" d="M 742.938512 131256.00909 
L 749.373333 131256.00909 
L 749.373333 306.457305 
L 742.938512 306.457305 
z
" style="fill:#8eba42;"/>
   </g>
   <g id="patch_71">
    <path clip-path="url(#pbd11050d22)" d="M 833.026005 131256.00909 
L 839.460826 131256.00909 
L 839.460826 276.288277 
L 833.026005 276.288277 
z
" style="fill:#8eba42;"/>
   </g>
   <g id="patch_72">
    <path clip-path="url(#pbd11050d22)" d="M 923.113498 131256.00909 
L 929.548319 131256.00909 
L 929.548319 237.324493 
L 923.113498 237.324493 
z
" style="fill:#8eba42;"/>
   </g>
   <g id="patch_73">
    <path clip-path="url(#pbd11050d22)" d="M 1013.200992 131256.00909 
L 1019.635813 131256.00909 
L 1019.635813 195.132658 
L 1013.200992 195.132658 
z
" style="fill:#8eba42;"/>
   </g>
   <g id="patch_74">
    <path clip-path="url(#pbd11050d22)" d="M 1103.288485 131256.00909 
L 1109.723306 131256.00909 
L 1109.723306 180.079384 
L 1103.288485 180.079384 
z
" style="fill:#8eba42;"/>
   </g>
   <g id="patch_75">
    <path clip-path="url(#pbd11050d22)" d="M 118.760881 131256.00909 
L 125.195702 131256.00909 
L 125.195702 452.874793 
L 118.760881 452.874793 
z
" style="fill:#ffb5b8;"/>
   </g>
   <g id="patch_76">
    <path clip-path="url(#pbd11050d22)" d="M 208.848374 131256.00909 
L 215.283195 131256.00909 
L 215.283195 450.434189 
L 208.848374 450.434189 
z
" style="fill:#ffb5b8;"/>
   </g>
   <g id="patch_77">
    <path clip-path="url(#pbd11050d22)" d="M 298.935867 131256.00909 
L 305.370688 131256.00909 
L 305.370688 436.15472 
L 298.935867 436.15472 
z
" style="fill:#ffb5b8;"/>
   </g>
   <g id="patch_78">
    <path clip-path="url(#pbd11050d22)" d="M 389.02336 131256.00909 
L 395.458181 131256.00909 
L 395.458181 432.704032 
L 389.02336 432.704032 
z
" style="fill:#ffb5b8;"/>
   </g>
   <g id="patch_79">
    <path clip-path="url(#pbd11050d22)" d="M 479.110854 131256.00909 
L 485.545675 131256.00909 
L 485.545675 429.164633 
L 479.110854 429.164633 
z
" style="fill:#ffb5b8;"/>
   </g>
   <g id="patch_80">
    <path clip-path="url(#pbd11050d22)" d="M 569.198347 131256.00909 
L 575.633168 131256.00909 
L 575.633168 399.276346 
L 569.198347 399.276346 
z
" style="fill:#ffb5b8;"/>
   </g>
   <g id="patch_81">
    <path clip-path="url(#pbd11050d22)" d="M 659.28584 131256.00909 
L 665.720661 131256.00909 
L 665.720661 370.714849 
L 659.28584 370.714849 
z
" style="fill:#ffb5b8;"/>
   </g>
   <g id="patch_82">
    <path clip-path="url(#pbd11050d22)" d="M 749.373333 131256.00909 
L 755.808154 131256.00909 
L 755.808154 344.798947 
L 749.373333 344.798947 
z
" style="fill:#ffb5b8;"/>
   </g>
   <g id="patch_83">
    <path clip-path="url(#pbd11050d22)" d="M 839.460826 131256.00909 
L 845.895647 131256.00909 
L 845.895647 321.42436 
L 839.460826 321.42436 
z
" style="fill:#ffb5b8;"/>
   </g>
   <g id="patch_84">
    <path clip-path="url(#pbd11050d22)" d="M 929.548319 131256.00909 
L 935.98314 131256.00909 
L 935.98314 289.589615 
L 929.548319 289.589615 
z
" style="fill:#ffb5b8;"/>
   </g>
   <g id="patch_85">
    <path clip-path="url(#pbd11050d22)" d="M 1019.635813 131256.00909 
L 1026.070634 131256.00909 
L 1026.070634 256.760435 
L 1019.635813 256.760435 
z
" style="fill:#ffb5b8;"/>
   </g>
   <g id="patch_86">
    <path clip-path="url(#pbd11050d22)" d="M 1109.723306 131256.00909 
L 1116.158127 131256.00909 
L 1116.158127 221.550893 
L 1109.723306 221.550893 
z
" style="fill:#ffb5b8;"/>
   </g>
   <g id="patch_87">
    <path d="M 57.630082 529.72 
L 57.630082 13.32 
" style="fill:none;stroke:#ffffff;stroke-linecap:square;stroke-linejoin:miter;"/>
   </g>
   <g id="patch_88">
    <path d="M 1138.68 529.72 
L 1138.68 13.32 
" style="fill:none;stroke:#ffffff;stroke-linecap:square;stroke-linejoin:miter;"/>
   </g>
   <g id="patch_89">
    <path d="M 57.630082 529.72 
L 1138.68 529.72 
" style="fill:none;stroke:#ffffff;stroke-linecap:square;stroke-linejoin:miter;"/>
   </g>
   <g id="patch_90">
    <path d="M 57.630082 13.32 
L 1138.68 13.32 
" style="fill:none;stroke:#ffffff;stroke-linecap:square;stroke-linejoin:miter;"/>
   </g>
   <g id="legend_1">
    <g id="patch_91">
     <path d="M 67.430082 168.755 
L 243.361957 168.755 
Q 246.161957 168.755 246.161957 165.955 
L 246.161957 23.12 
Q 246.161957 20.32 243.361957 20.32 
L 67.430082 20.32 
Q 64.630082 20.32 64.630082 23.12 
L 64.630082 165.955 
Q 64.630082 168.755 67.430082 168.755 
z
" style="fill:#e5e5e5;opacity:0.8;stroke:#cccccc;stroke-linejoin:miter;stroke-width:0.5;"/>
    </g>
    <g id="patch_92">
     <path d="M 70.230082 36.557813 
L 98.230082 36.557813 
L 98.230082 26.757813 
L 70.230082 26.757813 
z
" style="fill:#e24a33;"/>
    </g>
    <g id="text_19">
     <!-- double_conversion -->
     <defs>
      <path d="M 30.609375 48.390625 
Q 23.390625 48.390625 19.1875 42.75 
Q 14.984375 37.109375 14.984375 27.296875 
Q 14.984375 17.484375 19.15625 11.84375 
Q 23.34375 6.203125 30.609375 6.203125 
Q 37.796875 6.203125 41.984375 11.859375 
Q 46.1875 17.53125 46.1875 27.296875 
Q 46.1875 37.015625 41.984375 42.703125 
Q 37.796875 48.390625 30.609375 48.390625 
z
M 30.609375 56 
Q 42.328125 56 49.015625 48.375 
Q 55.71875 40.765625 55.71875 27.296875 
Q 55.71875 13.875 49.015625 6.21875 
Q 42.328125 -1.421875 30.609375 -1.421875 
Q 18.84375 -1.421875 12.171875 6.21875 
Q 5.515625 13.875 5.515625 27.296875 
Q 5.515625 40.765625 12.171875 48.375 
Q 18.84375 56 30.609375 56 
z
" id="DejaVuSans-6f"/>
      <path d="M 8.5 21.578125 
L 8.5 54.6875 
L 17.484375 54.6875 
L 17.484375 21.921875 
Q 17.484375 14.15625 20.5 10.265625 
Q 23.53125 6.390625 29.59375 6.390625 
Q 36.859375 6.390625 41.078125 11.03125 
Q 45.3125 15.671875 45.3125 23.6875 
L 45.3125 54.6875 
L 54.296875 54.6875 
L 54.296875 0 
L 45.3125 0 
L 45.3125 8.40625 
Q 42.046875 3.421875 37.71875 1 
Q 33.40625 -1.421875 27.6875 -1.421875 
Q 18.265625 -1.421875 13.375 4.4375 
Q 8.5 10.296875 8.5 21.578125 
z
M 31.109375 56 
z
" id="DejaVuSans-75"/>
      <path d="M 48.6875 27.296875 
Q 48.6875 37.203125 44.609375 42.84375 
Q 40.53125 48.484375 33.40625 48.484375 
Q 26.265625 48.484375 22.1875 42.84375 
Q 18.109375 37.203125 18.109375 27.296875 
Q 18.109375 17.390625 22.1875 11.75 
Q 26.265625 6.109375 33.40625 6.109375 
Q 40.53125 6.109375 44.609375 11.75 
Q 48.6875 17.390625 48.6875 27.296875 
z
M 18.109375 46.390625 
Q 20.953125 51.265625 25.265625 53.625 
Q 29.59375 56 35.59375 56 
Q 45.5625 56 51.78125 48.09375 
Q 58.015625 40.1875 58.015625 27.296875 
Q 58.015625 14.40625 51.78125 6.484375 
Q 45.5625 -1.421875 35.59375 -1.421875 
Q 29.59375 -1.421875 25.265625 0.953125 
Q 20.953125 3.328125 18.109375 8.203125 
L 18.109375 0 
L 9.078125 0 
L 9.078125 75.984375 
L 18.109375 75.984375 
z
" id="DejaVuSans-62"/>
      <path d="M 9.421875 75.984375 
L 18.40625 75.984375 
L 18.40625 0 
L 9.421875 0 
z
" id="DejaVuSans-6c"/>
      <path d="M 50.984375 -16.609375 
L 50.984375 -23.578125 
L -0.984375 -23.578125 
L -0.984375 -16.609375 
z
" id="DejaVuSans-5f"/>
      <path d="M 48.78125 52.59375 
L 48.78125 44.1875 
Q 44.96875 46.296875 41.140625 47.34375 
Q 37.3125 48.390625 33.40625 48.390625 
Q 24.65625 48.390625 19.8125 42.84375 
Q 14.984375 37.3125 14.984375 27.296875 
Q 14.984375 17.28125 19.8125 11.734375 
Q 24.65625 6.203125 33.40625 6.203125 
Q 37.3125 6.203125 41.140625 7.25 
Q 44.96875 8.296875 48.78125 10.40625 
L 48.78125 2.09375 
Q 45.015625 0.34375 40.984375 -0.53125 
Q 36.96875 -1.421875 32.421875 -1.421875 
Q 20.0625 -1.421875 12.78125 6.34375 
Q 5.515625 14.109375 5.515625 27.296875 
Q 5.515625 40.671875 12.859375 48.328125 
Q 20.21875 56 33.015625 56 
Q 37.15625 56 41.109375 55.140625 
Q 45.0625 54.296875 48.78125 52.59375 
z
" id="DejaVuSans-63"/>
      <path d="M 2.984375 54.6875 
L 12.5 54.6875 
L 29.59375 8.796875 
L 46.6875 54.6875 
L 56.203125 54.6875 
L 35.6875 0 
L 23.484375 0 
z
" id="DejaVuSans-76"/>
     </defs>
     <g transform="translate(109.430082 36.557813)scale(0.14 -0.14)">
      <use xlink:href="#DejaVuSans-64"/>
      <use x="63.476562" xlink:href="#DejaVuSans-6f"/>
      <use x="124.658203" xlink:href="#DejaVuSans-75"/>
      <use x="188.037109" xlink:href="#DejaVuSans-62"/>
      <use x="251.513672" xlink:href="#DejaVuSans-6c"/>
      <use x="279.296875" xlink:href="#DejaVuSans-65"/>
      <use x="340.820312" xlink:href="#DejaVuSans-5f"/>
      <use x="390.820312" xlink:href="#DejaVuSans-63"/>
      <use x="445.800781" xlink:href="#DejaVuSans-6f"/>
      <use x="506.982422" xlink:href="#DejaVuSans-6e"/>
      <use x="570.361328" xlink:href="#DejaVuSans-76"/>
      <use x="629.541016" xlink:href="#DejaVuSans-65"/>
      <use x="691.064453" xlink:href="#DejaVuSans-72"/>
      <use x="732.177734" xlink:href="#DejaVuSans-73"/>
      <use x="784.277344" xlink:href="#DejaVuSans-69"/>
      <use x="812.060547" xlink:href="#DejaVuSans-6f"/>
      <use x="873.242188" xlink:href="#DejaVuSans-6e"/>
     </g>
    </g>
    <g id="patch_93">
     <path d="M 70.230082 57.496563 
L 98.230082 57.496563 
L 98.230082 47.696563 
L 70.230082 47.696563 
z
" style="fill:#348abd;"/>
    </g>
    <g id="text_20">
     <!-- golang -->
     <defs>
      <path d="M 34.28125 27.484375 
Q 23.390625 27.484375 19.1875 25 
Q 14.984375 22.515625 14.984375 16.5 
Q 14.984375 11.71875 18.140625 8.90625 
Q 21.296875 6.109375 26.703125 6.109375 
Q 34.1875 6.109375 38.703125 11.40625 
Q 43.21875 16.703125 43.21875 25.484375 
L 43.21875 27.484375 
z
M 52.203125 31.203125 
L 52.203125 0 
L 43.21875 0 
L 43.21875 8.296875 
Q 40.140625 3.328125 35.546875 0.953125 
Q 30.953125 -1.421875 24.3125 -1.421875 
Q 15.921875 -1.421875 10.953125 3.296875 
Q 6 8.015625 6 15.921875 
Q 6 25.140625 12.171875 29.828125 
Q 18.359375 34.515625 30.609375 34.515625 
L 43.21875 34.515625 
L 43.21875 35.40625 
Q 43.21875 41.609375 39.140625 45 
Q 35.0625 48.390625 27.6875 48.390625 
Q 23 48.390625 18.546875 47.265625 
Q 14.109375 46.140625 10.015625 43.890625 
L 10.015625 52.203125 
Q 14.9375 54.109375 19.578125 55.046875 
Q 24.21875 56 28.609375 56 
Q 40.484375 56 46.34375 49.84375 
Q 52.203125 43.703125 52.203125 31.203125 
z
" id="DejaVuSans-61"/>
     </defs>
     <g transform="translate(109.430082 57.496563)scale(0.14 -0.14)">
      <use xlink:href="#DejaVuSans-67"/>
      <use x="63.476562" xlink:href="#DejaVuSans-6f"/>
      <use x="124.658203" xlink:href="#DejaVuSans-6c"/>
      <use x="152.441406" xlink:href="#DejaVuSans-61"/>
      <use x="213.720703" xlink:href="#DejaVuSans-6e"/>
      <use x="277.099609" xlink:href="#DejaVuSans-67"/>
     </g>
    </g>
    <g id="patch_94">
     <path d="M 70.230082 78.045938 
L 98.230082 78.045938 
L 98.230082 68.245938 
L 70.230082 68.245938 
z
" style="fill:#988ed5;"/>
    </g>
    <g id="text_21">
     <!-- lexical -->
     <defs>
      <path d="M 54.890625 54.6875 
L 35.109375 28.078125 
L 55.90625 0 
L 45.3125 0 
L 29.390625 21.484375 
L 13.484375 0 
L 2.875 0 
L 24.125 28.609375 
L 4.6875 54.6875 
L 15.28125 54.6875 
L 29.78125 35.203125 
L 44.28125 54.6875 
z
" id="DejaVuSans-78"/>
     </defs>
     <g transform="translate(109.430082 78.045938)scale(0.14 -0.14)">
      <use xlink:href="#DejaVuSans-6c"/>
      <use x="27.783203" xlink:href="#DejaVuSans-65"/>
      <use x="89.291016" xlink:href="#DejaVuSans-78"/>
      <use x="148.470703" xlink:href="#DejaVuSans-69"/>
      <use x="176.253906" xlink:href="#DejaVuSans-63"/>
      <use x="231.234375" xlink:href="#DejaVuSans-61"/>
      <use x="292.513672" xlink:href="#DejaVuSans-6c"/>
     </g>
    </g>
    <g id="patch_95">
     <path d="M 70.230082 98.595313 
L 98.230082 98.595313 
L 98.230082 88.795313 
L 70.230082 88.795313 
z
" style="fill:#777777;"/>
    </g>
    <g id="text_22">
     <!-- libcore -->
     <g transform="translate(109.430082 98.595313)scale(0.14 -0.14)">
      <use xlink:href="#DejaVuSans-6c"/>
      <use x="27.783203" xlink:href="#DejaVuSans-69"/>
      <use x="55.566406" xlink:href="#DejaVuSans-62"/>
      <use x="119.042969" xlink:href="#DejaVuSans-63"/>
      <use x="174.023438" xlink:href="#DejaVuSans-6f"/>
      <use x="235.205078" xlink:href="#DejaVuSans-72"/>
      <use x="276.287109" xlink:href="#DejaVuSans-65"/>
     </g>
    </g>
    <g id="patch_96">
     <path d="M 70.230082 119.144688 
L 98.230082 119.144688 
L 98.230082 109.344688 
L 70.230082 109.344688 
z
" style="fill:#fbc15e;"/>
    </g>
    <g id="text_23">
     <!-- python -->
     <defs>
      <path d="M 18.109375 8.203125 
L 18.109375 -20.796875 
L 9.078125 -20.796875 
L 9.078125 54.6875 
L 18.109375 54.6875 
L 18.109375 46.390625 
Q 20.953125 51.265625 25.265625 53.625 
Q 29.59375 56 35.59375 56 
Q 45.5625 56 51.78125 48.09375 
Q 58.015625 40.1875 58.015625 27.296875 
Q 58.015625 14.40625 51.78125 6.484375 
Q 45.5625 -1.421875 35.59375 -1.421875 
Q 29.59375 -1.421875 25.265625 0.953125 
Q 20.953125 3.328125 18.109375 8.203125 
z
M 48.6875 27.296875 
Q 48.6875 37.203125 44.609375 42.84375 
Q 40.53125 48.484375 33.40625 48.484375 
Q 26.265625 48.484375 22.1875 42.84375 
Q 18.109375 37.203125 18.109375 27.296875 
Q 18.109375 17.390625 22.1875 11.75 
Q 26.265625 6.109375 33.40625 6.109375 
Q 40.53125 6.109375 44.609375 11.75 
Q 48.6875 17.390625 48.6875 27.296875 
z
" id="DejaVuSans-70"/>
      <path d="M 32.171875 -5.078125 
Q 28.375 -14.84375 24.75 -17.8125 
Q 21.140625 -20.796875 15.09375 -20.796875 
L 7.90625 -20.796875 
L 7.90625 -13.28125 
L 13.1875 -13.28125 
Q 16.890625 -13.28125 18.9375 -11.515625 
Q 21 -9.765625 23.484375 -3.21875 
L 25.09375 0.875 
L 2.984375 54.6875 
L 12.5 54.6875 
L 29.59375 11.921875 
L 46.6875 54.6875 
L 56.203125 54.6875 
z
" id="DejaVuSans-79"/>
      <path d="M 54.890625 33.015625 
L 54.890625 0 
L 45.90625 0 
L 45.90625 32.71875 
Q 45.90625 40.484375 42.875 44.328125 
Q 39.84375 48.1875 33.796875 48.1875 
Q 26.515625 48.1875 22.3125 43.546875 
Q 18.109375 38.921875 18.109375 30.90625 
L 18.109375 0 
L 9.078125 0 
L 9.078125 75.984375 
L 18.109375 75.984375 
L 18.109375 46.1875 
Q 21.34375 51.125 25.703125 53.5625 
Q 30.078125 56 35.796875 56 
Q 45.21875 56 50.046875 50.171875 
Q 54.890625 44.34375 54.890625 33.015625 
z
" id="DejaVuSans-68"/>
     </defs>
     <g transform="translate(109.430082 119.144688)scale(0.14 -0.14)">
      <use xlink:href="#DejaVuSans-70"/>
      <use x="63.476562" xlink:href="#DejaVuSans-79"/>
      <use x="122.65625" xlink:href="#DejaVuSans-74"/>
      <use x="161.865234" xlink:href="#DejaVuSans-68"/>
      <use x="225.244141" xlink:href="#DejaVuSans-6f"/>
      <use x="286.425781" xlink:href="#DejaVuSans-6e"/>
     </g>
    </g>
    <g id="patch_97">
     <path d="M 70.230082 139.694063 
L 98.230082 139.694063 
L 98.230082 129.894063 
L 70.230082 129.894063 
z
" style="fill:#8eba42;"/>
    </g>
    <g id="text_24">
     <!-- rapidjson -->
     <defs>
      <path d="M 9.421875 54.6875 
L 18.40625 54.6875 
L 18.40625 -0.984375 
Q 18.40625 -11.421875 14.421875 -16.109375 
Q 10.453125 -20.796875 1.609375 -20.796875 
L -1.8125 -20.796875 
L -1.8125 -13.1875 
L 0.59375 -13.1875 
Q 5.71875 -13.1875 7.5625 -10.8125 
Q 9.421875 -8.453125 9.421875 -0.984375 
z
M 9.421875 75.984375 
L 18.40625 75.984375 
L 18.40625 64.59375 
L 9.421875 64.59375 
z
" id="DejaVuSans-6a"/>
     </defs>
     <g transform="translate(109.430082 139.694063)scale(0.14 -0.14)">
      <use xlink:href="#DejaVuSans-72"/>
      <use x="41.113281" xlink:href="#DejaVuSans-61"/>
      <use x="102.392578" xlink:href="#DejaVuSans-70"/>
      <use x="165.869141" xlink:href="#DejaVuSans-69"/>
      <use x="193.652344" xlink:href="#DejaVuSans-64"/>
      <use x="257.128906" xlink:href="#DejaVuSans-6a"/>
      <use x="284.912109" xlink:href="#DejaVuSans-73"/>
      <use x="337.011719" xlink:href="#DejaVuSans-6f"/>
      <use x="398.193359" xlink:href="#DejaVuSans-6e"/>
     </g>
    </g>
    <g id="patch_98">
     <path d="M 70.230082 160.243438 
L 98.230082 160.243438 
L 98.230082 150.443438 
L 70.230082 150.443438 
z
" style="fill:#ffb5b8;"/>
    </g>
    <g id="text_25">
     <!-- strtod -->
     <g transform="translate(109.430082 160.243438)scale(0.14 -0.14)">
      <use xlink:href="#DejaVuSans-73"/>
      <use x="52.099609" xlink:href="#DejaVuSans-74"/>
      <use x="91.308594" xlink:href="#DejaVuSans-72"/>
      <use x="132.421875" xlink:href="#DejaVuSans-74"/>
      <use x="171.630859" xlink:href="#DejaVuSans-6f"/>
      <use x="232.8125" xlink:href="#DejaVuSans-64"/>
     </g>
    </g>
   </g>
  </g>
 </g>
 <defs>
  <clipPath id="pbd11050d22">
   <rect height="516.4" width="1081.049918" x="57.630082" y="13.32"/>
  </clipPath>
 </defs>
</svg>
