<?xml version="1.0" encoding="utf-8" standalone="no"?>
<!DOCTYPE svg PUBLIC "-//W3C//DTD SVG 1.1//EN"
  "http://www.w3.org/Graphics/SVG/1.1/DTD/svg11.dtd">
<!-- Created with matplotlib (http://matplotlib.org/) -->
<svg height="576pt" version="1.1" viewBox="0 0 1152 576" width="1152pt" xmlns="http://www.w3.org/2000/svg" xmlns:xlink="http://www.w3.org/1999/xlink">
 <defs>
  <style type="text/css">
*{stroke-linecap:butt;stroke-linejoin:round;}
  </style>
 </defs>
 <g id="figure_1">
  <g id="patch_1">
   <path d="M 0 576 
L 1152 576 
L 1152 0 
L 0 0 
z
" style="fill:#ffffff;"/>
  </g>
  <g id="axes_1">
   <g id="patch_2">
    <path d="M 57.630082 529.72 
L 1138.68 529.72 
L 1138.68 13.32 
L 57.630082 13.32 
z
" style="fill:#e5e5e5;"/>
   </g>
   <g id="matplotlib.axis_1">
    <g id="xtick_1">
     <g id="line2d_1">
      <path clip-path="url(#p6487c5cb96)" d="M 102.673829 529.72 
L 102.673829 13.32 
" style="fill:none;stroke:#ffffff;stroke-linecap:square;stroke-width:0.8;"/>
     </g>
     <g id="line2d_2">
      <defs>
       <path d="M 0 0 
L 0 3.5 
" id="m59aec25def" style="stroke:#555555;stroke-width:0.8;"/>
      </defs>
      <g>
       <use style="fill:#555555;stroke:#555555;stroke-width:0.8;" x="102.673829" xlink:href="#m59aec25def" y="529.72"/>
      </g>
     </g>
     <g id="text_1">
      <!-- 10 -->
      <defs>
       <path d="M 12.40625 8.296875 
L 28.515625 8.296875 
L 28.515625 63.921875 
L 10.984375 60.40625 
L 10.984375 69.390625 
L 28.421875 72.90625 
L 38.28125 72.90625 
L 38.28125 8.296875 
L 54.390625 8.296875 
L 54.390625 0 
L 12.40625 0 
z
" id="DejaVuSans-31"/>
       <path d="M 31.78125 66.40625 
Q 24.171875 66.40625 20.328125 58.90625 
Q 16.5 51.421875 16.5 36.375 
Q 16.5 21.390625 20.328125 13.890625 
Q 24.171875 6.390625 31.78125 6.390625 
Q 39.453125 6.390625 43.28125 13.890625 
Q 47.125 21.390625 47.125 36.375 
Q 47.125 51.421875 43.28125 58.90625 
Q 39.453125 66.40625 31.78125 66.40625 
z
M 31.78125 74.21875 
Q 44.046875 74.21875 50.515625 64.515625 
Q 56.984375 54.828125 56.984375 36.375 
Q 56.984375 17.96875 50.515625 8.265625 
Q 44.046875 -1.421875 31.78125 -1.421875 
Q 19.53125 -1.421875 13.0625 8.265625 
Q 6.59375 17.96875 6.59375 36.375 
Q 6.59375 54.828125 13.0625 64.515625 
Q 19.53125 74.21875 31.78125 74.21875 
z
" id="DejaVuSans-30"/>
      </defs>
      <g style="fill:#555555;" transform="translate(93.766329 547.357813)scale(0.14 -0.14)">
       <use xlink:href="#DejaVuSans-31"/>
       <use x="63.623047" xlink:href="#DejaVuSans-30"/>
      </g>
     </g>
    </g>
    <g id="xtick_2">
     <g id="line2d_3">
      <path clip-path="url(#p6487c5cb96)" d="M 192.761322 529.72 
L 192.761322 13.32 
" style="fill:none;stroke:#ffffff;stroke-linecap:square;stroke-width:0.8;"/>
     </g>
     <g id="line2d_4">
      <g>
       <use style="fill:#555555;stroke:#555555;stroke-width:0.8;" x="192.761322" xlink:href="#m59aec25def" y="529.72"/>
      </g>
     </g>
     <g id="text_2">
      <!-- 20 -->
      <defs>
       <path d="M 19.1875 8.296875 
L 53.609375 8.296875 
L 53.609375 0 
L 7.328125 0 
L 7.328125 8.296875 
Q 12.9375 14.109375 22.625 23.890625 
Q 32.328125 33.6875 34.8125 36.53125 
Q 39.546875 41.84375 41.421875 45.53125 
Q 43.3125 49.21875 43.3125 52.78125 
Q 43.3125 58.59375 39.234375 62.25 
Q 35.15625 65.921875 28.609375 65.921875 
Q 23.96875 65.921875 18.8125 64.3125 
Q 13.671875 62.703125 7.8125 59.421875 
L 7.8125 69.390625 
Q 13.765625 71.78125 18.9375 73 
Q 24.125 74.21875 28.421875 74.21875 
Q 39.75 74.21875 46.484375 68.546875 
Q 53.21875 62.890625 53.21875 53.421875 
Q 53.21875 48.921875 51.53125 44.890625 
Q 49.859375 40.875 45.40625 35.40625 
Q 44.1875 33.984375 37.640625 27.21875 
Q 31.109375 20.453125 19.1875 8.296875 
z
" id="DejaVuSans-32"/>
      </defs>
      <g style="fill:#555555;" transform="translate(183.853822 547.357813)scale(0.14 -0.14)">
       <use xlink:href="#DejaVuSans-32"/>
       <use x="63.623047" xlink:href="#DejaVuSans-30"/>
      </g>
     </g>
    </g>
    <g id="xtick_3">
     <g id="line2d_5">
      <path clip-path="url(#p6487c5cb96)" d="M 282.848815 529.72 
L 282.848815 13.32 
" style="fill:none;stroke:#ffffff;stroke-linecap:square;stroke-width:0.8;"/>
     </g>
     <g id="line2d_6">
      <g>
       <use style="fill:#555555;stroke:#555555;stroke-width:0.8;" x="282.848815" xlink:href="#m59aec25def" y="529.72"/>
      </g>
     </g>
     <g id="text_3">
      <!-- 30 -->
      <defs>
       <path d="M 40.578125 39.3125 
Q 47.65625 37.796875 51.625 33 
Q 55.609375 28.21875 55.609375 21.1875 
Q 55.609375 10.40625 48.1875 4.484375 
Q 40.765625 -1.421875 27.09375 -1.421875 
Q 22.515625 -1.421875 17.65625 -0.515625 
Q 12.796875 0.390625 7.625 2.203125 
L 7.625 11.71875 
Q 11.71875 9.328125 16.59375 8.109375 
Q 21.484375 6.890625 26.8125 6.890625 
Q 36.078125 6.890625 40.9375 10.546875 
Q 45.796875 14.203125 45.796875 21.1875 
Q 45.796875 27.640625 41.28125 31.265625 
Q 36.765625 34.90625 28.71875 34.90625 
L 20.21875 34.90625 
L 20.21875 43.015625 
L 29.109375 43.015625 
Q 36.375 43.015625 40.234375 45.921875 
Q 44.09375 48.828125 44.09375 54.296875 
Q 44.09375 59.90625 40.109375 62.90625 
Q 36.140625 65.921875 28.71875 65.921875 
Q 24.65625 65.921875 20.015625 65.03125 
Q 15.375 64.15625 9.8125 62.3125 
L 9.8125 71.09375 
Q 15.4375 72.65625 20.34375 73.4375 
Q 25.25 74.21875 29.59375 74.21875 
Q 40.828125 74.21875 47.359375 69.109375 
Q 53.90625 64.015625 53.90625 55.328125 
Q 53.90625 49.265625 50.4375 45.09375 
Q 46.96875 40.921875 40.578125 39.3125 
z
" id="DejaVuSans-33"/>
      </defs>
      <g style="fill:#555555;" transform="translate(273.941315 547.357813)scale(0.14 -0.14)">
       <use xlink:href="#DejaVuSans-33"/>
       <use x="63.623047" xlink:href="#DejaVuSans-30"/>
      </g>
     </g>
    </g>
    <g id="xtick_4">
     <g id="line2d_7">
      <path clip-path="url(#p6487c5cb96)" d="M 372.936308 529.72 
L 372.936308 13.32 
" style="fill:none;stroke:#ffffff;stroke-linecap:square;stroke-width:0.8;"/>
     </g>
     <g id="line2d_8">
      <g>
       <use style="fill:#555555;stroke:#555555;stroke-width:0.8;" x="372.936308" xlink:href="#m59aec25def" y="529.72"/>
      </g>
     </g>
     <g id="text_4">
      <!-- 40 -->
      <defs>
       <path d="M 37.796875 64.3125 
L 12.890625 25.390625 
L 37.796875 25.390625 
z
M 35.203125 72.90625 
L 47.609375 72.90625 
L 47.609375 25.390625 
L 58.015625 25.390625 
L 58.015625 17.1875 
L 47.609375 17.1875 
L 47.609375 0 
L 37.796875 0 
L 37.796875 17.1875 
L 4.890625 17.1875 
L 4.890625 26.703125 
z
" id="DejaVuSans-34"/>
      </defs>
      <g style="fill:#555555;" transform="translate(364.028808 547.357813)scale(0.14 -0.14)">
       <use xlink:href="#DejaVuSans-34"/>
       <use x="63.623047" xlink:href="#DejaVuSans-30"/>
      </g>
     </g>
    </g>
    <g id="xtick_5">
     <g id="line2d_9">
      <path clip-path="url(#p6487c5cb96)" d="M 463.023801 529.72 
L 463.023801 13.32 
" style="fill:none;stroke:#ffffff;stroke-linecap:square;stroke-width:0.8;"/>
     </g>
     <g id="line2d_10">
      <g>
       <use style="fill:#555555;stroke:#555555;stroke-width:0.8;" x="463.023801" xlink:href="#m59aec25def" y="529.72"/>
      </g>
     </g>
     <g id="text_5">
      <!-- 50 -->
      <defs>
       <path d="M 10.796875 72.90625 
L 49.515625 72.90625 
L 49.515625 64.59375 
L 19.828125 64.59375 
L 19.828125 46.734375 
Q 21.96875 47.46875 24.109375 47.828125 
Q 26.265625 48.1875 28.421875 48.1875 
Q 40.625 48.1875 47.75 41.5 
Q 54.890625 34.8125 54.890625 23.390625 
Q 54.890625 11.625 47.5625 5.09375 
Q 40.234375 -1.421875 26.90625 -1.421875 
Q 22.3125 -1.421875 17.546875 -0.640625 
Q 12.796875 0.140625 7.71875 1.703125 
L 7.71875 11.625 
Q 12.109375 9.234375 16.796875 8.0625 
Q 21.484375 6.890625 26.703125 6.890625 
Q 35.15625 6.890625 40.078125 11.328125 
Q 45.015625 15.765625 45.015625 23.390625 
Q 45.015625 31 40.078125 35.4375 
Q 35.15625 39.890625 26.703125 39.890625 
Q 22.75 39.890625 18.8125 39.015625 
Q 14.890625 38.140625 10.796875 36.28125 
z
" id="DejaVuSans-35"/>
      </defs>
      <g style="fill:#555555;" transform="translate(454.116301 547.357813)scale(0.14 -0.14)">
       <use xlink:href="#DejaVuSans-35"/>
       <use x="63.623047" xlink:href="#DejaVuSans-30"/>
      </g>
     </g>
    </g>
    <g id="xtick_6">
     <g id="line2d_11">
      <path clip-path="url(#p6487c5cb96)" d="M 553.111294 529.72 
L 553.111294 13.32 
" style="fill:none;stroke:#ffffff;stroke-linecap:square;stroke-width:0.8;"/>
     </g>
     <g id="line2d_12">
      <g>
       <use style="fill:#555555;stroke:#555555;stroke-width:0.8;" x="553.111294" xlink:href="#m59aec25def" y="529.72"/>
      </g>
     </g>
     <g id="text_6">
      <!-- 100 -->
      <g style="fill:#555555;" transform="translate(539.750044 547.357813)scale(0.14 -0.14)">
       <use xlink:href="#DejaVuSans-31"/>
       <use x="63.623047" xlink:href="#DejaVuSans-30"/>
       <use x="127.246094" xlink:href="#DejaVuSans-30"/>
      </g>
     </g>
    </g>
    <g id="xtick_7">
     <g id="line2d_13">
      <path clip-path="url(#p6487c5cb96)" d="M 643.198788 529.72 
L 643.198788 13.32 
" style="fill:none;stroke:#ffffff;stroke-linecap:square;stroke-width:0.8;"/>
     </g>
     <g id="line2d_14">
      <g>
       <use style="fill:#555555;stroke:#555555;stroke-width:0.8;" x="643.198788" xlink:href="#m59aec25def" y="529.72"/>
      </g>
     </g>
     <g id="text_7">
      <!-- 200 -->
      <g style="fill:#555555;" transform="translate(629.837538 547.357813)scale(0.14 -0.14)">
       <use xlink:href="#DejaVuSans-32"/>
       <use x="63.623047" xlink:href="#DejaVuSans-30"/>
       <use x="127.246094" xlink:href="#DejaVuSans-30"/>
      </g>
     </g>
    </g>
    <g id="xtick_8">
     <g id="line2d_15">
      <path clip-path="url(#p6487c5cb96)" d="M 733.286281 529.72 
L 733.286281 13.32 
" style="fill:none;stroke:#ffffff;stroke-linecap:square;stroke-width:0.8;"/>
     </g>
     <g id="line2d_16">
      <g>
       <use style="fill:#555555;stroke:#555555;stroke-width:0.8;" x="733.286281" xlink:href="#m59aec25def" y="529.72"/>
      </g>
     </g>
     <g id="text_8">
      <!-- 400 -->
      <g style="fill:#555555;" transform="translate(719.925031 547.357813)scale(0.14 -0.14)">
       <use xlink:href="#DejaVuSans-34"/>
       <use x="63.623047" xlink:href="#DejaVuSans-30"/>
       <use x="127.246094" xlink:href="#DejaVuSans-30"/>
      </g>
     </g>
    </g>
    <g id="xtick_9">
     <g id="line2d_17">
      <path clip-path="url(#p6487c5cb96)" d="M 823.373774 529.72 
L 823.373774 13.32 
" style="fill:none;stroke:#ffffff;stroke-linecap:square;stroke-width:0.8;"/>
     </g>
     <g id="line2d_18">
      <g>
       <use style="fill:#555555;stroke:#555555;stroke-width:0.8;" x="823.373774" xlink:href="#m59aec25def" y="529.72"/>
      </g>
     </g>
     <g id="text_9">
      <!-- 800 -->
      <defs>
       <path d="M 31.78125 34.625 
Q 24.75 34.625 20.71875 30.859375 
Q 16.703125 27.09375 16.703125 20.515625 
Q 16.703125 13.921875 20.71875 10.15625 
Q 24.75 6.390625 31.78125 6.390625 
Q 38.8125 6.390625 42.859375 10.171875 
Q 46.921875 13.96875 46.921875 20.515625 
Q 46.921875 27.09375 42.890625 30.859375 
Q 38.875 34.625 31.78125 34.625 
z
M 21.921875 38.8125 
Q 15.578125 40.375 12.03125 44.71875 
Q 8.5 49.078125 8.5 55.328125 
Q 8.5 64.0625 14.71875 69.140625 
Q 20.953125 74.21875 31.78125 74.21875 
Q 42.671875 74.21875 48.875 69.140625 
Q 55.078125 64.0625 55.078125 55.328125 
Q 55.078125 49.078125 51.53125 44.71875 
Q 48 40.375 41.703125 38.8125 
Q 48.828125 37.15625 52.796875 32.3125 
Q 56.78125 27.484375 56.78125 20.515625 
Q 56.78125 9.90625 50.3125 4.234375 
Q 43.84375 -1.421875 31.78125 -1.421875 
Q 19.734375 -1.421875 13.25 4.234375 
Q 6.78125 9.90625 6.78125 20.515625 
Q 6.78125 27.484375 10.78125 32.3125 
Q 14.796875 37.15625 21.921875 38.8125 
z
M 18.3125 54.390625 
Q 18.3125 48.734375 21.84375 45.5625 
Q 25.390625 42.390625 31.78125 42.390625 
Q 38.140625 42.390625 41.71875 45.5625 
Q 45.3125 48.734375 45.3125 54.390625 
Q 45.3125 60.0625 41.71875 63.234375 
Q 38.140625 66.40625 31.78125 66.40625 
Q 25.390625 66.40625 21.84375 63.234375 
Q 18.3125 60.0625 18.3125 54.390625 
z
" id="DejaVuSans-38"/>
      </defs>
      <g style="fill:#555555;" transform="translate(810.012524 547.357813)scale(0.14 -0.14)">
       <use xlink:href="#DejaVuSans-38"/>
       <use x="63.623047" xlink:href="#DejaVuSans-30"/>
       <use x="127.246094" xlink:href="#DejaVuSans-30"/>
      </g>
     </g>
    </g>
    <g id="xtick_10">
     <g id="line2d_19">
      <path clip-path="url(#p6487c5cb96)" d="M 913.461267 529.72 
L 913.461267 13.32 
" style="fill:none;stroke:#ffffff;stroke-linecap:square;stroke-width:0.8;"/>
     </g>
     <g id="line2d_20">
      <g>
       <use style="fill:#555555;stroke:#555555;stroke-width:0.8;" x="913.461267" xlink:href="#m59aec25def" y="529.72"/>
      </g>
     </g>
     <g id="text_10">
      <!-- 1600 -->
      <defs>
       <path d="M 33.015625 40.375 
Q 26.375 40.375 22.484375 35.828125 
Q 18.609375 31.296875 18.609375 23.390625 
Q 18.609375 15.53125 22.484375 10.953125 
Q 26.375 6.390625 33.015625 6.390625 
Q 39.65625 6.390625 43.53125 10.953125 
Q 47.40625 15.53125 47.40625 23.390625 
Q 47.40625 31.296875 43.53125 35.828125 
Q 39.65625 40.375 33.015625 40.375 
z
M 52.59375 71.296875 
L 52.59375 62.3125 
Q 48.875 64.0625 45.09375 64.984375 
Q 41.3125 65.921875 37.59375 65.921875 
Q 27.828125 65.921875 22.671875 59.328125 
Q 17.53125 52.734375 16.796875 39.40625 
Q 19.671875 43.65625 24.015625 45.921875 
Q 28.375 48.1875 33.59375 48.1875 
Q 44.578125 48.1875 50.953125 41.515625 
Q 57.328125 34.859375 57.328125 23.390625 
Q 57.328125 12.15625 50.6875 5.359375 
Q 44.046875 -1.421875 33.015625 -1.421875 
Q 20.359375 -1.421875 13.671875 8.265625 
Q 6.984375 17.96875 6.984375 36.375 
Q 6.984375 53.65625 15.1875 63.9375 
Q 23.390625 74.21875 37.203125 74.21875 
Q 40.921875 74.21875 44.703125 73.484375 
Q 48.484375 72.75 52.59375 71.296875 
z
" id="DejaVuSans-36"/>
      </defs>
      <g style="fill:#555555;" transform="translate(895.646267 547.357813)scale(0.14 -0.14)">
       <use xlink:href="#DejaVuSans-31"/>
       <use x="63.623047" xlink:href="#DejaVuSans-36"/>
       <use x="127.246094" xlink:href="#DejaVuSans-30"/>
       <use x="190.869141" xlink:href="#DejaVuSans-30"/>
      </g>
     </g>
    </g>
    <g id="xtick_11">
     <g id="line2d_21">
      <path clip-path="url(#p6487c5cb96)" d="M 1003.54876 529.72 
L 1003.54876 13.32 
" style="fill:none;stroke:#ffffff;stroke-linecap:square;stroke-width:0.8;"/>
     </g>
     <g id="line2d_22">
      <g>
       <use style="fill:#555555;stroke:#555555;stroke-width:0.8;" x="1003.54876" xlink:href="#m59aec25def" y="529.72"/>
      </g>
     </g>
     <g id="text_11">
      <!-- 3200 -->
      <g style="fill:#555555;" transform="translate(985.73376 547.357813)scale(0.14 -0.14)">
       <use xlink:href="#DejaVuSans-33"/>
       <use x="63.623047" xlink:href="#DejaVuSans-32"/>
       <use x="127.246094" xlink:href="#DejaVuSans-30"/>
       <use x="190.869141" xlink:href="#DejaVuSans-30"/>
      </g>
     </g>
    </g>
    <g id="xtick_12">
     <g id="line2d_23">
      <path clip-path="url(#p6487c5cb96)" d="M 1093.636253 529.72 
L 1093.636253 13.32 
" style="fill:none;stroke:#ffffff;stroke-linecap:square;stroke-width:0.8;"/>
     </g>
     <g id="line2d_24">
      <g>
       <use style="fill:#555555;stroke:#555555;stroke-width:0.8;" x="1093.636253" xlink:href="#m59aec25def" y="529.72"/>
      </g>
     </g>
     <g id="text_12">
      <!-- 6400 -->
      <g style="fill:#555555;" transform="translate(1075.821253 547.357813)scale(0.14 -0.14)">
       <use xlink:href="#DejaVuSans-36"/>
       <use x="63.623047" xlink:href="#DejaVuSans-34"/>
       <use x="127.246094" xlink:href="#DejaVuSans-30"/>
       <use x="190.869141" xlink:href="#DejaVuSans-30"/>
      </g>
     </g>
    </g>
    <g id="text_13">
     <!-- digits -->
     <defs>
      <path d="M 45.40625 46.390625 
L 45.40625 75.984375 
L 54.390625 75.984375 
L 54.390625 0 
L 45.40625 0 
L 45.40625 8.203125 
Q 42.578125 3.328125 38.25 0.953125 
Q 33.9375 -1.421875 27.875 -1.421875 
Q 17.96875 -1.421875 11.734375 6.484375 
Q 5.515625 14.40625 5.515625 27.296875 
Q 5.515625 40.1875 11.734375 48.09375 
Q 17.96875 56 27.875 56 
Q 33.9375 56 38.25 53.625 
Q 42.578125 51.265625 45.40625 46.390625 
z
M 14.796875 27.296875 
Q 14.796875 17.390625 18.875 11.75 
Q 22.953125 6.109375 30.078125 6.109375 
Q 37.203125 6.109375 41.296875 11.75 
Q 45.40625 17.390625 45.40625 27.296875 
Q 45.40625 37.203125 41.296875 42.84375 
Q 37.203125 48.484375 30.078125 48.484375 
Q 22.953125 48.484375 18.875 42.84375 
Q 14.796875 37.203125 14.796875 27.296875 
z
" id="DejaVuSans-64"/>
      <path d="M 9.421875 54.6875 
L 18.40625 54.6875 
L 18.40625 0 
L 9.421875 0 
z
M 9.421875 75.984375 
L 18.40625 75.984375 
L 18.40625 64.59375 
L 9.421875 64.59375 
z
" id="DejaVuSans-69"/>
      <path d="M 45.40625 27.984375 
Q 45.40625 37.75 41.375 43.109375 
Q 37.359375 48.484375 30.078125 48.484375 
Q 22.859375 48.484375 18.828125 43.109375 
Q 14.796875 37.75 14.796875 27.984375 
Q 14.796875 18.265625 18.828125 12.890625 
Q 22.859375 7.515625 30.078125 7.515625 
Q 37.359375 7.515625 41.375 12.890625 
Q 45.40625 18.265625 45.40625 27.984375 
z
M 54.390625 6.78125 
Q 54.390625 -7.171875 48.1875 -13.984375 
Q 42 -20.796875 29.203125 -20.796875 
Q 24.46875 -20.796875 20.265625 -20.09375 
Q 16.0625 -19.390625 12.109375 -17.921875 
L 12.109375 -9.1875 
Q 16.0625 -11.328125 19.921875 -12.34375 
Q 23.78125 -13.375 27.78125 -13.375 
Q 36.625 -13.375 41.015625 -8.765625 
Q 45.40625 -4.15625 45.40625 5.171875 
L 45.40625 9.625 
Q 42.625 4.78125 38.28125 2.390625 
Q 33.9375 0 27.875 0 
Q 17.828125 0 11.671875 7.65625 
Q 5.515625 15.328125 5.515625 27.984375 
Q 5.515625 40.671875 11.671875 48.328125 
Q 17.828125 56 27.875 56 
Q 33.9375 56 38.28125 53.609375 
Q 42.625 51.21875 45.40625 46.390625 
L 45.40625 54.6875 
L 54.390625 54.6875 
z
" id="DejaVuSans-67"/>
      <path d="M 18.3125 70.21875 
L 18.3125 54.6875 
L 36.8125 54.6875 
L 36.8125 47.703125 
L 18.3125 47.703125 
L 18.3125 18.015625 
Q 18.3125 11.328125 20.140625 9.421875 
Q 21.96875 7.515625 27.59375 7.515625 
L 36.8125 7.515625 
L 36.8125 0 
L 27.59375 0 
Q 17.1875 0 13.234375 3.875 
Q 9.28125 7.765625 9.28125 18.015625 
L 9.28125 47.703125 
L 2.6875 47.703125 
L 2.6875 54.6875 
L 9.28125 54.6875 
L 9.28125 70.21875 
z
" id="DejaVuSans-74"/>
      <path d="M 44.28125 53.078125 
L 44.28125 44.578125 
Q 40.484375 46.53125 36.375 47.5 
Q 32.28125 48.484375 27.875 48.484375 
Q 21.1875 48.484375 17.84375 46.4375 
Q 14.5 44.390625 14.5 40.28125 
Q 14.5 37.15625 16.890625 35.375 
Q 19.28125 33.59375 26.515625 31.984375 
L 29.59375 31.296875 
Q 39.15625 29.25 43.1875 25.515625 
Q 47.21875 21.78125 47.21875 15.09375 
Q 47.21875 7.46875 41.1875 3.015625 
Q 35.15625 -1.421875 24.609375 -1.421875 
Q 20.21875 -1.421875 15.453125 -0.5625 
Q 10.6875 0.296875 5.421875 2 
L 5.421875 11.28125 
Q 10.40625 8.6875 15.234375 7.390625 
Q 20.0625 6.109375 24.8125 6.109375 
Q 31.15625 6.109375 34.5625 8.28125 
Q 37.984375 10.453125 37.984375 14.40625 
Q 37.984375 18.0625 35.515625 20.015625 
Q 33.0625 21.96875 24.703125 23.78125 
L 21.578125 24.515625 
Q 13.234375 26.265625 9.515625 29.90625 
Q 5.8125 33.546875 5.8125 39.890625 
Q 5.8125 47.609375 11.28125 51.796875 
Q 16.75 56 26.8125 56 
Q 31.78125 56 36.171875 55.265625 
Q 40.578125 54.546875 44.28125 53.078125 
z
" id="DejaVuSans-73"/>
     </defs>
     <g style="fill:#555555;" transform="translate(581.725353 563.3875)scale(0.12 -0.12)">
      <use xlink:href="#DejaVuSans-64"/>
      <use x="63.476562" xlink:href="#DejaVuSans-69"/>
      <use x="91.259766" xlink:href="#DejaVuSans-67"/>
      <use x="154.736328" xlink:href="#DejaVuSans-69"/>
      <use x="182.519531" xlink:href="#DejaVuSans-74"/>
      <use x="221.728516" xlink:href="#DejaVuSans-73"/>
     </g>
    </g>
   </g>
   <g id="matplotlib.axis_2">
    <g id="ytick_1">
     <g id="line2d_25">
      <path clip-path="url(#p6487c5cb96)" d="M 57.630082 470.720183 
L 1138.68 470.720183 
" style="fill:none;stroke:#ffffff;stroke-linecap:square;stroke-width:0.8;"/>
     </g>
     <g id="line2d_26">
      <defs>
       <path d="M 0 0 
L -3.5 0 
" id="m0f317b33f1" style="stroke:#555555;stroke-width:0.8;"/>
      </defs>
      <g>
       <use style="fill:#555555;stroke:#555555;stroke-width:0.8;" x="57.630082" xlink:href="#m0f317b33f1" y="470.720183"/>
      </g>
     </g>
     <g id="text_14">
      <!-- $\mathdefault{10^{2}}$ -->
      <g style="fill:#555555;" transform="translate(25.990082 476.039089)scale(0.14 -0.14)">
       <use transform="translate(0 0.765625)" xlink:href="#DejaVuSans-31"/>
       <use transform="translate(63.623047 0.765625)" xlink:href="#DejaVuSans-30"/>
       <use transform="translate(128.203125 39.046875)scale(0.7)" xlink:href="#DejaVuSans-32"/>
      </g>
     </g>
    </g>
    <g id="ytick_2">
     <g id="line2d_27">
      <path clip-path="url(#p6487c5cb96)" d="M 57.630082 341.870055 
L 1138.68 341.870055 
" style="fill:none;stroke:#ffffff;stroke-linecap:square;stroke-width:0.8;"/>
     </g>
     <g id="line2d_28">
      <g>
       <use style="fill:#555555;stroke:#555555;stroke-width:0.8;" x="57.630082" xlink:href="#m0f317b33f1" y="341.870055"/>
      </g>
     </g>
     <g id="text_15">
      <!-- $\mathdefault{10^{3}}$ -->
      <g style="fill:#555555;" transform="translate(25.990082 347.188961)scale(0.14 -0.14)">
       <use transform="translate(0 0.765625)" xlink:href="#DejaVuSans-31"/>
       <use transform="translate(63.623047 0.765625)" xlink:href="#DejaVuSans-30"/>
       <use transform="translate(128.203125 39.046875)scale(0.7)" xlink:href="#DejaVuSans-33"/>
      </g>
     </g>
    </g>
    <g id="ytick_3">
     <g id="line2d_29">
      <path clip-path="url(#p6487c5cb96)" d="M 57.630082 213.019927 
L 1138.68 213.019927 
" style="fill:none;stroke:#ffffff;stroke-linecap:square;stroke-width:0.8;"/>
     </g>
     <g id="line2d_30">
      <g>
       <use style="fill:#555555;stroke:#555555;stroke-width:0.8;" x="57.630082" xlink:href="#m0f317b33f1" y="213.019927"/>
      </g>
     </g>
     <g id="text_16">
      <!-- $\mathdefault{10^{4}}$ -->
      <g style="fill:#555555;" transform="translate(25.990082 218.338833)scale(0.14 -0.14)">
       <use transform="translate(0 0.684375)" xlink:href="#DejaVuSans-31"/>
       <use transform="translate(63.623047 0.684375)" xlink:href="#DejaVuSans-30"/>
       <use transform="translate(128.203125 38.965625)scale(0.7)" xlink:href="#DejaVuSans-34"/>
      </g>
     </g>
    </g>
    <g id="ytick_4">
     <g id="line2d_31">
      <path clip-path="url(#p6487c5cb96)" d="M 57.630082 84.169798 
L 1138.68 84.169798 
" style="fill:none;stroke:#ffffff;stroke-linecap:square;stroke-width:0.8;"/>
     </g>
     <g id="line2d_32">
      <g>
       <use style="fill:#555555;stroke:#555555;stroke-width:0.8;" x="57.630082" xlink:href="#m0f317b33f1" y="84.169798"/>
      </g>
     </g>
     <g id="text_17">
      <!-- $\mathdefault{10^{5}}$ -->
      <g style="fill:#555555;" transform="translate(25.990082 89.488704)scale(0.14 -0.14)">
       <use transform="translate(0 0.684375)" xlink:href="#DejaVuSans-31"/>
       <use transform="translate(63.623047 0.684375)" xlink:href="#DejaVuSans-30"/>
       <use transform="translate(128.203125 38.965625)scale(0.7)" xlink:href="#DejaVuSans-35"/>
      </g>
     </g>
    </g>
    <g id="ytick_5">
     <g id="line2d_33">
      <defs>
       <path d="M 0 0 
L -2 0 
" id="m9315466de5" style="stroke:#555555;stroke-width:0.6;"/>
      </defs>
      <g>
       <use style="fill:#555555;stroke:#555555;stroke-width:0.6;" x="57.630082" xlink:href="#m9315466de5" y="521.994804"/>
      </g>
     </g>
    </g>
    <g id="ytick_6">
     <g id="line2d_34">
      <g>
       <use style="fill:#555555;stroke:#555555;stroke-width:0.6;" x="57.630082" xlink:href="#m9315466de5" y="509.507937"/>
      </g>
     </g>
    </g>
    <g id="ytick_7">
     <g id="line2d_35">
      <g>
       <use style="fill:#555555;stroke:#555555;stroke-width:0.6;" x="57.630082" xlink:href="#m9315466de5" y="499.305423"/>
      </g>
     </g>
    </g>
    <g id="ytick_8">
     <g id="line2d_36">
      <g>
       <use style="fill:#555555;stroke:#555555;stroke-width:0.6;" x="57.630082" xlink:href="#m9315466de5" y="490.679321"/>
      </g>
     </g>
    </g>
    <g id="ytick_9">
     <g id="line2d_37">
      <g>
       <use style="fill:#555555;stroke:#555555;stroke-width:0.6;" x="57.630082" xlink:href="#m9315466de5" y="483.207051"/>
      </g>
     </g>
    </g>
    <g id="ytick_10">
     <g id="line2d_38">
      <g>
       <use style="fill:#555555;stroke:#555555;stroke-width:0.6;" x="57.630082" xlink:href="#m9315466de5" y="476.616042"/>
      </g>
     </g>
    </g>
    <g id="ytick_11">
     <g id="line2d_39">
      <g>
       <use style="fill:#555555;stroke:#555555;stroke-width:0.6;" x="57.630082" xlink:href="#m9315466de5" y="431.93243"/>
      </g>
     </g>
    </g>
    <g id="ytick_12">
     <g id="line2d_40">
      <g>
       <use style="fill:#555555;stroke:#555555;stroke-width:0.6;" x="57.630082" xlink:href="#m9315466de5" y="409.243048"/>
      </g>
     </g>
    </g>
    <g id="ytick_13">
     <g id="line2d_41">
      <g>
       <use style="fill:#555555;stroke:#555555;stroke-width:0.6;" x="57.630082" xlink:href="#m9315466de5" y="393.144676"/>
      </g>
     </g>
    </g>
    <g id="ytick_14">
     <g id="line2d_42">
      <g>
       <use style="fill:#555555;stroke:#555555;stroke-width:0.6;" x="57.630082" xlink:href="#m9315466de5" y="380.657808"/>
      </g>
     </g>
    </g>
    <g id="ytick_15">
     <g id="line2d_43">
      <g>
       <use style="fill:#555555;stroke:#555555;stroke-width:0.6;" x="57.630082" xlink:href="#m9315466de5" y="370.455295"/>
      </g>
     </g>
    </g>
    <g id="ytick_16">
     <g id="line2d_44">
      <g>
       <use style="fill:#555555;stroke:#555555;stroke-width:0.6;" x="57.630082" xlink:href="#m9315466de5" y="361.829192"/>
      </g>
     </g>
    </g>
    <g id="ytick_17">
     <g id="line2d_45">
      <g>
       <use style="fill:#555555;stroke:#555555;stroke-width:0.6;" x="57.630082" xlink:href="#m9315466de5" y="354.356922"/>
      </g>
     </g>
    </g>
    <g id="ytick_18">
     <g id="line2d_46">
      <g>
       <use style="fill:#555555;stroke:#555555;stroke-width:0.6;" x="57.630082" xlink:href="#m9315466de5" y="347.765913"/>
      </g>
     </g>
    </g>
    <g id="ytick_19">
     <g id="line2d_47">
      <g>
       <use style="fill:#555555;stroke:#555555;stroke-width:0.6;" x="57.630082" xlink:href="#m9315466de5" y="303.082301"/>
      </g>
     </g>
    </g>
    <g id="ytick_20">
     <g id="line2d_48">
      <g>
       <use style="fill:#555555;stroke:#555555;stroke-width:0.6;" x="57.630082" xlink:href="#m9315466de5" y="280.39292"/>
      </g>
     </g>
    </g>
    <g id="ytick_21">
     <g id="line2d_49">
      <g>
       <use style="fill:#555555;stroke:#555555;stroke-width:0.6;" x="57.630082" xlink:href="#m9315466de5" y="264.294548"/>
      </g>
     </g>
    </g>
    <g id="ytick_22">
     <g id="line2d_50">
      <g>
       <use style="fill:#555555;stroke:#555555;stroke-width:0.6;" x="57.630082" xlink:href="#m9315466de5" y="251.80768"/>
      </g>
     </g>
    </g>
    <g id="ytick_23">
     <g id="line2d_51">
      <g>
       <use style="fill:#555555;stroke:#555555;stroke-width:0.6;" x="57.630082" xlink:href="#m9315466de5" y="241.605166"/>
      </g>
     </g>
    </g>
    <g id="ytick_24">
     <g id="line2d_52">
      <g>
       <use style="fill:#555555;stroke:#555555;stroke-width:0.6;" x="57.630082" xlink:href="#m9315466de5" y="232.979064"/>
      </g>
     </g>
    </g>
    <g id="ytick_25">
     <g id="line2d_53">
      <g>
       <use style="fill:#555555;stroke:#555555;stroke-width:0.6;" x="57.630082" xlink:href="#m9315466de5" y="225.506794"/>
      </g>
     </g>
    </g>
    <g id="ytick_26">
     <g id="line2d_54">
      <g>
       <use style="fill:#555555;stroke:#555555;stroke-width:0.6;" x="57.630082" xlink:href="#m9315466de5" y="218.915785"/>
      </g>
     </g>
    </g>
    <g id="ytick_27">
     <g id="line2d_55">
      <g>
       <use style="fill:#555555;stroke:#555555;stroke-width:0.6;" x="57.630082" xlink:href="#m9315466de5" y="174.232173"/>
      </g>
     </g>
    </g>
    <g id="ytick_28">
     <g id="line2d_56">
      <g>
       <use style="fill:#555555;stroke:#555555;stroke-width:0.6;" x="57.630082" xlink:href="#m9315466de5" y="151.542792"/>
      </g>
     </g>
    </g>
    <g id="ytick_29">
     <g id="line2d_57">
      <g>
       <use style="fill:#555555;stroke:#555555;stroke-width:0.6;" x="57.630082" xlink:href="#m9315466de5" y="135.444419"/>
      </g>
     </g>
    </g>
    <g id="ytick_30">
     <g id="line2d_58">
      <g>
       <use style="fill:#555555;stroke:#555555;stroke-width:0.6;" x="57.630082" xlink:href="#m9315466de5" y="122.957552"/>
      </g>
     </g>
    </g>
    <g id="ytick_31">
     <g id="line2d_59">
      <g>
       <use style="fill:#555555;stroke:#555555;stroke-width:0.6;" x="57.630082" xlink:href="#m9315466de5" y="112.755038"/>
      </g>
     </g>
    </g>
    <g id="ytick_32">
     <g id="line2d_60">
      <g>
       <use style="fill:#555555;stroke:#555555;stroke-width:0.6;" x="57.630082" xlink:href="#m9315466de5" y="104.128936"/>
      </g>
     </g>
    </g>
    <g id="ytick_33">
     <g id="line2d_61">
      <g>
       <use style="fill:#555555;stroke:#555555;stroke-width:0.6;" x="57.630082" xlink:href="#m9315466de5" y="96.656666"/>
      </g>
     </g>
    </g>
    <g id="ytick_34">
     <g id="line2d_62">
      <g>
       <use style="fill:#555555;stroke:#555555;stroke-width:0.6;" x="57.630082" xlink:href="#m9315466de5" y="90.065657"/>
      </g>
     </g>
    </g>
    <g id="ytick_35">
     <g id="line2d_63">
      <g>
       <use style="fill:#555555;stroke:#555555;stroke-width:0.6;" x="57.630082" xlink:href="#m9315466de5" y="45.382045"/>
      </g>
     </g>
    </g>
    <g id="ytick_36">
     <g id="line2d_64">
      <g>
       <use style="fill:#555555;stroke:#555555;stroke-width:0.6;" x="57.630082" xlink:href="#m9315466de5" y="22.692663"/>
      </g>
     </g>
    </g>
    <g id="text_18">
     <!-- ns/iter -->
     <defs>
      <path d="M 54.890625 33.015625 
L 54.890625 0 
L 45.90625 0 
L 45.90625 32.71875 
Q 45.90625 40.484375 42.875 44.328125 
Q 39.84375 48.1875 33.796875 48.1875 
Q 26.515625 48.1875 22.3125 43.546875 
Q 18.109375 38.921875 18.109375 30.90625 
L 18.109375 0 
L 9.078125 0 
L 9.078125 54.6875 
L 18.109375 54.6875 
L 18.109375 46.1875 
Q 21.34375 51.125 25.703125 53.5625 
Q 30.078125 56 35.796875 56 
Q 45.21875 56 50.046875 50.171875 
Q 54.890625 44.34375 54.890625 33.015625 
z
" id="DejaVuSans-6e"/>
      <path d="M 25.390625 72.90625 
L 33.6875 72.90625 
L 8.296875 -9.28125 
L 0 -9.28125 
z
" id="DejaVuSans-2f"/>
      <path d="M 56.203125 29.59375 
L 56.203125 25.203125 
L 14.890625 25.203125 
Q 15.484375 15.921875 20.484375 11.0625 
Q 25.484375 6.203125 34.421875 6.203125 
Q 39.59375 6.203125 44.453125 7.46875 
Q 49.3125 8.734375 54.109375 11.28125 
L 54.109375 2.78125 
Q 49.265625 0.734375 44.1875 -0.34375 
Q 39.109375 -1.421875 33.890625 -1.421875 
Q 20.796875 -1.421875 13.15625 6.1875 
Q 5.515625 13.8125 5.515625 26.8125 
Q 5.515625 40.234375 12.765625 48.109375 
Q 20.015625 56 32.328125 56 
Q 43.359375 56 49.78125 48.890625 
Q 56.203125 41.796875 56.203125 29.59375 
z
M 47.21875 32.234375 
Q 47.125 39.59375 43.09375 43.984375 
Q 39.0625 48.390625 32.421875 48.390625 
Q 24.90625 48.390625 20.390625 44.140625 
Q 15.875 39.890625 15.1875 32.171875 
z
" id="DejaVuSans-65"/>
      <path d="M 41.109375 46.296875 
Q 39.59375 47.171875 37.8125 47.578125 
Q 36.03125 48 33.890625 48 
Q 26.265625 48 22.1875 43.046875 
Q 18.109375 38.09375 18.109375 28.8125 
L 18.109375 0 
L 9.078125 0 
L 9.078125 54.6875 
L 18.109375 54.6875 
L 18.109375 46.1875 
Q 20.953125 51.171875 25.484375 53.578125 
Q 30.03125 56 36.53125 56 
Q 37.453125 56 38.578125 55.875 
Q 39.703125 55.765625 41.0625 55.515625 
z
" id="DejaVuSans-72"/>
     </defs>
     <g style="fill:#555555;" transform="translate(19.494457 290.646875)rotate(-90)scale(0.12 -0.12)">
      <use xlink:href="#DejaVuSans-6e"/>
      <use x="63.378906" xlink:href="#DejaVuSans-73"/>
      <use x="115.478516" xlink:href="#DejaVuSans-2f"/>
      <use x="149.169922" xlink:href="#DejaVuSans-69"/>
      <use x="176.953125" xlink:href="#DejaVuSans-74"/>
      <use x="216.162109" xlink:href="#DejaVuSans-65"/>
      <use x="277.685547" xlink:href="#DejaVuSans-72"/>
     </g>
    </g>
   </g>
   <g id="patch_3">
    <path clip-path="url(#p6487c5cb96)" d="M 80.151955 129578.548756 
L 85.782424 129578.548756 
L 85.782424 499.338816 
L 80.151955 499.338816 
z
" style="fill:#e24a33;"/>
   </g>
   <g id="patch_4">
    <path clip-path="url(#p6487c5cb96)" d="M 170.239448 129578.548756 
L 175.869917 129578.548756 
L 175.869917 360.034551 
L 170.239448 360.034551 
z
" style="fill:#e24a33;"/>
   </g>
   <g id="patch_5">
    <path clip-path="url(#p6487c5cb96)" d="M 260.326942 129578.548756 
L 265.95741 129578.548756 
L 265.95741 349.66536 
L 260.326942 349.66536 
z
" style="fill:#e24a33;"/>
   </g>
   <g id="patch_6">
    <path clip-path="url(#p6487c5cb96)" d="M 350.414435 129578.548756 
L 356.044903 129578.548756 
L 356.044903 338.333162 
L 350.414435 338.333162 
z
" style="fill:#e24a33;"/>
   </g>
   <g id="patch_7">
    <path clip-path="url(#p6487c5cb96)" d="M 440.501928 129578.548756 
L 446.132396 129578.548756 
L 446.132396 338.932876 
L 440.501928 338.932876 
z
" style="fill:#e24a33;"/>
   </g>
   <g id="patch_8">
    <path clip-path="url(#p6487c5cb96)" d="M 530.589421 129578.548756 
L 536.219889 129578.548756 
L 536.219889 316.269233 
L 530.589421 316.269233 
z
" style="fill:#e24a33;"/>
   </g>
   <g id="patch_9">
    <path clip-path="url(#p6487c5cb96)" d="M 620.676914 129578.548756 
L 626.307383 129578.548756 
L 626.307383 289.000923 
L 620.676914 289.000923 
z
" style="fill:#e24a33;"/>
   </g>
   <g id="patch_10">
    <path clip-path="url(#p6487c5cb96)" d="M 710.764407 129578.548756 
L 716.394876 129578.548756 
L 716.394876 264.185272 
L 710.764407 264.185272 
z
" style="fill:#e24a33;"/>
   </g>
   <g id="patch_11">
    <path clip-path="url(#p6487c5cb96)" d="M 800.851901 129578.548756 
L 806.482369 129578.548756 
L 806.482369 257.111984 
L 800.851901 257.111984 
z
" style="fill:#e24a33;"/>
   </g>
   <g id="patch_12">
    <path clip-path="url(#p6487c5cb96)" d="M 890.939394 129578.548756 
L 896.569862 129578.548756 
L 896.569862 243.636332 
L 890.939394 243.636332 
z
" style="fill:#e24a33;"/>
   </g>
   <g id="patch_13">
    <path clip-path="url(#p6487c5cb96)" d="M 981.026887 129578.548756 
L 986.657355 129578.548756 
L 986.657355 232.169497 
L 981.026887 232.169497 
z
" style="fill:#e24a33;"/>
   </g>
   <g id="patch_14">
    <path clip-path="url(#p6487c5cb96)" d="M 1071.11438 129578.548756 
L 1076.744848 129578.548756 
L 1076.744848 212.233241 
L 1071.11438 212.233241 
z
" style="fill:#e24a33;"/>
   </g>
   <g id="patch_15">
    <path clip-path="url(#p6487c5cb96)" d="M 85.782424 129578.548756 
L 91.412892 129578.548756 
L 91.412892 477.115678 
L 85.782424 477.115678 
z
" style="fill:#348abd;"/>
   </g>
   <g id="patch_16">
    <path clip-path="url(#p6487c5cb96)" d="M 175.869917 129578.548756 
L 181.500385 129578.548756 
L 181.500385 143.861533 
L 175.869917 143.861533 
z
" style="fill:#348abd;"/>
   </g>
   <g id="patch_17">
    <path clip-path="url(#p6487c5cb96)" d="M 265.95741 129578.548756 
L 271.587878 129578.548756 
L 271.587878 137.024988 
L 265.95741 137.024988 
z
" style="fill:#348abd;"/>
   </g>
   <g id="patch_18">
    <path clip-path="url(#p6487c5cb96)" d="M 356.044903 129578.548756 
L 361.675371 129578.548756 
L 361.675371 144.057 
L 356.044903 144.057 
z
" style="fill:#348abd;"/>
   </g>
   <g id="patch_19">
    <path clip-path="url(#p6487c5cb96)" d="M 446.132396 129578.548756 
L 451.762865 129578.548756 
L 451.762865 142.21917 
L 446.132396 142.21917 
z
" style="fill:#348abd;"/>
   </g>
   <g id="patch_20">
    <path clip-path="url(#p6487c5cb96)" d="M 536.219889 129578.548756 
L 541.850358 129578.548756 
L 541.850358 136.470828 
L 536.219889 136.470828 
z
" style="fill:#348abd;"/>
   </g>
   <g id="patch_21">
    <path clip-path="url(#p6487c5cb96)" d="M 626.307383 129578.548756 
L 631.937851 129578.548756 
L 631.937851 123.079675 
L 626.307383 123.079675 
z
" style="fill:#348abd;"/>
   </g>
   <g id="patch_22">
    <path clip-path="url(#p6487c5cb96)" d="M 716.394876 129578.548756 
L 722.025344 129578.548756 
L 722.025344 190.367864 
L 716.394876 190.367864 
z
" style="fill:#348abd;"/>
   </g>
   <g id="patch_23">
    <path clip-path="url(#p6487c5cb96)" d="M 806.482369 129578.548756 
L 812.112837 129578.548756 
L 812.112837 181.951205 
L 806.482369 181.951205 
z
" style="fill:#348abd;"/>
   </g>
   <g id="patch_24">
    <path clip-path="url(#p6487c5cb96)" d="M 896.569862 129578.548756 
L 902.20033 129578.548756 
L 902.20033 168.842789 
L 896.569862 168.842789 
z
" style="fill:#348abd;"/>
   </g>
   <g id="patch_25">
    <path clip-path="url(#p6487c5cb96)" d="M 986.657355 129578.548756 
L 992.287824 129578.548756 
L 992.287824 151.156149 
L 986.657355 151.156149 
z
" style="fill:#348abd;"/>
   </g>
   <g id="patch_26">
    <path clip-path="url(#p6487c5cb96)" d="M 1076.744848 129578.548756 
L 1082.375317 129578.548756 
L 1082.375317 125.962331 
L 1076.744848 125.962331 
z
" style="fill:#348abd;"/>
   </g>
   <g id="patch_27">
    <path clip-path="url(#p6487c5cb96)" d="M 91.412892 129578.548756 
L 97.04336 129578.548756 
L 97.04336 506.247273 
L 91.412892 506.247273 
z
" style="fill:#988ed5;"/>
   </g>
   <g id="patch_28">
    <path clip-path="url(#p6487c5cb96)" d="M 181.500385 129578.548756 
L 187.130853 129578.548756 
L 187.130853 384.598572 
L 181.500385 384.598572 
z
" style="fill:#988ed5;"/>
   </g>
   <g id="patch_29">
    <path clip-path="url(#p6487c5cb96)" d="M 271.587878 129578.548756 
L 277.218347 129578.548756 
L 277.218347 365.121842 
L 271.587878 365.121842 
z
" style="fill:#988ed5;"/>
   </g>
   <g id="patch_30">
    <path clip-path="url(#p6487c5cb96)" d="M 361.675371 129578.548756 
L 367.30584 129578.548756 
L 367.30584 303.362798 
L 361.675371 303.362798 
z
" style="fill:#988ed5;"/>
   </g>
   <g id="patch_31">
    <path clip-path="url(#p6487c5cb96)" d="M 451.762865 129578.548756 
L 457.393333 129578.548756 
L 457.393333 292.99649 
L 451.762865 292.99649 
z
" style="fill:#988ed5;"/>
   </g>
   <g id="patch_32">
    <path clip-path="url(#p6487c5cb96)" d="M 541.850358 129578.548756 
L 547.480826 129578.548756 
L 547.480826 256.242965 
L 541.850358 256.242965 
z
" style="fill:#988ed5;"/>
   </g>
   <g id="patch_33">
    <path clip-path="url(#p6487c5cb96)" d="M 631.937851 129578.548756 
L 637.568319 129578.548756 
L 637.568319 218.59958 
L 631.937851 218.59958 
z
" style="fill:#988ed5;"/>
   </g>
   <g id="patch_34">
    <path clip-path="url(#p6487c5cb96)" d="M 722.025344 129578.548756 
L 727.655812 129578.548756 
L 727.655812 194.57635 
L 722.025344 194.57635 
z
" style="fill:#988ed5;"/>
   </g>
   <g id="patch_35">
    <path clip-path="url(#p6487c5cb96)" d="M 812.112837 129578.548756 
L 817.743306 129578.548756 
L 817.743306 192.86416 
L 812.112837 192.86416 
z
" style="fill:#988ed5;"/>
   </g>
   <g id="patch_36">
    <path clip-path="url(#p6487c5cb96)" d="M 902.20033 129578.548756 
L 907.830799 129578.548756 
L 907.830799 189.59672 
L 902.20033 189.59672 
z
" style="fill:#988ed5;"/>
   </g>
   <g id="patch_37">
    <path clip-path="url(#p6487c5cb96)" d="M 992.287824 129578.548756 
L 997.918292 129578.548756 
L 997.918292 183.431987 
L 992.287824 183.431987 
z
" style="fill:#988ed5;"/>
   </g>
   <g id="patch_38">
    <path clip-path="url(#p6487c5cb96)" d="M 1082.375317 129578.548756 
L 1088.005785 129578.548756 
L 1088.005785 173.198152 
L 1082.375317 173.198152 
z
" style="fill:#988ed5;"/>
   </g>
   <g id="patch_39">
    <path clip-path="url(#p6487c5cb96)" d="M 97.04336 129578.548756 
L 102.673829 129578.548756 
L 102.673829 504.174484 
L 97.04336 504.174484 
z
" style="fill:#777777;"/>
   </g>
   <g id="patch_40">
    <path clip-path="url(#p6487c5cb96)" d="M 187.130853 129578.548756 
L 192.761322 129578.548756 
L 192.761322 383.764239 
L 187.130853 383.764239 
z
" style="fill:#777777;"/>
   </g>
   <g id="patch_41">
    <path clip-path="url(#p6487c5cb96)" d="M 277.218347 129578.548756 
L 282.848815 129578.548756 
L 282.848815 362.310907 
L 277.218347 362.310907 
z
" style="fill:#777777;"/>
   </g>
   <g id="patch_42">
    <path clip-path="url(#p6487c5cb96)" d="M 367.30584 129578.548756 
L 372.936308 129578.548756 
L 372.936308 411.917361 
L 367.30584 411.917361 
z
" style="fill:#777777;"/>
   </g>
   <g id="patch_43">
    <path clip-path="url(#p6487c5cb96)" d="M 457.393333 129578.548756 
L 463.023801 129578.548756 
L 463.023801 407.0483 
L 457.393333 407.0483 
z
" style="fill:#777777;"/>
   </g>
   <g id="patch_44">
    <path clip-path="url(#p6487c5cb96)" d="M 547.480826 129578.548756 
L 553.111294 129578.548756 
L 553.111294 386.678158 
L 547.480826 386.678158 
z
" style="fill:#777777;"/>
   </g>
   <g id="patch_45">
    <path clip-path="url(#p6487c5cb96)" d="M 637.568319 129578.548756 
L 643.198788 129578.548756 
L 643.198788 361.193289 
L 637.568319 361.193289 
z
" style="fill:#777777;"/>
   </g>
   <g id="patch_46">
    <path clip-path="url(#p6487c5cb96)" d="M 727.655812 129578.548756 
L 733.286281 129578.548756 
L 733.286281 337.099008 
L 727.655812 337.099008 
z
" style="fill:#777777;"/>
   </g>
   <g id="patch_47">
    <path clip-path="url(#p6487c5cb96)" d="M 817.743306 129578.548756 
L 823.373774 129578.548756 
L 823.373774 318.476312 
L 817.743306 318.476312 
z
" style="fill:#777777;"/>
   </g>
   <g id="patch_48">
    <path clip-path="url(#p6487c5cb96)" d="M 907.830799 129578.548756 
L 913.461267 129578.548756 
L 913.461267 290.864683 
L 907.830799 290.864683 
z
" style="fill:#777777;"/>
   </g>
   <g id="patch_49">
    <path clip-path="url(#p6487c5cb96)" d="M 997.918292 129578.548756 
L 1003.54876 129578.548756 
L 1003.54876 259.78102 
L 997.918292 259.78102 
z
" style="fill:#777777;"/>
   </g>
   <g id="patch_50">
    <path clip-path="url(#p6487c5cb96)" d="M 1088.005785 129578.548756 
L 1093.636253 129578.548756 
L 1093.636253 227.103194 
L 1088.005785 227.103194 
z
" style="fill:#777777;"/>
   </g>
   <g id="patch_51">
    <path clip-path="url(#p6487c5cb96)" d="M 102.673829 129578.548756 
L 108.304297 129578.548756 
L 108.304297 38.330097 
L 102.673829 38.330097 
z
" style="fill:#fbc15e;"/>
   </g>
   <g id="patch_52">
    <path clip-path="url(#p6487c5cb96)" d="M 192.761322 129578.548756 
L 198.39179 129578.548756 
L 198.39179 39.590591 
L 192.761322 39.590591 
z
" style="fill:#fbc15e;"/>
   </g>
   <g id="patch_53">
    <path clip-path="url(#p6487c5cb96)" d="M 282.848815 129578.548756 
L 288.479283 129578.548756 
L 288.479283 39.655466 
L 282.848815 39.655466 
z
" style="fill:#fbc15e;"/>
   </g>
   <g id="patch_54">
    <path clip-path="url(#p6487c5cb96)" d="M 372.936308 129578.548756 
L 378.566776 129578.548756 
L 378.566776 39.663044 
L 372.936308 39.663044 
z
" style="fill:#fbc15e;"/>
   </g>
   <g id="patch_55">
    <path clip-path="url(#p6487c5cb96)" d="M 463.023801 129578.548756 
L 468.65427 129578.548756 
L 468.65427 39.606487 
L 463.023801 39.606487 
z
" style="fill:#fbc15e;"/>
   </g>
   <g id="patch_56">
    <path clip-path="url(#p6487c5cb96)" d="M 553.111294 129578.548756 
L 558.741763 129578.548756 
L 558.741763 39.566629 
L 553.111294 39.566629 
z
" style="fill:#fbc15e;"/>
   </g>
   <g id="patch_57">
    <path clip-path="url(#p6487c5cb96)" d="M 643.198788 129578.548756 
L 648.829256 129578.548756 
L 648.829256 39.238752 
L 643.198788 39.238752 
z
" style="fill:#fbc15e;"/>
   </g>
   <g id="patch_58">
    <path clip-path="url(#p6487c5cb96)" d="M 733.286281 129578.548756 
L 738.916749 129578.548756 
L 738.916749 38.722435 
L 733.286281 38.722435 
z
" style="fill:#fbc15e;"/>
   </g>
   <g id="patch_59">
    <path clip-path="url(#p6487c5cb96)" d="M 823.373774 129578.548756 
L 829.004242 129578.548756 
L 829.004242 36.792727 
L 823.373774 36.792727 
z
" style="fill:#fbc15e;"/>
   </g>
   <g id="patch_60">
    <path clip-path="url(#p6487c5cb96)" d="M 913.461267 129578.548756 
L 919.091735 129578.548756 
L 919.091735 38.503772 
L 913.461267 38.503772 
z
" style="fill:#fbc15e;"/>
   </g>
   <g id="patch_61">
    <path clip-path="url(#p6487c5cb96)" d="M 1003.54876 129578.548756 
L 1009.179229 129578.548756 
L 1009.179229 38.115908 
L 1003.54876 38.115908 
z
" style="fill:#fbc15e;"/>
   </g>
   <g id="patch_62">
    <path clip-path="url(#p6487c5cb96)" d="M 1093.636253 129578.548756 
L 1099.266722 129578.548756 
L 1099.266722 37.457813 
L 1093.636253 37.457813 
z
" style="fill:#fbc15e;"/>
   </g>
   <g id="patch_63">
    <path clip-path="url(#p6487c5cb96)" d="M 108.304297 129578.548756 
L 113.934765 129578.548756 
L 113.934765 386.305512 
L 108.304297 386.305512 
z
" style="fill:#8eba42;"/>
   </g>
   <g id="patch_64">
    <path clip-path="url(#p6487c5cb96)" d="M 198.39179 129578.548756 
L 204.022258 129578.548756 
L 204.022258 375.019955 
L 198.39179 375.019955 
z
" style="fill:#8eba42;"/>
   </g>
   <g id="patch_65">
    <path clip-path="url(#p6487c5cb96)" d="M 288.479283 129578.548756 
L 294.109752 129578.548756 
L 294.109752 368.801217 
L 288.479283 368.801217 
z
" style="fill:#8eba42;"/>
   </g>
   <g id="patch_66">
    <path clip-path="url(#p6487c5cb96)" d="M 378.566776 129578.548756 
L 384.197245 129578.548756 
L 384.197245 364.030336 
L 378.566776 364.030336 
z
" style="fill:#8eba42;"/>
   </g>
   <g id="patch_67">
    <path clip-path="url(#p6487c5cb96)" d="M 468.65427 129578.548756 
L 474.284738 129578.548756 
L 474.284738 266.724818 
L 468.65427 266.724818 
z
" style="fill:#8eba42;"/>
   </g>
   <g id="patch_68">
    <path clip-path="url(#p6487c5cb96)" d="M 558.741763 129578.548756 
L 564.372231 129578.548756 
L 564.372231 235.346752 
L 558.741763 235.346752 
z
" style="fill:#8eba42;"/>
   </g>
   <g id="patch_69">
    <path clip-path="url(#p6487c5cb96)" d="M 648.829256 129578.548756 
L 654.459724 129578.548756 
L 654.459724 197.909505 
L 648.829256 197.909505 
z
" style="fill:#8eba42;"/>
   </g>
   <g id="patch_70">
    <path clip-path="url(#p6487c5cb96)" d="M 738.916749 129578.548756 
L 744.547217 129578.548756 
L 744.547217 173.399023 
L 738.916749 173.399023 
z
" style="fill:#8eba42;"/>
   </g>
   <g id="patch_71">
    <path clip-path="url(#p6487c5cb96)" d="M 829.004242 129578.548756 
L 834.634711 129578.548756 
L 834.634711 175.362694 
L 829.004242 175.362694 
z
" style="fill:#8eba42;"/>
   </g>
   <g id="patch_72">
    <path clip-path="url(#p6487c5cb96)" d="M 919.091735 129578.548756 
L 924.722204 129578.548756 
L 924.722204 171.501929 
L 919.091735 171.501929 
z
" style="fill:#8eba42;"/>
   </g>
   <g id="patch_73">
    <path clip-path="url(#p6487c5cb96)" d="M 1009.179229 129578.548756 
L 1014.809697 129578.548756 
L 1014.809697 164.733554 
L 1009.179229 164.733554 
z
" style="fill:#8eba42;"/>
   </g>
   <g id="patch_74">
    <path clip-path="url(#p6487c5cb96)" d="M 1099.266722 129578.548756 
L 1104.89719 129578.548756 
L 1104.89719 152.863974 
L 1099.266722 152.863974 
z
" style="fill:#8eba42;"/>
   </g>
   <g id="patch_75">
    <path clip-path="url(#p6487c5cb96)" d="M 113.934765 129578.548756 
L 119.565233 129578.548756 
L 119.565233 445.611762 
L 113.934765 445.611762 
z
" style="fill:#ffb5b8;"/>
   </g>
   <g id="patch_76">
    <path clip-path="url(#p6487c5cb96)" d="M 204.022258 129578.548756 
L 209.652727 129578.548756 
L 209.652727 397.041613 
L 204.022258 397.041613 
z
" style="fill:#ffb5b8;"/>
   </g>
   <g id="patch_77">
    <path clip-path="url(#p6487c5cb96)" d="M 294.109752 129578.548756 
L 299.74022 129578.548756 
L 299.74022 393.495165 
L 294.109752 393.495165 
z
" style="fill:#ffb5b8;"/>
   </g>
   <g id="patch_78">
    <path clip-path="url(#p6487c5cb96)" d="M 384.197245 129578.548756 
L 389.827713 129578.548756 
L 389.827713 380.43319 
L 384.197245 380.43319 
z
" style="fill:#ffb5b8;"/>
   </g>
   <g id="patch_79">
    <path clip-path="url(#p6487c5cb96)" d="M 474.284738 129578.548756 
L 479.915206 129578.548756 
L 479.915206 380.862389 
L 474.284738 380.862389 
z
" style="fill:#ffb5b8;"/>
   </g>
   <g id="patch_80">
    <path clip-path="url(#p6487c5cb96)" d="M 564.372231 129578.548756 
L 570.002699 129578.548756 
L 570.002699 365.466287 
L 564.372231 365.466287 
z
" style="fill:#ffb5b8;"/>
   </g>
   <g id="patch_81">
    <path clip-path="url(#p6487c5cb96)" d="M 654.459724 129578.548756 
L 660.090193 129578.548756 
L 660.090193 337.889579 
L 654.459724 337.889579 
z
" style="fill:#ffb5b8;"/>
   </g>
   <g id="patch_82">
    <path clip-path="url(#p6487c5cb96)" d="M 744.547217 129578.548756 
L 750.177686 129578.548756 
L 750.177686 303.59018 
L 744.547217 303.59018 
z
" style="fill:#ffb5b8;"/>
   </g>
   <g id="patch_83">
    <path clip-path="url(#p6487c5cb96)" d="M 834.634711 129578.548756 
L 840.265179 129578.548756 
L 840.265179 279.514274 
L 834.634711 279.514274 
z
" style="fill:#ffb5b8;"/>
   </g>
   <g id="patch_84">
    <path clip-path="url(#p6487c5cb96)" d="M 924.722204 129578.548756 
L 930.352672 129578.548756 
L 930.352672 250.353579 
L 924.722204 250.353579 
z
" style="fill:#ffb5b8;"/>
   </g>
   <g id="patch_85">
    <path clip-path="url(#p6487c5cb96)" d="M 1014.809697 129578.548756 
L 1020.440165 129578.548756 
L 1020.440165 218.639895 
L 1014.809697 218.639895 
z
" style="fill:#ffb5b8;"/>
   </g>
   <g id="patch_86">
    <path clip-path="url(#p6487c5cb96)" d="M 1104.89719 129578.548756 
L 1110.527658 129578.548756 
L 1110.527658 182.305377 
L 1104.89719 182.305377 
z
" style="fill:#ffb5b8;"/>
   </g>
   <g id="patch_87">
    <path clip-path="url(#p6487c5cb96)" d="M 119.565233 129578.548756 
L 125.195702 129578.548756 
L 125.195702 447.555746 
L 119.565233 447.555746 
z
" style="fill:#e24a33;"/>
   </g>
   <g id="patch_88">
    <path clip-path="url(#p6487c5cb96)" d="M 209.652727 129578.548756 
L 215.283195 129578.548756 
L 215.283195 445.146342 
L 209.652727 445.146342 
z
" style="fill:#e24a33;"/>
   </g>
   <g id="patch_89">
    <path clip-path="url(#p6487c5cb96)" d="M 299.74022 129578.548756 
L 305.370688 129578.548756 
L 305.370688 431.049417 
L 299.74022 431.049417 
z
" style="fill:#e24a33;"/>
   </g>
   <g id="patch_90">
    <path clip-path="url(#p6487c5cb96)" d="M 389.827713 129578.548756 
L 395.458181 129578.548756 
L 395.458181 427.642841 
L 389.827713 427.642841 
z
" style="fill:#e24a33;"/>
   </g>
   <g id="patch_91">
    <path clip-path="url(#p6487c5cb96)" d="M 479.915206 129578.548756 
L 485.545675 129578.548756 
L 485.545675 424.148689 
L 479.915206 424.148689 
z
" style="fill:#e24a33;"/>
   </g>
   <g id="patch_92">
    <path clip-path="url(#p6487c5cb96)" d="M 570.002699 129578.548756 
L 575.633168 129578.548756 
L 575.633168 394.642482 
L 570.002699 394.642482 
z
" style="fill:#e24a33;"/>
   </g>
   <g id="patch_93">
    <path clip-path="url(#p6487c5cb96)" d="M 660.090193 129578.548756 
L 665.720661 129578.548756 
L 665.720661 366.446106 
L 660.090193 366.446106 
z
" style="fill:#e24a33;"/>
   </g>
   <g id="patch_94">
    <path clip-path="url(#p6487c5cb96)" d="M 750.177686 129578.548756 
L 755.808154 129578.548756 
L 755.808154 340.861504 
L 750.177686 340.861504 
z
" style="fill:#e24a33;"/>
   </g>
   <g id="patch_95">
    <path clip-path="url(#p6487c5cb96)" d="M 840.265179 129578.548756 
L 845.895647 129578.548756 
L 845.895647 317.785729 
L 840.265179 317.785729 
z
" style="fill:#e24a33;"/>
   </g>
   <g id="patch_96">
    <path clip-path="url(#p6487c5cb96)" d="M 930.352672 129578.548756 
L 935.98314 129578.548756 
L 935.98314 286.357949 
L 930.352672 286.357949 
z
" style="fill:#e24a33;"/>
   </g>
   <g id="patch_97">
    <path clip-path="url(#p6487c5cb96)" d="M 1020.440165 129578.548756 
L 1026.070634 129578.548756 
L 1026.070634 253.948445 
L 1020.440165 253.948445 
z
" style="fill:#e24a33;"/>
   </g>
   <g id="patch_98">
    <path clip-path="url(#p6487c5cb96)" d="M 1110.527658 129578.548756 
L 1116.158127 129578.548756 
L 1116.158127 219.189009 
L 1110.527658 219.189009 
z
" style="fill:#e24a33;"/>
   </g>
   <g id="patch_99">
    <path d="M 57.630082 529.72 
L 57.630082 13.32 
" style="fill:none;stroke:#ffffff;stroke-linecap:square;stroke-linejoin:miter;"/>
   </g>
   <g id="patch_100">
    <path d="M 1138.68 529.72 
L 1138.68 13.32 
" style="fill:none;stroke:#ffffff;stroke-linecap:square;stroke-linejoin:miter;"/>
   </g>
   <g id="patch_101">
    <path d="M 57.630082 529.72 
L 1138.68 529.72 
" style="fill:none;stroke:#ffffff;stroke-linecap:square;stroke-linejoin:miter;"/>
   </g>
   <g id="patch_102">
    <path d="M 57.630082 13.32 
L 1138.68 13.32 
" style="fill:none;stroke:#ffffff;stroke-linecap:square;stroke-linejoin:miter;"/>
   </g>
   <g id="legend_1">
    <g id="patch_103">
     <path d="M 67.430082 189.69375 
L 243.361957 189.69375 
Q 246.161957 189.69375 246.161957 186.89375 
L 246.161957 23.12 
Q 246.161957 20.32 243.361957 20.32 
L 67.430082 20.32 
Q 64.630082 20.32 64.630082 23.12 
L 64.630082 186.89375 
Q 64.630082 189.69375 67.430082 189.69375 
z
" style="fill:#e5e5e5;opacity:0.8;stroke:#cccccc;stroke-linejoin:miter;stroke-width:0.5;"/>
    </g>
    <g id="patch_104">
     <path d="M 70.230082 36.557813 
L 98.230082 36.557813 
L 98.230082 26.757813 
L 70.230082 26.757813 
z
" style="fill:#e24a33;"/>
    </g>
    <g id="text_19">
     <!-- double_conversion -->
     <defs>
      <path d="M 30.609375 48.390625 
Q 23.390625 48.390625 19.1875 42.75 
Q 14.984375 37.109375 14.984375 27.296875 
Q 14.984375 17.484375 19.15625 11.84375 
Q 23.34375 6.203125 30.609375 6.203125 
Q 37.796875 6.203125 41.984375 11.859375 
Q 46.1875 17.53125 46.1875 27.296875 
Q 46.1875 37.015625 41.984375 42.703125 
Q 37.796875 48.390625 30.609375 48.390625 
z
M 30.609375 56 
Q 42.328125 56 49.015625 48.375 
Q 55.71875 40.765625 55.71875 27.296875 
Q 55.71875 13.875 49.015625 6.21875 
Q 42.328125 -1.421875 30.609375 -1.421875 
Q 18.84375 -1.421875 12.171875 6.21875 
Q 5.515625 13.875 5.515625 27.296875 
Q 5.515625 40.765625 12.171875 48.375 
Q 18.84375 56 30.609375 56 
z
" id="DejaVuSans-6f"/>
      <path d="M 8.5 21.578125 
L 8.5 54.6875 
L 17.484375 54.6875 
L 17.484375 21.921875 
Q 17.484375 14.15625 20.5 10.265625 
Q 23.53125 6.390625 29.59375 6.390625 
Q 36.859375 6.390625 41.078125 11.03125 
Q 45.3125 15.671875 45.3125 23.6875 
L 45.3125 54.6875 
L 54.296875 54.6875 
L 54.296875 0 
L 45.3125 0 
L 45.3125 8.40625 
Q 42.046875 3.421875 37.71875 1 
Q 33.40625 -1.421875 27.6875 -1.421875 
Q 18.265625 -1.421875 13.375 4.4375 
Q 8.5 10.296875 8.5 21.578125 
z
M 31.109375 56 
z
" id="DejaVuSans-75"/>
      <path d="M 48.6875 27.296875 
Q 48.6875 37.203125 44.609375 42.84375 
Q 40.53125 48.484375 33.40625 48.484375 
Q 26.265625 48.484375 22.1875 42.84375 
Q 18.109375 37.203125 18.109375 27.296875 
Q 18.109375 17.390625 22.1875 11.75 
Q 26.265625 6.109375 33.40625 6.109375 
Q 40.53125 6.109375 44.609375 11.75 
Q 48.6875 17.390625 48.6875 27.296875 
z
M 18.109375 46.390625 
Q 20.953125 51.265625 25.265625 53.625 
Q 29.59375 56 35.59375 56 
Q 45.5625 56 51.78125 48.09375 
Q 58.015625 40.1875 58.015625 27.296875 
Q 58.015625 14.40625 51.78125 6.484375 
Q 45.5625 -1.421875 35.59375 -1.421875 
Q 29.59375 -1.421875 25.265625 0.953125 
Q 20.953125 3.328125 18.109375 8.203125 
L 18.109375 0 
L 9.078125 0 
L 9.078125 75.984375 
L 18.109375 75.984375 
z
" id="DejaVuSans-62"/>
      <path d="M 9.421875 75.984375 
L 18.40625 75.984375 
L 18.40625 0 
L 9.421875 0 
z
" id="DejaVuSans-6c"/>
      <path d="M 50.984375 -16.609375 
L 50.984375 -23.578125 
L -0.984375 -23.578125 
L -0.984375 -16.609375 
z
" id="DejaVuSans-5f"/>
      <path d="M 48.78125 52.59375 
L 48.78125 44.1875 
Q 44.96875 46.296875 41.140625 47.34375 
Q 37.3125 48.390625 33.40625 48.390625 
Q 24.65625 48.390625 19.8125 42.84375 
Q 14.984375 37.3125 14.984375 27.296875 
Q 14.984375 17.28125 19.8125 11.734375 
Q 24.65625 6.203125 33.40625 6.203125 
Q 37.3125 6.203125 41.140625 7.25 
Q 44.96875 8.296875 48.78125 10.40625 
L 48.78125 2.09375 
Q 45.015625 0.34375 40.984375 -0.53125 
Q 36.96875 -1.421875 32.421875 -1.421875 
Q 20.0625 -1.421875 12.78125 6.34375 
Q 5.515625 14.109375 5.515625 27.296875 
Q 5.515625 40.671875 12.859375 48.328125 
Q 20.21875 56 33.015625 56 
Q 37.15625 56 41.109375 55.140625 
Q 45.0625 54.296875 48.78125 52.59375 
z
" id="DejaVuSans-63"/>
      <path d="M 2.984375 54.6875 
L 12.5 54.6875 
L 29.59375 8.796875 
L 46.6875 54.6875 
L 56.203125 54.6875 
L 35.6875 0 
L 23.484375 0 
z
" id="DejaVuSans-76"/>
     </defs>
     <g transform="translate(109.430082 36.557813)scale(0.14 -0.14)">
      <use xlink:href="#DejaVuSans-64"/>
      <use x="63.476562" xlink:href="#DejaVuSans-6f"/>
      <use x="124.658203" xlink:href="#DejaVuSans-75"/>
      <use x="188.037109" xlink:href="#DejaVuSans-62"/>
      <use x="251.513672" xlink:href="#DejaVuSans-6c"/>
      <use x="279.296875" xlink:href="#DejaVuSans-65"/>
      <use x="340.820312" xlink:href="#DejaVuSans-5f"/>
      <use x="390.820312" xlink:href="#DejaVuSans-63"/>
      <use x="445.800781" xlink:href="#DejaVuSans-6f"/>
      <use x="506.982422" xlink:href="#DejaVuSans-6e"/>
      <use x="570.361328" xlink:href="#DejaVuSans-76"/>
      <use x="629.541016" xlink:href="#DejaVuSans-65"/>
      <use x="691.064453" xlink:href="#DejaVuSans-72"/>
      <use x="732.177734" xlink:href="#DejaVuSans-73"/>
      <use x="784.277344" xlink:href="#DejaVuSans-69"/>
      <use x="812.060547" xlink:href="#DejaVuSans-6f"/>
      <use x="873.242188" xlink:href="#DejaVuSans-6e"/>
     </g>
    </g>
    <g id="patch_105">
     <path d="M 70.230082 57.496563 
L 98.230082 57.496563 
L 98.230082 47.696563 
L 70.230082 47.696563 
z
" style="fill:#348abd;"/>
    </g>
    <g id="text_20">
     <!-- golang -->
     <defs>
      <path d="M 34.28125 27.484375 
Q 23.390625 27.484375 19.1875 25 
Q 14.984375 22.515625 14.984375 16.5 
Q 14.984375 11.71875 18.140625 8.90625 
Q 21.296875 6.109375 26.703125 6.109375 
Q 34.1875 6.109375 38.703125 11.40625 
Q 43.21875 16.703125 43.21875 25.484375 
L 43.21875 27.484375 
z
M 52.203125 31.203125 
L 52.203125 0 
L 43.21875 0 
L 43.21875 8.296875 
Q 40.140625 3.328125 35.546875 0.953125 
Q 30.953125 -1.421875 24.3125 -1.421875 
Q 15.921875 -1.421875 10.953125 3.296875 
Q 6 8.015625 6 15.921875 
Q 6 25.140625 12.171875 29.828125 
Q 18.359375 34.515625 30.609375 34.515625 
L 43.21875 34.515625 
L 43.21875 35.40625 
Q 43.21875 41.609375 39.140625 45 
Q 35.0625 48.390625 27.6875 48.390625 
Q 23 48.390625 18.546875 47.265625 
Q 14.109375 46.140625 10.015625 43.890625 
L 10.015625 52.203125 
Q 14.9375 54.109375 19.578125 55.046875 
Q 24.21875 56 28.609375 56 
Q 40.484375 56 46.34375 49.84375 
Q 52.203125 43.703125 52.203125 31.203125 
z
" id="DejaVuSans-61"/>
     </defs>
     <g transform="translate(109.430082 57.496563)scale(0.14 -0.14)">
      <use xlink:href="#DejaVuSans-67"/>
      <use x="63.476562" xlink:href="#DejaVuSans-6f"/>
      <use x="124.658203" xlink:href="#DejaVuSans-6c"/>
      <use x="152.441406" xlink:href="#DejaVuSans-61"/>
      <use x="213.720703" xlink:href="#DejaVuSans-6e"/>
      <use x="277.099609" xlink:href="#DejaVuSans-67"/>
     </g>
    </g>
    <g id="patch_106">
     <path d="M 70.230082 78.045938 
L 98.230082 78.045938 
L 98.230082 68.245938 
L 70.230082 68.245938 
z
" style="fill:#988ed5;"/>
    </g>
    <g id="text_21">
     <!-- lexical -->
     <defs>
      <path d="M 54.890625 54.6875 
L 35.109375 28.078125 
L 55.90625 0 
L 45.3125 0 
L 29.390625 21.484375 
L 13.484375 0 
L 2.875 0 
L 24.125 28.609375 
L 4.6875 54.6875 
L 15.28125 54.6875 
L 29.78125 35.203125 
L 44.28125 54.6875 
z
" id="DejaVuSans-78"/>
     </defs>
     <g transform="translate(109.430082 78.045938)scale(0.14 -0.14)">
      <use xlink:href="#DejaVuSans-6c"/>
      <use x="27.783203" xlink:href="#DejaVuSans-65"/>
      <use x="89.291016" xlink:href="#DejaVuSans-78"/>
      <use x="148.470703" xlink:href="#DejaVuSans-69"/>
      <use x="176.253906" xlink:href="#DejaVuSans-63"/>
      <use x="231.234375" xlink:href="#DejaVuSans-61"/>
      <use x="292.513672" xlink:href="#DejaVuSans-6c"/>
     </g>
    </g>
    <g id="patch_107">
     <path d="M 70.230082 98.595313 
L 98.230082 98.595313 
L 98.230082 88.795313 
L 70.230082 88.795313 
z
" style="fill:#777777;"/>
    </g>
    <g id="text_22">
     <!-- lexical_algom -->
     <defs>
      <path d="M 52 44.1875 
Q 55.375 50.25 60.0625 53.125 
Q 64.75 56 71.09375 56 
Q 79.640625 56 84.28125 50.015625 
Q 88.921875 44.046875 88.921875 33.015625 
L 88.921875 0 
L 79.890625 0 
L 79.890625 32.71875 
Q 79.890625 40.578125 77.09375 44.375 
Q 74.3125 48.1875 68.609375 48.1875 
Q 61.625 48.1875 57.5625 43.546875 
Q 53.515625 38.921875 53.515625 30.90625 
L 53.515625 0 
L 44.484375 0 
L 44.484375 32.71875 
Q 44.484375 40.625 41.703125 44.40625 
Q 38.921875 48.1875 33.109375 48.1875 
Q 26.21875 48.1875 22.15625 43.53125 
Q 18.109375 38.875 18.109375 30.90625 
L 18.109375 0 
L 9.078125 0 
L 9.078125 54.6875 
L 18.109375 54.6875 
L 18.109375 46.1875 
Q 21.1875 51.21875 25.484375 53.609375 
Q 29.78125 56 35.6875 56 
Q 41.65625 56 45.828125 52.96875 
Q 50 49.953125 52 44.1875 
z
" id="DejaVuSans-6d"/>
     </defs>
     <g transform="translate(109.430082 98.595313)scale(0.14 -0.14)">
      <use xlink:href="#DejaVuSans-6c"/>
      <use x="27.783203" xlink:href="#DejaVuSans-65"/>
      <use x="89.291016" xlink:href="#DejaVuSans-78"/>
      <use x="148.470703" xlink:href="#DejaVuSans-69"/>
      <use x="176.253906" xlink:href="#DejaVuSans-63"/>
      <use x="231.234375" xlink:href="#DejaVuSans-61"/>
      <use x="292.513672" xlink:href="#DejaVuSans-6c"/>
      <use x="320.296875" xlink:href="#DejaVuSans-5f"/>
      <use x="370.296875" xlink:href="#DejaVuSans-61"/>
      <use x="431.576172" xlink:href="#DejaVuSans-6c"/>
      <use x="459.359375" xlink:href="#DejaVuSans-67"/>
      <use x="522.835938" xlink:href="#DejaVuSans-6f"/>
      <use x="584.017578" xlink:href="#DejaVuSans-6d"/>
     </g>
    </g>
    <g id="patch_108">
     <path d="M 70.230082 119.534063 
L 98.230082 119.534063 
L 98.230082 109.734063 
L 70.230082 109.734063 
z
" style="fill:#fbc15e;"/>
    </g>
    <g id="text_23">
     <!-- libcore -->
     <g transform="translate(109.430082 119.534063)scale(0.14 -0.14)">
      <use xlink:href="#DejaVuSans-6c"/>
      <use x="27.783203" xlink:href="#DejaVuSans-69"/>
      <use x="55.566406" xlink:href="#DejaVuSans-62"/>
      <use x="119.042969" xlink:href="#DejaVuSans-63"/>
      <use x="174.023438" xlink:href="#DejaVuSans-6f"/>
      <use x="235.205078" xlink:href="#DejaVuSans-72"/>
      <use x="276.287109" xlink:href="#DejaVuSans-65"/>
     </g>
    </g>
    <g id="patch_109">
     <path d="M 70.230082 140.083438 
L 98.230082 140.083438 
L 98.230082 130.283438 
L 70.230082 130.283438 
z
" style="fill:#8eba42;"/>
    </g>
    <g id="text_24">
     <!-- python -->
     <defs>
      <path d="M 18.109375 8.203125 
L 18.109375 -20.796875 
L 9.078125 -20.796875 
L 9.078125 54.6875 
L 18.109375 54.6875 
L 18.109375 46.390625 
Q 20.953125 51.265625 25.265625 53.625 
Q 29.59375 56 35.59375 56 
Q 45.5625 56 51.78125 48.09375 
Q 58.015625 40.1875 58.015625 27.296875 
Q 58.015625 14.40625 51.78125 6.484375 
Q 45.5625 -1.421875 35.59375 -1.421875 
Q 29.59375 -1.421875 25.265625 0.953125 
Q 20.953125 3.328125 18.109375 8.203125 
z
M 48.6875 27.296875 
Q 48.6875 37.203125 44.609375 42.84375 
Q 40.53125 48.484375 33.40625 48.484375 
Q 26.265625 48.484375 22.1875 42.84375 
Q 18.109375 37.203125 18.109375 27.296875 
Q 18.109375 17.390625 22.1875 11.75 
Q 26.265625 6.109375 33.40625 6.109375 
Q 40.53125 6.109375 44.609375 11.75 
Q 48.6875 17.390625 48.6875 27.296875 
z
" id="DejaVuSans-70"/>
      <path d="M 32.171875 -5.078125 
Q 28.375 -14.84375 24.75 -17.8125 
Q 21.140625 -20.796875 15.09375 -20.796875 
L 7.90625 -20.796875 
L 7.90625 -13.28125 
L 13.1875 -13.28125 
Q 16.890625 -13.28125 18.9375 -11.515625 
Q 21 -9.765625 23.484375 -3.21875 
L 25.09375 0.875 
L 2.984375 54.6875 
L 12.5 54.6875 
L 29.59375 11.921875 
L 46.6875 54.6875 
L 56.203125 54.6875 
z
" id="DejaVuSans-79"/>
      <path d="M 54.890625 33.015625 
L 54.890625 0 
L 45.90625 0 
L 45.90625 32.71875 
Q 45.90625 40.484375 42.875 44.328125 
Q 39.84375 48.1875 33.796875 48.1875 
Q 26.515625 48.1875 22.3125 43.546875 
Q 18.109375 38.921875 18.109375 30.90625 
L 18.109375 0 
L 9.078125 0 
L 9.078125 75.984375 
L 18.109375 75.984375 
L 18.109375 46.1875 
Q 21.34375 51.125 25.703125 53.5625 
Q 30.078125 56 35.796875 56 
Q 45.21875 56 50.046875 50.171875 
Q 54.890625 44.34375 54.890625 33.015625 
z
" id="DejaVuSans-68"/>
     </defs>
     <g transform="translate(109.430082 140.083438)scale(0.14 -0.14)">
      <use xlink:href="#DejaVuSans-70"/>
      <use x="63.476562" xlink:href="#DejaVuSans-79"/>
      <use x="122.65625" xlink:href="#DejaVuSans-74"/>
      <use x="161.865234" xlink:href="#DejaVuSans-68"/>
      <use x="225.244141" xlink:href="#DejaVuSans-6f"/>
      <use x="286.425781" xlink:href="#DejaVuSans-6e"/>
     </g>
    </g>
    <g id="patch_110">
     <path d="M 70.230082 160.632813 
L 98.230082 160.632813 
L 98.230082 150.832813 
L 70.230082 150.832813 
z
" style="fill:#ffb5b8;"/>
    </g>
    <g id="text_25">
     <!-- rapidjson -->
     <defs>
      <path d="M 9.421875 54.6875 
L 18.40625 54.6875 
L 18.40625 -0.984375 
Q 18.40625 -11.421875 14.421875 -16.109375 
Q 10.453125 -20.796875 1.609375 -20.796875 
L -1.8125 -20.796875 
L -1.8125 -13.1875 
L 0.59375 -13.1875 
Q 5.71875 -13.1875 7.5625 -10.8125 
Q 9.421875 -8.453125 9.421875 -0.984375 
z
M 9.421875 75.984375 
L 18.40625 75.984375 
L 18.40625 64.59375 
L 9.421875 64.59375 
z
" id="DejaVuSans-6a"/>
     </defs>
     <g transform="translate(109.430082 160.632813)scale(0.14 -0.14)">
      <use xlink:href="#DejaVuSans-72"/>
      <use x="41.113281" xlink:href="#DejaVuSans-61"/>
      <use x="102.392578" xlink:href="#DejaVuSans-70"/>
      <use x="165.869141" xlink:href="#DejaVuSans-69"/>
      <use x="193.652344" xlink:href="#DejaVuSans-64"/>
      <use x="257.128906" xlink:href="#DejaVuSans-6a"/>
      <use x="284.912109" xlink:href="#DejaVuSans-73"/>
      <use x="337.011719" xlink:href="#DejaVuSans-6f"/>
      <use x="398.193359" xlink:href="#DejaVuSans-6e"/>
     </g>
    </g>
    <g id="patch_111">
     <path d="M 70.230082 181.182188 
L 98.230082 181.182188 
L 98.230082 171.382188 
L 70.230082 171.382188 
z
" style="fill:#e24a33;"/>
    </g>
    <g id="text_26">
     <!-- strtod -->
     <g transform="translate(109.430082 181.182188)scale(0.14 -0.14)">
      <use xlink:href="#DejaVuSans-73"/>
      <use x="52.099609" xlink:href="#DejaVuSans-74"/>
      <use x="91.308594" xlink:href="#DejaVuSans-72"/>
      <use x="132.421875" xlink:href="#DejaVuSans-74"/>
      <use x="171.630859" xlink:href="#DejaVuSans-6f"/>
      <use x="232.8125" xlink:href="#DejaVuSans-64"/>
     </g>
    </g>
   </g>
  </g>
 </g>
 <defs>
  <clipPath id="p6487c5cb96">
   <rect height="516.4" width="1081.049918" x="57.630082" y="13.32"/>
  </clipPath>
 </defs>
</svg>
