<?xml version="1.0" encoding="utf-8" standalone="no"?>
<!DOCTYPE svg PUBLIC "-//W3C//DTD SVG 1.1//EN"
  "http://www.w3.org/Graphics/SVG/1.1/DTD/svg11.dtd">
<!-- Created with matplotlib (https://matplotlib.org/) -->
<svg height="576pt" version="1.1" viewBox="0 0 1152 576" width="1152pt" xmlns="http://www.w3.org/2000/svg" xmlns:xlink="http://www.w3.org/1999/xlink">
 <defs>
  <style type="text/css">
*{stroke-linecap:butt;stroke-linejoin:round;}
  </style>
 </defs>
 <g id="figure_1">
  <g id="patch_1">
   <path d="M 0 576 
L 1152 576 
L 1152 0 
L 0 0 
z
" style="fill:#ffffff;"/>
  </g>
  <g id="axes_1">
   <g id="patch_2">
    <path d="M 59.840202 527.56 
L 1141.2 527.56 
L 1141.2 10.8 
L 59.840202 10.8 
z
" style="fill:#e5e5e5;"/>
   </g>
   <g id="matplotlib.axis_1">
    <g id="xtick_1">
     <g id="line2d_1">
      <path clip-path="url(#p855c8b4aad)" d="M 104.89686 527.56 
L 104.89686 10.8 
" style="fill:none;stroke:#ffffff;stroke-linecap:square;stroke-width:0.8;"/>
     </g>
     <g id="line2d_2">
      <defs>
       <path d="M 0 0 
L 0 3.5 
" id="md454330dc4" style="stroke:#555555;stroke-width:0.8;"/>
      </defs>
      <g>
       <use style="fill:#555555;stroke:#555555;stroke-width:0.8;" x="104.89686" xlink:href="#md454330dc4" y="527.56"/>
      </g>
     </g>
     <g id="text_1">
      <!-- 10 -->
      <defs>
       <path d="M 12.40625 8.296875 
L 28.515625 8.296875 
L 28.515625 63.921875 
L 10.984375 60.40625 
L 10.984375 69.390625 
L 28.421875 72.90625 
L 38.28125 72.90625 
L 38.28125 8.296875 
L 54.390625 8.296875 
L 54.390625 0 
L 12.40625 0 
z
" id="DejaVuSans-49"/>
       <path d="M 31.78125 66.40625 
Q 24.171875 66.40625 20.328125 58.90625 
Q 16.5 51.421875 16.5 36.375 
Q 16.5 21.390625 20.328125 13.890625 
Q 24.171875 6.390625 31.78125 6.390625 
Q 39.453125 6.390625 43.28125 13.890625 
Q 47.125 21.390625 47.125 36.375 
Q 47.125 51.421875 43.28125 58.90625 
Q 39.453125 66.40625 31.78125 66.40625 
z
M 31.78125 74.21875 
Q 44.046875 74.21875 50.515625 64.515625 
Q 56.984375 54.828125 56.984375 36.375 
Q 56.984375 17.96875 50.515625 8.265625 
Q 44.046875 -1.421875 31.78125 -1.421875 
Q 19.53125 -1.421875 13.0625 8.265625 
Q 6.59375 17.96875 6.59375 36.375 
Q 6.59375 54.828125 13.0625 64.515625 
Q 19.53125 74.21875 31.78125 74.21875 
z
" id="DejaVuSans-48"/>
      </defs>
      <g style="fill:#555555;" transform="translate(95.98936 545.197812)scale(0.14 -0.14)">
       <use xlink:href="#DejaVuSans-49"/>
       <use x="63.623047" xlink:href="#DejaVuSans-48"/>
      </g>
     </g>
    </g>
    <g id="xtick_2">
     <g id="line2d_3">
      <path clip-path="url(#p855c8b4aad)" d="M 195.010176 527.56 
L 195.010176 10.8 
" style="fill:none;stroke:#ffffff;stroke-linecap:square;stroke-width:0.8;"/>
     </g>
     <g id="line2d_4">
      <g>
       <use style="fill:#555555;stroke:#555555;stroke-width:0.8;" x="195.010176" xlink:href="#md454330dc4" y="527.56"/>
      </g>
     </g>
     <g id="text_2">
      <!-- 20 -->
      <defs>
       <path d="M 19.1875 8.296875 
L 53.609375 8.296875 
L 53.609375 0 
L 7.328125 0 
L 7.328125 8.296875 
Q 12.9375 14.109375 22.625 23.890625 
Q 32.328125 33.6875 34.8125 36.53125 
Q 39.546875 41.84375 41.421875 45.53125 
Q 43.3125 49.21875 43.3125 52.78125 
Q 43.3125 58.59375 39.234375 62.25 
Q 35.15625 65.921875 28.609375 65.921875 
Q 23.96875 65.921875 18.8125 64.3125 
Q 13.671875 62.703125 7.8125 59.421875 
L 7.8125 69.390625 
Q 13.765625 71.78125 18.9375 73 
Q 24.125 74.21875 28.421875 74.21875 
Q 39.75 74.21875 46.484375 68.546875 
Q 53.21875 62.890625 53.21875 53.421875 
Q 53.21875 48.921875 51.53125 44.890625 
Q 49.859375 40.875 45.40625 35.40625 
Q 44.1875 33.984375 37.640625 27.21875 
Q 31.109375 20.453125 19.1875 8.296875 
z
" id="DejaVuSans-50"/>
      </defs>
      <g style="fill:#555555;" transform="translate(186.102676 545.197812)scale(0.14 -0.14)">
       <use xlink:href="#DejaVuSans-50"/>
       <use x="63.623047" xlink:href="#DejaVuSans-48"/>
      </g>
     </g>
    </g>
    <g id="xtick_3">
     <g id="line2d_5">
      <path clip-path="url(#p855c8b4aad)" d="M 285.123493 527.56 
L 285.123493 10.8 
" style="fill:none;stroke:#ffffff;stroke-linecap:square;stroke-width:0.8;"/>
     </g>
     <g id="line2d_6">
      <g>
       <use style="fill:#555555;stroke:#555555;stroke-width:0.8;" x="285.123493" xlink:href="#md454330dc4" y="527.56"/>
      </g>
     </g>
     <g id="text_3">
      <!-- 30 -->
      <defs>
       <path d="M 40.578125 39.3125 
Q 47.65625 37.796875 51.625 33 
Q 55.609375 28.21875 55.609375 21.1875 
Q 55.609375 10.40625 48.1875 4.484375 
Q 40.765625 -1.421875 27.09375 -1.421875 
Q 22.515625 -1.421875 17.65625 -0.515625 
Q 12.796875 0.390625 7.625 2.203125 
L 7.625 11.71875 
Q 11.71875 9.328125 16.59375 8.109375 
Q 21.484375 6.890625 26.8125 6.890625 
Q 36.078125 6.890625 40.9375 10.546875 
Q 45.796875 14.203125 45.796875 21.1875 
Q 45.796875 27.640625 41.28125 31.265625 
Q 36.765625 34.90625 28.71875 34.90625 
L 20.21875 34.90625 
L 20.21875 43.015625 
L 29.109375 43.015625 
Q 36.375 43.015625 40.234375 45.921875 
Q 44.09375 48.828125 44.09375 54.296875 
Q 44.09375 59.90625 40.109375 62.90625 
Q 36.140625 65.921875 28.71875 65.921875 
Q 24.65625 65.921875 20.015625 65.03125 
Q 15.375 64.15625 9.8125 62.3125 
L 9.8125 71.09375 
Q 15.4375 72.65625 20.34375 73.4375 
Q 25.25 74.21875 29.59375 74.21875 
Q 40.828125 74.21875 47.359375 69.109375 
Q 53.90625 64.015625 53.90625 55.328125 
Q 53.90625 49.265625 50.4375 45.09375 
Q 46.96875 40.921875 40.578125 39.3125 
z
" id="DejaVuSans-51"/>
      </defs>
      <g style="fill:#555555;" transform="translate(276.215993 545.197812)scale(0.14 -0.14)">
       <use xlink:href="#DejaVuSans-51"/>
       <use x="63.623047" xlink:href="#DejaVuSans-48"/>
      </g>
     </g>
    </g>
    <g id="xtick_4">
     <g id="line2d_7">
      <path clip-path="url(#p855c8b4aad)" d="M 375.236809 527.56 
L 375.236809 10.8 
" style="fill:none;stroke:#ffffff;stroke-linecap:square;stroke-width:0.8;"/>
     </g>
     <g id="line2d_8">
      <g>
       <use style="fill:#555555;stroke:#555555;stroke-width:0.8;" x="375.236809" xlink:href="#md454330dc4" y="527.56"/>
      </g>
     </g>
     <g id="text_4">
      <!-- 40 -->
      <defs>
       <path d="M 37.796875 64.3125 
L 12.890625 25.390625 
L 37.796875 25.390625 
z
M 35.203125 72.90625 
L 47.609375 72.90625 
L 47.609375 25.390625 
L 58.015625 25.390625 
L 58.015625 17.1875 
L 47.609375 17.1875 
L 47.609375 0 
L 37.796875 0 
L 37.796875 17.1875 
L 4.890625 17.1875 
L 4.890625 26.703125 
z
" id="DejaVuSans-52"/>
      </defs>
      <g style="fill:#555555;" transform="translate(366.329309 545.197812)scale(0.14 -0.14)">
       <use xlink:href="#DejaVuSans-52"/>
       <use x="63.623047" xlink:href="#DejaVuSans-48"/>
      </g>
     </g>
    </g>
    <g id="xtick_5">
     <g id="line2d_9">
      <path clip-path="url(#p855c8b4aad)" d="M 465.350126 527.56 
L 465.350126 10.8 
" style="fill:none;stroke:#ffffff;stroke-linecap:square;stroke-width:0.8;"/>
     </g>
     <g id="line2d_10">
      <g>
       <use style="fill:#555555;stroke:#555555;stroke-width:0.8;" x="465.350126" xlink:href="#md454330dc4" y="527.56"/>
      </g>
     </g>
     <g id="text_5">
      <!-- 50 -->
      <defs>
       <path d="M 10.796875 72.90625 
L 49.515625 72.90625 
L 49.515625 64.59375 
L 19.828125 64.59375 
L 19.828125 46.734375 
Q 21.96875 47.46875 24.109375 47.828125 
Q 26.265625 48.1875 28.421875 48.1875 
Q 40.625 48.1875 47.75 41.5 
Q 54.890625 34.8125 54.890625 23.390625 
Q 54.890625 11.625 47.5625 5.09375 
Q 40.234375 -1.421875 26.90625 -1.421875 
Q 22.3125 -1.421875 17.546875 -0.640625 
Q 12.796875 0.140625 7.71875 1.703125 
L 7.71875 11.625 
Q 12.109375 9.234375 16.796875 8.0625 
Q 21.484375 6.890625 26.703125 6.890625 
Q 35.15625 6.890625 40.078125 11.328125 
Q 45.015625 15.765625 45.015625 23.390625 
Q 45.015625 31 40.078125 35.4375 
Q 35.15625 39.890625 26.703125 39.890625 
Q 22.75 39.890625 18.8125 39.015625 
Q 14.890625 38.140625 10.796875 36.28125 
z
" id="DejaVuSans-53"/>
      </defs>
      <g style="fill:#555555;" transform="translate(456.442626 545.197812)scale(0.14 -0.14)">
       <use xlink:href="#DejaVuSans-53"/>
       <use x="63.623047" xlink:href="#DejaVuSans-48"/>
      </g>
     </g>
    </g>
    <g id="xtick_6">
     <g id="line2d_11">
      <path clip-path="url(#p855c8b4aad)" d="M 555.463443 527.56 
L 555.463443 10.8 
" style="fill:none;stroke:#ffffff;stroke-linecap:square;stroke-width:0.8;"/>
     </g>
     <g id="line2d_12">
      <g>
       <use style="fill:#555555;stroke:#555555;stroke-width:0.8;" x="555.463443" xlink:href="#md454330dc4" y="527.56"/>
      </g>
     </g>
     <g id="text_6">
      <!-- 100 -->
      <g style="fill:#555555;" transform="translate(542.102193 545.197812)scale(0.14 -0.14)">
       <use xlink:href="#DejaVuSans-49"/>
       <use x="63.623047" xlink:href="#DejaVuSans-48"/>
       <use x="127.246094" xlink:href="#DejaVuSans-48"/>
      </g>
     </g>
    </g>
    <g id="xtick_7">
     <g id="line2d_13">
      <path clip-path="url(#p855c8b4aad)" d="M 645.576759 527.56 
L 645.576759 10.8 
" style="fill:none;stroke:#ffffff;stroke-linecap:square;stroke-width:0.8;"/>
     </g>
     <g id="line2d_14">
      <g>
       <use style="fill:#555555;stroke:#555555;stroke-width:0.8;" x="645.576759" xlink:href="#md454330dc4" y="527.56"/>
      </g>
     </g>
     <g id="text_7">
      <!-- 200 -->
      <g style="fill:#555555;" transform="translate(632.215509 545.197812)scale(0.14 -0.14)">
       <use xlink:href="#DejaVuSans-50"/>
       <use x="63.623047" xlink:href="#DejaVuSans-48"/>
       <use x="127.246094" xlink:href="#DejaVuSans-48"/>
      </g>
     </g>
    </g>
    <g id="xtick_8">
     <g id="line2d_15">
      <path clip-path="url(#p855c8b4aad)" d="M 735.690076 527.56 
L 735.690076 10.8 
" style="fill:none;stroke:#ffffff;stroke-linecap:square;stroke-width:0.8;"/>
     </g>
     <g id="line2d_16">
      <g>
       <use style="fill:#555555;stroke:#555555;stroke-width:0.8;" x="735.690076" xlink:href="#md454330dc4" y="527.56"/>
      </g>
     </g>
     <g id="text_8">
      <!-- 400 -->
      <g style="fill:#555555;" transform="translate(722.328826 545.197812)scale(0.14 -0.14)">
       <use xlink:href="#DejaVuSans-52"/>
       <use x="63.623047" xlink:href="#DejaVuSans-48"/>
       <use x="127.246094" xlink:href="#DejaVuSans-48"/>
      </g>
     </g>
    </g>
    <g id="xtick_9">
     <g id="line2d_17">
      <path clip-path="url(#p855c8b4aad)" d="M 825.803392 527.56 
L 825.803392 10.8 
" style="fill:none;stroke:#ffffff;stroke-linecap:square;stroke-width:0.8;"/>
     </g>
     <g id="line2d_18">
      <g>
       <use style="fill:#555555;stroke:#555555;stroke-width:0.8;" x="825.803392" xlink:href="#md454330dc4" y="527.56"/>
      </g>
     </g>
     <g id="text_9">
      <!-- 800 -->
      <defs>
       <path d="M 31.78125 34.625 
Q 24.75 34.625 20.71875 30.859375 
Q 16.703125 27.09375 16.703125 20.515625 
Q 16.703125 13.921875 20.71875 10.15625 
Q 24.75 6.390625 31.78125 6.390625 
Q 38.8125 6.390625 42.859375 10.171875 
Q 46.921875 13.96875 46.921875 20.515625 
Q 46.921875 27.09375 42.890625 30.859375 
Q 38.875 34.625 31.78125 34.625 
z
M 21.921875 38.8125 
Q 15.578125 40.375 12.03125 44.71875 
Q 8.5 49.078125 8.5 55.328125 
Q 8.5 64.0625 14.71875 69.140625 
Q 20.953125 74.21875 31.78125 74.21875 
Q 42.671875 74.21875 48.875 69.140625 
Q 55.078125 64.0625 55.078125 55.328125 
Q 55.078125 49.078125 51.53125 44.71875 
Q 48 40.375 41.703125 38.8125 
Q 48.828125 37.15625 52.796875 32.3125 
Q 56.78125 27.484375 56.78125 20.515625 
Q 56.78125 9.90625 50.3125 4.234375 
Q 43.84375 -1.421875 31.78125 -1.421875 
Q 19.734375 -1.421875 13.25 4.234375 
Q 6.78125 9.90625 6.78125 20.515625 
Q 6.78125 27.484375 10.78125 32.3125 
Q 14.796875 37.15625 21.921875 38.8125 
z
M 18.3125 54.390625 
Q 18.3125 48.734375 21.84375 45.5625 
Q 25.390625 42.390625 31.78125 42.390625 
Q 38.140625 42.390625 41.71875 45.5625 
Q 45.3125 48.734375 45.3125 54.390625 
Q 45.3125 60.0625 41.71875 63.234375 
Q 38.140625 66.40625 31.78125 66.40625 
Q 25.390625 66.40625 21.84375 63.234375 
Q 18.3125 60.0625 18.3125 54.390625 
z
" id="DejaVuSans-56"/>
      </defs>
      <g style="fill:#555555;" transform="translate(812.442142 545.197812)scale(0.14 -0.14)">
       <use xlink:href="#DejaVuSans-56"/>
       <use x="63.623047" xlink:href="#DejaVuSans-48"/>
       <use x="127.246094" xlink:href="#DejaVuSans-48"/>
      </g>
     </g>
    </g>
    <g id="xtick_10">
     <g id="line2d_19">
      <path clip-path="url(#p855c8b4aad)" d="M 915.916709 527.56 
L 915.916709 10.8 
" style="fill:none;stroke:#ffffff;stroke-linecap:square;stroke-width:0.8;"/>
     </g>
     <g id="line2d_20">
      <g>
       <use style="fill:#555555;stroke:#555555;stroke-width:0.8;" x="915.916709" xlink:href="#md454330dc4" y="527.56"/>
      </g>
     </g>
     <g id="text_10">
      <!-- 1600 -->
      <defs>
       <path d="M 33.015625 40.375 
Q 26.375 40.375 22.484375 35.828125 
Q 18.609375 31.296875 18.609375 23.390625 
Q 18.609375 15.53125 22.484375 10.953125 
Q 26.375 6.390625 33.015625 6.390625 
Q 39.65625 6.390625 43.53125 10.953125 
Q 47.40625 15.53125 47.40625 23.390625 
Q 47.40625 31.296875 43.53125 35.828125 
Q 39.65625 40.375 33.015625 40.375 
z
M 52.59375 71.296875 
L 52.59375 62.3125 
Q 48.875 64.0625 45.09375 64.984375 
Q 41.3125 65.921875 37.59375 65.921875 
Q 27.828125 65.921875 22.671875 59.328125 
Q 17.53125 52.734375 16.796875 39.40625 
Q 19.671875 43.65625 24.015625 45.921875 
Q 28.375 48.1875 33.59375 48.1875 
Q 44.578125 48.1875 50.953125 41.515625 
Q 57.328125 34.859375 57.328125 23.390625 
Q 57.328125 12.15625 50.6875 5.359375 
Q 44.046875 -1.421875 33.015625 -1.421875 
Q 20.359375 -1.421875 13.671875 8.265625 
Q 6.984375 17.96875 6.984375 36.375 
Q 6.984375 53.65625 15.1875 63.9375 
Q 23.390625 74.21875 37.203125 74.21875 
Q 40.921875 74.21875 44.703125 73.484375 
Q 48.484375 72.75 52.59375 71.296875 
z
" id="DejaVuSans-54"/>
      </defs>
      <g style="fill:#555555;" transform="translate(898.101709 545.197812)scale(0.14 -0.14)">
       <use xlink:href="#DejaVuSans-49"/>
       <use x="63.623047" xlink:href="#DejaVuSans-54"/>
       <use x="127.246094" xlink:href="#DejaVuSans-48"/>
       <use x="190.869141" xlink:href="#DejaVuSans-48"/>
      </g>
     </g>
    </g>
    <g id="xtick_11">
     <g id="line2d_21">
      <path clip-path="url(#p855c8b4aad)" d="M 1006.030025 527.56 
L 1006.030025 10.8 
" style="fill:none;stroke:#ffffff;stroke-linecap:square;stroke-width:0.8;"/>
     </g>
     <g id="line2d_22">
      <g>
       <use style="fill:#555555;stroke:#555555;stroke-width:0.8;" x="1006.030025" xlink:href="#md454330dc4" y="527.56"/>
      </g>
     </g>
     <g id="text_11">
      <!-- 3200 -->
      <g style="fill:#555555;" transform="translate(988.215025 545.197812)scale(0.14 -0.14)">
       <use xlink:href="#DejaVuSans-51"/>
       <use x="63.623047" xlink:href="#DejaVuSans-50"/>
       <use x="127.246094" xlink:href="#DejaVuSans-48"/>
       <use x="190.869141" xlink:href="#DejaVuSans-48"/>
      </g>
     </g>
    </g>
    <g id="xtick_12">
     <g id="line2d_23">
      <path clip-path="url(#p855c8b4aad)" d="M 1096.143342 527.56 
L 1096.143342 10.8 
" style="fill:none;stroke:#ffffff;stroke-linecap:square;stroke-width:0.8;"/>
     </g>
     <g id="line2d_24">
      <g>
       <use style="fill:#555555;stroke:#555555;stroke-width:0.8;" x="1096.143342" xlink:href="#md454330dc4" y="527.56"/>
      </g>
     </g>
     <g id="text_12">
      <!-- 6400 -->
      <g style="fill:#555555;" transform="translate(1078.328342 545.197812)scale(0.14 -0.14)">
       <use xlink:href="#DejaVuSans-54"/>
       <use x="63.623047" xlink:href="#DejaVuSans-52"/>
       <use x="127.246094" xlink:href="#DejaVuSans-48"/>
       <use x="190.869141" xlink:href="#DejaVuSans-48"/>
      </g>
     </g>
    </g>
    <g id="text_13">
     <!-- digits -->
     <defs>
      <path d="M 45.40625 46.390625 
L 45.40625 75.984375 
L 54.390625 75.984375 
L 54.390625 0 
L 45.40625 0 
L 45.40625 8.203125 
Q 42.578125 3.328125 38.25 0.953125 
Q 33.9375 -1.421875 27.875 -1.421875 
Q 17.96875 -1.421875 11.734375 6.484375 
Q 5.515625 14.40625 5.515625 27.296875 
Q 5.515625 40.1875 11.734375 48.09375 
Q 17.96875 56 27.875 56 
Q 33.9375 56 38.25 53.625 
Q 42.578125 51.265625 45.40625 46.390625 
z
M 14.796875 27.296875 
Q 14.796875 17.390625 18.875 11.75 
Q 22.953125 6.109375 30.078125 6.109375 
Q 37.203125 6.109375 41.296875 11.75 
Q 45.40625 17.390625 45.40625 27.296875 
Q 45.40625 37.203125 41.296875 42.84375 
Q 37.203125 48.484375 30.078125 48.484375 
Q 22.953125 48.484375 18.875 42.84375 
Q 14.796875 37.203125 14.796875 27.296875 
z
" id="DejaVuSans-100"/>
      <path d="M 9.421875 54.6875 
L 18.40625 54.6875 
L 18.40625 0 
L 9.421875 0 
z
M 9.421875 75.984375 
L 18.40625 75.984375 
L 18.40625 64.59375 
L 9.421875 64.59375 
z
" id="DejaVuSans-105"/>
      <path d="M 45.40625 27.984375 
Q 45.40625 37.75 41.375 43.109375 
Q 37.359375 48.484375 30.078125 48.484375 
Q 22.859375 48.484375 18.828125 43.109375 
Q 14.796875 37.75 14.796875 27.984375 
Q 14.796875 18.265625 18.828125 12.890625 
Q 22.859375 7.515625 30.078125 7.515625 
Q 37.359375 7.515625 41.375 12.890625 
Q 45.40625 18.265625 45.40625 27.984375 
z
M 54.390625 6.78125 
Q 54.390625 -7.171875 48.1875 -13.984375 
Q 42 -20.796875 29.203125 -20.796875 
Q 24.46875 -20.796875 20.265625 -20.09375 
Q 16.0625 -19.390625 12.109375 -17.921875 
L 12.109375 -9.1875 
Q 16.0625 -11.328125 19.921875 -12.34375 
Q 23.78125 -13.375 27.78125 -13.375 
Q 36.625 -13.375 41.015625 -8.765625 
Q 45.40625 -4.15625 45.40625 5.171875 
L 45.40625 9.625 
Q 42.625 4.78125 38.28125 2.390625 
Q 33.9375 0 27.875 0 
Q 17.828125 0 11.671875 7.65625 
Q 5.515625 15.328125 5.515625 27.984375 
Q 5.515625 40.671875 11.671875 48.328125 
Q 17.828125 56 27.875 56 
Q 33.9375 56 38.28125 53.609375 
Q 42.625 51.21875 45.40625 46.390625 
L 45.40625 54.6875 
L 54.390625 54.6875 
z
" id="DejaVuSans-103"/>
      <path d="M 18.3125 70.21875 
L 18.3125 54.6875 
L 36.8125 54.6875 
L 36.8125 47.703125 
L 18.3125 47.703125 
L 18.3125 18.015625 
Q 18.3125 11.328125 20.140625 9.421875 
Q 21.96875 7.515625 27.59375 7.515625 
L 36.8125 7.515625 
L 36.8125 0 
L 27.59375 0 
Q 17.1875 0 13.234375 3.875 
Q 9.28125 7.765625 9.28125 18.015625 
L 9.28125 47.703125 
L 2.6875 47.703125 
L 2.6875 54.6875 
L 9.28125 54.6875 
L 9.28125 70.21875 
z
" id="DejaVuSans-116"/>
      <path d="M 44.28125 53.078125 
L 44.28125 44.578125 
Q 40.484375 46.53125 36.375 47.5 
Q 32.28125 48.484375 27.875 48.484375 
Q 21.1875 48.484375 17.84375 46.4375 
Q 14.5 44.390625 14.5 40.28125 
Q 14.5 37.15625 16.890625 35.375 
Q 19.28125 33.59375 26.515625 31.984375 
L 29.59375 31.296875 
Q 39.15625 29.25 43.1875 25.515625 
Q 47.21875 21.78125 47.21875 15.09375 
Q 47.21875 7.46875 41.1875 3.015625 
Q 35.15625 -1.421875 24.609375 -1.421875 
Q 20.21875 -1.421875 15.453125 -0.5625 
Q 10.6875 0.296875 5.421875 2 
L 5.421875 11.28125 
Q 10.40625 8.6875 15.234375 7.390625 
Q 20.0625 6.109375 24.8125 6.109375 
Q 31.15625 6.109375 34.5625 8.28125 
Q 37.984375 10.453125 37.984375 14.40625 
Q 37.984375 18.0625 35.515625 20.015625 
Q 33.0625 21.96875 24.703125 23.78125 
L 21.578125 24.515625 
Q 13.234375 26.265625 9.515625 29.90625 
Q 5.8125 33.546875 5.8125 39.890625 
Q 5.8125 47.609375 11.28125 51.796875 
Q 16.75 56 26.8125 56 
Q 31.78125 56 36.171875 55.265625 
Q 40.578125 54.546875 44.28125 53.078125 
z
" id="DejaVuSans-115"/>
     </defs>
     <g style="fill:#555555;" transform="translate(584.090413 561.2275)scale(0.12 -0.12)">
      <use xlink:href="#DejaVuSans-100"/>
      <use x="63.476562" xlink:href="#DejaVuSans-105"/>
      <use x="91.259766" xlink:href="#DejaVuSans-103"/>
      <use x="154.736328" xlink:href="#DejaVuSans-105"/>
      <use x="182.519531" xlink:href="#DejaVuSans-116"/>
      <use x="221.728516" xlink:href="#DejaVuSans-115"/>
     </g>
    </g>
   </g>
   <g id="matplotlib.axis_2">
    <g id="ytick_1">
     <g id="line2d_25">
      <path clip-path="url(#p855c8b4aad)" d="M 59.840202 472.365663 
L 1141.2 472.365663 
" style="fill:none;stroke:#ffffff;stroke-linecap:square;stroke-width:0.8;"/>
     </g>
     <g id="line2d_26">
      <defs>
       <path d="M 0 0 
L -3.5 0 
" id="m42a2ee11dd" style="stroke:#555555;stroke-width:0.8;"/>
      </defs>
      <g>
       <use style="fill:#555555;stroke:#555555;stroke-width:0.8;" x="59.840202" xlink:href="#m42a2ee11dd" y="472.365663"/>
      </g>
     </g>
     <g id="text_14">
      <!-- $\mathdefault{10^{2}}$ -->
      <g style="fill:#555555;" transform="translate(28.200202 477.684569)scale(0.14 -0.14)">
       <use transform="translate(0 0.765625)" xlink:href="#DejaVuSans-49"/>
       <use transform="translate(63.623047 0.765625)" xlink:href="#DejaVuSans-48"/>
       <use transform="translate(128.203125 39.046875)scale(0.7)" xlink:href="#DejaVuSans-50"/>
      </g>
     </g>
    </g>
    <g id="ytick_2">
     <g id="line2d_27">
      <path clip-path="url(#p855c8b4aad)" d="M 59.840202 330.426098 
L 1141.2 330.426098 
" style="fill:none;stroke:#ffffff;stroke-linecap:square;stroke-width:0.8;"/>
     </g>
     <g id="line2d_28">
      <g>
       <use style="fill:#555555;stroke:#555555;stroke-width:0.8;" x="59.840202" xlink:href="#m42a2ee11dd" y="330.426098"/>
      </g>
     </g>
     <g id="text_15">
      <!-- $\mathdefault{10^{3}}$ -->
      <g style="fill:#555555;" transform="translate(28.200202 335.745004)scale(0.14 -0.14)">
       <use transform="translate(0 0.765625)" xlink:href="#DejaVuSans-49"/>
       <use transform="translate(63.623047 0.765625)" xlink:href="#DejaVuSans-48"/>
       <use transform="translate(128.203125 39.046875)scale(0.7)" xlink:href="#DejaVuSans-51"/>
      </g>
     </g>
    </g>
    <g id="ytick_3">
     <g id="line2d_29">
      <path clip-path="url(#p855c8b4aad)" d="M 59.840202 188.486533 
L 1141.2 188.486533 
" style="fill:none;stroke:#ffffff;stroke-linecap:square;stroke-width:0.8;"/>
     </g>
     <g id="line2d_30">
      <g>
       <use style="fill:#555555;stroke:#555555;stroke-width:0.8;" x="59.840202" xlink:href="#m42a2ee11dd" y="188.486533"/>
      </g>
     </g>
     <g id="text_16">
      <!-- $\mathdefault{10^{4}}$ -->
      <g style="fill:#555555;" transform="translate(28.200202 193.805439)scale(0.14 -0.14)">
       <use transform="translate(0 0.684375)" xlink:href="#DejaVuSans-49"/>
       <use transform="translate(63.623047 0.684375)" xlink:href="#DejaVuSans-48"/>
       <use transform="translate(128.203125 38.965625)scale(0.7)" xlink:href="#DejaVuSans-52"/>
      </g>
     </g>
    </g>
    <g id="ytick_4">
     <g id="line2d_31">
      <path clip-path="url(#p855c8b4aad)" d="M 59.840202 46.546968 
L 1141.2 46.546968 
" style="fill:none;stroke:#ffffff;stroke-linecap:square;stroke-width:0.8;"/>
     </g>
     <g id="line2d_32">
      <g>
       <use style="fill:#555555;stroke:#555555;stroke-width:0.8;" x="59.840202" xlink:href="#m42a2ee11dd" y="46.546968"/>
      </g>
     </g>
     <g id="text_17">
      <!-- $\mathdefault{10^{5}}$ -->
      <g style="fill:#555555;" transform="translate(28.200202 51.865874)scale(0.14 -0.14)">
       <use transform="translate(0 0.684375)" xlink:href="#DejaVuSans-49"/>
       <use transform="translate(63.623047 0.684375)" xlink:href="#DejaVuSans-48"/>
       <use transform="translate(128.203125 38.965625)scale(0.7)" xlink:href="#DejaVuSans-53"/>
      </g>
     </g>
    </g>
    <g id="ytick_5">
     <g id="line2d_33">
      <defs>
       <path d="M 0 0 
L -2 0 
" id="m5a51d62074" style="stroke:#555555;stroke-width:0.6;"/>
      </defs>
      <g>
       <use style="fill:#555555;stroke:#555555;stroke-width:0.6;" x="59.840202" xlink:href="#m5a51d62074" y="515.09373"/>
      </g>
     </g>
    </g>
    <g id="ytick_6">
     <g id="line2d_34">
      <g>
       <use style="fill:#555555;stroke:#555555;stroke-width:0.6;" x="59.840202" xlink:href="#m5a51d62074" y="503.854778"/>
      </g>
     </g>
    </g>
    <g id="ytick_7">
     <g id="line2d_35">
      <g>
       <use style="fill:#555555;stroke:#555555;stroke-width:0.6;" x="59.840202" xlink:href="#m5a51d62074" y="494.35238"/>
      </g>
     </g>
    </g>
    <g id="ytick_8">
     <g id="line2d_36">
      <g>
       <use style="fill:#555555;stroke:#555555;stroke-width:0.6;" x="59.840202" xlink:href="#m5a51d62074" y="486.121028"/>
      </g>
     </g>
    </g>
    <g id="ytick_9">
     <g id="line2d_37">
      <g>
       <use style="fill:#555555;stroke:#555555;stroke-width:0.6;" x="59.840202" xlink:href="#m5a51d62074" y="478.860461"/>
      </g>
     </g>
    </g>
    <g id="ytick_10">
     <g id="line2d_38">
      <g>
       <use style="fill:#555555;stroke:#555555;stroke-width:0.6;" x="59.840202" xlink:href="#m5a51d62074" y="429.637596"/>
      </g>
     </g>
    </g>
    <g id="ytick_11">
     <g id="line2d_39">
      <g>
       <use style="fill:#555555;stroke:#555555;stroke-width:0.6;" x="59.840202" xlink:href="#m5a51d62074" y="404.64328"/>
      </g>
     </g>
    </g>
    <g id="ytick_12">
     <g id="line2d_40">
      <g>
       <use style="fill:#555555;stroke:#555555;stroke-width:0.6;" x="59.840202" xlink:href="#m5a51d62074" y="386.90953"/>
      </g>
     </g>
    </g>
    <g id="ytick_13">
     <g id="line2d_41">
      <g>
       <use style="fill:#555555;stroke:#555555;stroke-width:0.6;" x="59.840202" xlink:href="#m5a51d62074" y="373.154165"/>
      </g>
     </g>
    </g>
    <g id="ytick_14">
     <g id="line2d_42">
      <g>
       <use style="fill:#555555;stroke:#555555;stroke-width:0.6;" x="59.840202" xlink:href="#m5a51d62074" y="361.915213"/>
      </g>
     </g>
    </g>
    <g id="ytick_15">
     <g id="line2d_43">
      <g>
       <use style="fill:#555555;stroke:#555555;stroke-width:0.6;" x="59.840202" xlink:href="#m5a51d62074" y="352.412815"/>
      </g>
     </g>
    </g>
    <g id="ytick_16">
     <g id="line2d_44">
      <g>
       <use style="fill:#555555;stroke:#555555;stroke-width:0.6;" x="59.840202" xlink:href="#m5a51d62074" y="344.181463"/>
      </g>
     </g>
    </g>
    <g id="ytick_17">
     <g id="line2d_45">
      <g>
       <use style="fill:#555555;stroke:#555555;stroke-width:0.6;" x="59.840202" xlink:href="#m5a51d62074" y="336.920896"/>
      </g>
     </g>
    </g>
    <g id="ytick_18">
     <g id="line2d_46">
      <g>
       <use style="fill:#555555;stroke:#555555;stroke-width:0.6;" x="59.840202" xlink:href="#m5a51d62074" y="287.698031"/>
      </g>
     </g>
    </g>
    <g id="ytick_19">
     <g id="line2d_47">
      <g>
       <use style="fill:#555555;stroke:#555555;stroke-width:0.6;" x="59.840202" xlink:href="#m5a51d62074" y="262.703715"/>
      </g>
     </g>
    </g>
    <g id="ytick_20">
     <g id="line2d_48">
      <g>
       <use style="fill:#555555;stroke:#555555;stroke-width:0.6;" x="59.840202" xlink:href="#m5a51d62074" y="244.969965"/>
      </g>
     </g>
    </g>
    <g id="ytick_21">
     <g id="line2d_49">
      <g>
       <use style="fill:#555555;stroke:#555555;stroke-width:0.6;" x="59.840202" xlink:href="#m5a51d62074" y="231.2146"/>
      </g>
     </g>
    </g>
    <g id="ytick_22">
     <g id="line2d_50">
      <g>
       <use style="fill:#555555;stroke:#555555;stroke-width:0.6;" x="59.840202" xlink:href="#m5a51d62074" y="219.975648"/>
      </g>
     </g>
    </g>
    <g id="ytick_23">
     <g id="line2d_51">
      <g>
       <use style="fill:#555555;stroke:#555555;stroke-width:0.6;" x="59.840202" xlink:href="#m5a51d62074" y="210.47325"/>
      </g>
     </g>
    </g>
    <g id="ytick_24">
     <g id="line2d_52">
      <g>
       <use style="fill:#555555;stroke:#555555;stroke-width:0.6;" x="59.840202" xlink:href="#m5a51d62074" y="202.241898"/>
      </g>
     </g>
    </g>
    <g id="ytick_25">
     <g id="line2d_53">
      <g>
       <use style="fill:#555555;stroke:#555555;stroke-width:0.6;" x="59.840202" xlink:href="#m5a51d62074" y="194.981331"/>
      </g>
     </g>
    </g>
    <g id="ytick_26">
     <g id="line2d_54">
      <g>
       <use style="fill:#555555;stroke:#555555;stroke-width:0.6;" x="59.840202" xlink:href="#m5a51d62074" y="145.758466"/>
      </g>
     </g>
    </g>
    <g id="ytick_27">
     <g id="line2d_55">
      <g>
       <use style="fill:#555555;stroke:#555555;stroke-width:0.6;" x="59.840202" xlink:href="#m5a51d62074" y="120.764149"/>
      </g>
     </g>
    </g>
    <g id="ytick_28">
     <g id="line2d_56">
      <g>
       <use style="fill:#555555;stroke:#555555;stroke-width:0.6;" x="59.840202" xlink:href="#m5a51d62074" y="103.030399"/>
      </g>
     </g>
    </g>
    <g id="ytick_29">
     <g id="line2d_57">
      <g>
       <use style="fill:#555555;stroke:#555555;stroke-width:0.6;" x="59.840202" xlink:href="#m5a51d62074" y="89.275034"/>
      </g>
     </g>
    </g>
    <g id="ytick_30">
     <g id="line2d_58">
      <g>
       <use style="fill:#555555;stroke:#555555;stroke-width:0.6;" x="59.840202" xlink:href="#m5a51d62074" y="78.036083"/>
      </g>
     </g>
    </g>
    <g id="ytick_31">
     <g id="line2d_59">
      <g>
       <use style="fill:#555555;stroke:#555555;stroke-width:0.6;" x="59.840202" xlink:href="#m5a51d62074" y="68.533685"/>
      </g>
     </g>
    </g>
    <g id="ytick_32">
     <g id="line2d_60">
      <g>
       <use style="fill:#555555;stroke:#555555;stroke-width:0.6;" x="59.840202" xlink:href="#m5a51d62074" y="60.302333"/>
      </g>
     </g>
    </g>
    <g id="ytick_33">
     <g id="line2d_61">
      <g>
       <use style="fill:#555555;stroke:#555555;stroke-width:0.6;" x="59.840202" xlink:href="#m5a51d62074" y="53.041766"/>
      </g>
     </g>
    </g>
    <g id="text_18">
     <!-- ns/iter -->
     <defs>
      <path d="M 54.890625 33.015625 
L 54.890625 0 
L 45.90625 0 
L 45.90625 32.71875 
Q 45.90625 40.484375 42.875 44.328125 
Q 39.84375 48.1875 33.796875 48.1875 
Q 26.515625 48.1875 22.3125 43.546875 
Q 18.109375 38.921875 18.109375 30.90625 
L 18.109375 0 
L 9.078125 0 
L 9.078125 54.6875 
L 18.109375 54.6875 
L 18.109375 46.1875 
Q 21.34375 51.125 25.703125 53.5625 
Q 30.078125 56 35.796875 56 
Q 45.21875 56 50.046875 50.171875 
Q 54.890625 44.34375 54.890625 33.015625 
z
" id="DejaVuSans-110"/>
      <path d="M 25.390625 72.90625 
L 33.6875 72.90625 
L 8.296875 -9.28125 
L 0 -9.28125 
z
" id="DejaVuSans-47"/>
      <path d="M 56.203125 29.59375 
L 56.203125 25.203125 
L 14.890625 25.203125 
Q 15.484375 15.921875 20.484375 11.0625 
Q 25.484375 6.203125 34.421875 6.203125 
Q 39.59375 6.203125 44.453125 7.46875 
Q 49.3125 8.734375 54.109375 11.28125 
L 54.109375 2.78125 
Q 49.265625 0.734375 44.1875 -0.34375 
Q 39.109375 -1.421875 33.890625 -1.421875 
Q 20.796875 -1.421875 13.15625 6.1875 
Q 5.515625 13.8125 5.515625 26.8125 
Q 5.515625 40.234375 12.765625 48.109375 
Q 20.015625 56 32.328125 56 
Q 43.359375 56 49.78125 48.890625 
Q 56.203125 41.796875 56.203125 29.59375 
z
M 47.21875 32.234375 
Q 47.125 39.59375 43.09375 43.984375 
Q 39.0625 48.390625 32.421875 48.390625 
Q 24.90625 48.390625 20.390625 44.140625 
Q 15.875 39.890625 15.1875 32.171875 
z
" id="DejaVuSans-101"/>
      <path d="M 41.109375 46.296875 
Q 39.59375 47.171875 37.8125 47.578125 
Q 36.03125 48 33.890625 48 
Q 26.265625 48 22.1875 43.046875 
Q 18.109375 38.09375 18.109375 28.8125 
L 18.109375 0 
L 9.078125 0 
L 9.078125 54.6875 
L 18.109375 54.6875 
L 18.109375 46.1875 
Q 20.953125 51.171875 25.484375 53.578125 
Q 30.03125 56 36.53125 56 
Q 37.453125 56 38.578125 55.875 
Q 39.703125 55.765625 41.0625 55.515625 
z
" id="DejaVuSans-114"/>
     </defs>
     <g style="fill:#555555;" transform="translate(21.704577 288.306875)rotate(-90)scale(0.12 -0.12)">
      <use xlink:href="#DejaVuSans-110"/>
      <use x="63.378906" xlink:href="#DejaVuSans-115"/>
      <use x="115.478516" xlink:href="#DejaVuSans-47"/>
      <use x="149.169922" xlink:href="#DejaVuSans-105"/>
      <use x="176.953125" xlink:href="#DejaVuSans-116"/>
      <use x="216.162109" xlink:href="#DejaVuSans-101"/>
      <use x="277.685547" xlink:href="#DejaVuSans-114"/>
     </g>
    </g>
   </g>
   <g id="patch_3">
    <path clip-path="url(#p855c8b4aad)" d="M 82.368531 142695.809921 
L 88.805196 142695.809921 
L 88.805196 500.576748 
L 82.368531 500.576748 
z
" style="fill:#e24a33;"/>
   </g>
   <g id="patch_4">
    <path clip-path="url(#p855c8b4aad)" d="M 172.481847 142695.809921 
L 178.918513 142695.809921 
L 178.918513 480.73072 
L 172.481847 480.73072 
z
" style="fill:#e24a33;"/>
   </g>
   <g id="patch_5">
    <path clip-path="url(#p855c8b4aad)" d="M 262.595164 142695.809921 
L 269.031829 142695.809921 
L 269.031829 356.868388 
L 262.595164 356.868388 
z
" style="fill:#e24a33;"/>
   </g>
   <g id="patch_6">
    <path clip-path="url(#p855c8b4aad)" d="M 352.70848 142695.809921 
L 359.145146 142695.809921 
L 359.145146 349.925629 
L 352.70848 349.925629 
z
" style="fill:#e24a33;"/>
   </g>
   <g id="patch_7">
    <path clip-path="url(#p855c8b4aad)" d="M 442.821797 142695.809921 
L 449.258462 142695.809921 
L 449.258462 345.487613 
L 442.821797 345.487613 
z
" style="fill:#e24a33;"/>
   </g>
   <g id="patch_8">
    <path clip-path="url(#p855c8b4aad)" d="M 532.935113 142695.809921 
L 539.371779 142695.809921 
L 539.371779 318.031121 
L 532.935113 318.031121 
z
" style="fill:#e24a33;"/>
   </g>
   <g id="patch_9">
    <path clip-path="url(#p855c8b4aad)" d="M 623.04843 142695.809921 
L 629.485095 142695.809921 
L 629.485095 283.711331 
L 623.04843 283.711331 
z
" style="fill:#e24a33;"/>
   </g>
   <g id="patch_10">
    <path clip-path="url(#p855c8b4aad)" d="M 713.161746 142695.809921 
L 719.598412 142695.809921 
L 719.598412 234.876652 
L 713.161746 234.876652 
z
" style="fill:#e24a33;"/>
   </g>
   <g id="patch_11">
    <path clip-path="url(#p855c8b4aad)" d="M 803.275063 142695.809921 
L 809.711728 142695.809921 
L 809.711728 175.925698 
L 803.275063 175.925698 
z
" style="fill:#e24a33;"/>
   </g>
   <g id="patch_12">
    <path clip-path="url(#p855c8b4aad)" d="M 893.38838 142695.809921 
L 899.825045 142695.809921 
L 899.825045 171.095096 
L 893.38838 171.095096 
z
" style="fill:#e24a33;"/>
   </g>
   <g id="patch_13">
    <path clip-path="url(#p855c8b4aad)" d="M 983.501696 142695.809921 
L 989.938362 142695.809921 
L 989.938362 161.593247 
L 983.501696 161.593247 
z
" style="fill:#e24a33;"/>
   </g>
   <g id="patch_14">
    <path clip-path="url(#p855c8b4aad)" d="M 1073.615013 142695.809921 
L 1080.051678 142695.809921 
L 1080.051678 147.390677 
L 1073.615013 147.390677 
z
" style="fill:#e24a33;"/>
   </g>
   <g id="patch_15">
    <path clip-path="url(#p855c8b4aad)" d="M 88.805196 142695.809921 
L 95.241862 142695.809921 
L 95.241862 483.851683 
L 88.805196 483.851683 
z
" style="fill:#348abd;"/>
   </g>
   <g id="patch_16">
    <path clip-path="url(#p855c8b4aad)" d="M 178.918513 142695.809921 
L 185.355178 142695.809921 
L 185.355178 130.905807 
L 178.918513 130.905807 
z
" style="fill:#348abd;"/>
   </g>
   <g id="patch_17">
    <path clip-path="url(#p855c8b4aad)" d="M 269.031829 142695.809921 
L 275.468495 142695.809921 
L 275.468495 127.788612 
L 269.031829 127.788612 
z
" style="fill:#348abd;"/>
   </g>
   <g id="patch_18">
    <path clip-path="url(#p855c8b4aad)" d="M 359.145146 142695.809921 
L 365.581811 142695.809921 
L 365.581811 124.475716 
L 359.145146 124.475716 
z
" style="fill:#348abd;"/>
   </g>
   <g id="patch_19">
    <path clip-path="url(#p855c8b4aad)" d="M 449.258462 142695.809921 
L 455.695128 142695.809921 
L 455.695128 122.051465 
L 449.258462 122.051465 
z
" style="fill:#348abd;"/>
   </g>
   <g id="patch_20">
    <path clip-path="url(#p855c8b4aad)" d="M 539.371779 142695.809921 
L 545.808444 142695.809921 
L 545.808444 110.32488 
L 539.371779 110.32488 
z
" style="fill:#348abd;"/>
   </g>
   <g id="patch_21">
    <path clip-path="url(#p855c8b4aad)" d="M 629.485095 142695.809921 
L 635.921761 142695.809921 
L 635.921761 91.242956 
L 629.485095 91.242956 
z
" style="fill:#348abd;"/>
   </g>
   <g id="patch_22">
    <path clip-path="url(#p855c8b4aad)" d="M 719.598412 142695.809921 
L 726.035077 142695.809921 
L 726.035077 65.186514 
L 719.598412 65.186514 
z
" style="fill:#348abd;"/>
   </g>
   <g id="patch_23">
    <path clip-path="url(#p855c8b4aad)" d="M 809.711728 142695.809921 
L 816.148394 142695.809921 
L 816.148394 73.949916 
L 809.711728 73.949916 
z
" style="fill:#348abd;"/>
   </g>
   <g id="patch_24">
    <path clip-path="url(#p855c8b4aad)" d="M 899.825045 142695.809921 
L 906.26171 142695.809921 
L 906.26171 82.087936 
L 899.825045 82.087936 
z
" style="fill:#348abd;"/>
   </g>
   <g id="patch_25">
    <path clip-path="url(#p855c8b4aad)" d="M 989.938362 142695.809921 
L 996.375027 142695.809921 
L 996.375027 71.899858 
L 989.938362 71.899858 
z
" style="fill:#348abd;"/>
   </g>
   <g id="patch_26">
    <path clip-path="url(#p855c8b4aad)" d="M 1080.051678 142695.809921 
L 1086.488344 142695.809921 
L 1086.488344 54.989325 
L 1080.051678 54.989325 
z
" style="fill:#348abd;"/>
   </g>
   <g id="patch_27">
    <path clip-path="url(#p855c8b4aad)" d="M 95.241862 142695.809921 
L 101.678527 142695.809921 
L 101.678527 504.070909 
L 95.241862 504.070909 
z
" style="fill:#988ed5;"/>
   </g>
   <g id="patch_28">
    <path clip-path="url(#p855c8b4aad)" d="M 185.355178 142695.809921 
L 191.791844 142695.809921 
L 191.791844 401.977131 
L 185.355178 401.977131 
z
" style="fill:#988ed5;"/>
   </g>
   <g id="patch_29">
    <path clip-path="url(#p855c8b4aad)" d="M 275.468495 142695.809921 
L 281.90516 142695.809921 
L 281.90516 393.71504 
L 275.468495 393.71504 
z
" style="fill:#988ed5;"/>
   </g>
   <g id="patch_30">
    <path clip-path="url(#p855c8b4aad)" d="M 365.581811 142695.809921 
L 372.018477 142695.809921 
L 372.018477 383.173862 
L 365.581811 383.173862 
z
" style="fill:#988ed5;"/>
   </g>
   <g id="patch_31">
    <path clip-path="url(#p855c8b4aad)" d="M 455.695128 142695.809921 
L 462.131793 142695.809921 
L 462.131793 386.767912 
L 455.695128 386.767912 
z
" style="fill:#988ed5;"/>
   </g>
   <g id="patch_32">
    <path clip-path="url(#p855c8b4aad)" d="M 545.808444 142695.809921 
L 552.24511 142695.809921 
L 552.24511 362.507775 
L 545.808444 362.507775 
z
" style="fill:#988ed5;"/>
   </g>
   <g id="patch_33">
    <path clip-path="url(#p855c8b4aad)" d="M 635.921761 142695.809921 
L 642.358426 142695.809921 
L 642.358426 332.502308 
L 635.921761 332.502308 
z
" style="fill:#988ed5;"/>
   </g>
   <g id="patch_34">
    <path clip-path="url(#p855c8b4aad)" d="M 726.035077 142695.809921 
L 732.471743 142695.809921 
L 732.471743 294.39178 
L 726.035077 294.39178 
z
" style="fill:#988ed5;"/>
   </g>
   <g id="patch_35">
    <path clip-path="url(#p855c8b4aad)" d="M 816.148394 142695.809921 
L 822.585059 142695.809921 
L 822.585059 249.043765 
L 816.148394 249.043765 
z
" style="fill:#988ed5;"/>
   </g>
   <g id="patch_36">
    <path clip-path="url(#p855c8b4aad)" d="M 906.26171 142695.809921 
L 912.698376 142695.809921 
L 912.698376 237.30797 
L 906.26171 237.30797 
z
" style="fill:#988ed5;"/>
   </g>
   <g id="patch_37">
    <path clip-path="url(#p855c8b4aad)" d="M 996.375027 142695.809921 
L 1002.811692 142695.809921 
L 1002.811692 225.46275 
L 996.375027 225.46275 
z
" style="fill:#988ed5;"/>
   </g>
   <g id="patch_38">
    <path clip-path="url(#p855c8b4aad)" d="M 1086.488344 142695.809921 
L 1092.925009 142695.809921 
L 1092.925009 206.272908 
L 1086.488344 206.272908 
z
" style="fill:#988ed5;"/>
   </g>
   <g id="patch_39">
    <path clip-path="url(#p855c8b4aad)" d="M 101.678527 142695.809921 
L 108.115193 142695.809921 
L 108.115193 34.289091 
L 101.678527 34.289091 
z
" style="fill:#777777;"/>
   </g>
   <g id="patch_40">
    <path clip-path="url(#p855c8b4aad)" d="M 191.791844 142695.809921 
L 198.228509 142695.809921 
L 198.228509 142695.809921 
L 191.791844 142695.809921 
z
" style="fill:#777777;"/>
   </g>
   <g id="patch_41">
    <path clip-path="url(#p855c8b4aad)" d="M 281.90516 142695.809921 
L 288.341826 142695.809921 
L 288.341826 142695.809921 
L 281.90516 142695.809921 
z
" style="fill:#777777;"/>
   </g>
   <g id="patch_42">
    <path clip-path="url(#p855c8b4aad)" d="M 372.018477 142695.809921 
L 378.455142 142695.809921 
L 378.455142 142695.809921 
L 372.018477 142695.809921 
z
" style="fill:#777777;"/>
   </g>
   <g id="patch_43">
    <path clip-path="url(#p855c8b4aad)" d="M 462.131793 142695.809921 
L 468.568459 142695.809921 
L 468.568459 142695.809921 
L 462.131793 142695.809921 
z
" style="fill:#777777;"/>
   </g>
   <g id="patch_44">
    <path clip-path="url(#p855c8b4aad)" d="M 552.24511 142695.809921 
L 558.681775 142695.809921 
L 558.681775 142695.809921 
L 552.24511 142695.809921 
z
" style="fill:#777777;"/>
   </g>
   <g id="patch_45">
    <path clip-path="url(#p855c8b4aad)" d="M 642.358426 142695.809921 
L 648.795092 142695.809921 
L 648.795092 142695.809921 
L 642.358426 142695.809921 
z
" style="fill:#777777;"/>
   </g>
   <g id="patch_46">
    <path clip-path="url(#p855c8b4aad)" d="M 732.471743 142695.809921 
L 738.908408 142695.809921 
L 738.908408 142695.809921 
L 732.471743 142695.809921 
z
" style="fill:#777777;"/>
   </g>
   <g id="patch_47">
    <path clip-path="url(#p855c8b4aad)" d="M 822.585059 142695.809921 
L 829.021725 142695.809921 
L 829.021725 142695.809921 
L 822.585059 142695.809921 
z
" style="fill:#777777;"/>
   </g>
   <g id="patch_48">
    <path clip-path="url(#p855c8b4aad)" d="M 912.698376 142695.809921 
L 919.135041 142695.809921 
L 919.135041 142695.809921 
L 912.698376 142695.809921 
z
" style="fill:#777777;"/>
   </g>
   <g id="patch_49">
    <path clip-path="url(#p855c8b4aad)" d="M 1002.811692 142695.809921 
L 1009.248358 142695.809921 
L 1009.248358 142695.809921 
L 1002.811692 142695.809921 
z
" style="fill:#777777;"/>
   </g>
   <g id="patch_50">
    <path clip-path="url(#p855c8b4aad)" d="M 1092.925009 142695.809921 
L 1099.361674 142695.809921 
L 1099.361674 142695.809921 
L 1092.925009 142695.809921 
z
" style="fill:#777777;"/>
   </g>
   <g id="patch_51">
    <path clip-path="url(#p855c8b4aad)" d="M 108.115193 142695.809921 
L 114.551858 142695.809921 
L 114.551858 333.913296 
L 108.115193 333.913296 
z
" style="fill:#fbc15e;"/>
   </g>
   <g id="patch_52">
    <path clip-path="url(#p855c8b4aad)" d="M 198.228509 142695.809921 
L 204.665175 142695.809921 
L 204.665175 328.008393 
L 198.228509 328.008393 
z
" style="fill:#fbc15e;"/>
   </g>
   <g id="patch_53">
    <path clip-path="url(#p855c8b4aad)" d="M 288.341826 142695.809921 
L 294.778491 142695.809921 
L 294.778491 324.550838 
L 288.341826 324.550838 
z
" style="fill:#fbc15e;"/>
   </g>
   <g id="patch_54">
    <path clip-path="url(#p855c8b4aad)" d="M 378.455142 142695.809921 
L 384.891808 142695.809921 
L 384.891808 317.165865 
L 378.455142 317.165865 
z
" style="fill:#fbc15e;"/>
   </g>
   <g id="patch_55">
    <path clip-path="url(#p855c8b4aad)" d="M 468.568459 142695.809921 
L 475.005124 142695.809921 
L 475.005124 239.234963 
L 468.568459 239.234963 
z
" style="fill:#fbc15e;"/>
   </g>
   <g id="patch_56">
    <path clip-path="url(#p855c8b4aad)" d="M 558.681775 142695.809921 
L 565.118441 142695.809921 
L 565.118441 205.9742 
L 558.681775 205.9742 
z
" style="fill:#fbc15e;"/>
   </g>
   <g id="patch_57">
    <path clip-path="url(#p855c8b4aad)" d="M 648.795092 142695.809921 
L 655.231757 142695.809921 
L 655.231757 168.632156 
L 648.795092 168.632156 
z
" style="fill:#fbc15e;"/>
   </g>
   <g id="patch_58">
    <path clip-path="url(#p855c8b4aad)" d="M 738.908408 142695.809921 
L 745.345074 142695.809921 
L 745.345074 129.113029 
L 738.908408 129.113029 
z
" style="fill:#fbc15e;"/>
   </g>
   <g id="patch_59">
    <path clip-path="url(#p855c8b4aad)" d="M 829.021725 142695.809921 
L 835.45839 142695.809921 
L 835.45839 91.535133 
L 829.021725 91.535133 
z
" style="fill:#fbc15e;"/>
   </g>
   <g id="patch_60">
    <path clip-path="url(#p855c8b4aad)" d="M 919.135041 142695.809921 
L 925.571707 142695.809921 
L 925.571707 90.520401 
L 919.135041 90.520401 
z
" style="fill:#fbc15e;"/>
   </g>
   <g id="patch_61">
    <path clip-path="url(#p855c8b4aad)" d="M 1009.248358 142695.809921 
L 1015.685023 142695.809921 
L 1015.685023 89.522103 
L 1009.248358 89.522103 
z
" style="fill:#fbc15e;"/>
   </g>
   <g id="patch_62">
    <path clip-path="url(#p855c8b4aad)" d="M 1099.361674 142695.809921 
L 1105.79834 142695.809921 
L 1105.79834 86.975989 
L 1099.361674 86.975989 
z
" style="fill:#fbc15e;"/>
   </g>
   <g id="patch_63">
    <path clip-path="url(#p855c8b4aad)" d="M 114.551858 142695.809921 
L 120.988523 142695.809921 
L 120.988523 478.356724 
L 114.551858 478.356724 
z
" style="fill:#8eba42;"/>
   </g>
   <g id="patch_64">
    <path clip-path="url(#p855c8b4aad)" d="M 204.665175 142695.809921 
L 211.10184 142695.809921 
L 211.10184 459.784594 
L 204.665175 459.784594 
z
" style="fill:#8eba42;"/>
   </g>
   <g id="patch_65">
    <path clip-path="url(#p855c8b4aad)" d="M 294.778491 142695.809921 
L 301.215157 142695.809921 
L 301.215157 376.407088 
L 294.778491 376.407088 
z
" style="fill:#8eba42;"/>
   </g>
   <g id="patch_66">
    <path clip-path="url(#p855c8b4aad)" d="M 384.891808 142695.809921 
L 391.328473 142695.809921 
L 391.328473 371.27731 
L 384.891808 371.27731 
z
" style="fill:#8eba42;"/>
   </g>
   <g id="patch_67">
    <path clip-path="url(#p855c8b4aad)" d="M 475.005124 142695.809921 
L 481.44179 142695.809921 
L 481.44179 364.189212 
L 475.005124 364.189212 
z
" style="fill:#8eba42;"/>
   </g>
   <g id="patch_68">
    <path clip-path="url(#p855c8b4aad)" d="M 565.118441 142695.809921 
L 571.555106 142695.809921 
L 571.555106 341.127546 
L 565.118441 341.127546 
z
" style="fill:#8eba42;"/>
   </g>
   <g id="patch_69">
    <path clip-path="url(#p855c8b4aad)" d="M 655.231757 142695.809921 
L 661.668423 142695.809921 
L 661.668423 310.757237 
L 655.231757 310.757237 
z
" style="fill:#8eba42;"/>
   </g>
   <g id="patch_70">
    <path clip-path="url(#p855c8b4aad)" d="M 745.345074 142695.809921 
L 751.781739 142695.809921 
L 751.781739 259.463318 
L 745.345074 259.463318 
z
" style="fill:#8eba42;"/>
   </g>
   <g id="patch_71">
    <path clip-path="url(#p855c8b4aad)" d="M 835.45839 142695.809921 
L 841.895056 142695.809921 
L 841.895056 202.452294 
L 835.45839 202.452294 
z
" style="fill:#8eba42;"/>
   </g>
   <g id="patch_72">
    <path clip-path="url(#p855c8b4aad)" d="M 925.571707 142695.809921 
L 932.008372 142695.809921 
L 932.008372 192.621157 
L 925.571707 192.621157 
z
" style="fill:#8eba42;"/>
   </g>
   <g id="patch_73">
    <path clip-path="url(#p855c8b4aad)" d="M 1015.685023 142695.809921 
L 1022.121689 142695.809921 
L 1022.121689 177.040547 
L 1015.685023 177.040547 
z
" style="fill:#8eba42;"/>
   </g>
   <g id="patch_74">
    <path clip-path="url(#p855c8b4aad)" d="M 1105.79834 142695.809921 
L 1112.235005 142695.809921 
L 1112.235005 154.662238 
L 1105.79834 154.662238 
z
" style="fill:#8eba42;"/>
   </g>
   <g id="patch_75">
    <path clip-path="url(#p855c8b4aad)" d="M 120.988523 142695.809921 
L 127.425189 142695.809921 
L 127.425189 406.402967 
L 120.988523 406.402967 
z
" style="fill:#ffb5b8;"/>
   </g>
   <g id="patch_76">
    <path clip-path="url(#p855c8b4aad)" d="M 211.10184 142695.809921 
L 217.538506 142695.809921 
L 217.538506 398.398132 
L 211.10184 398.398132 
z
" style="fill:#ffb5b8;"/>
   </g>
   <g id="patch_77">
    <path clip-path="url(#p855c8b4aad)" d="M 301.215157 142695.809921 
L 307.651822 142695.809921 
L 307.651822 400.877428 
L 301.215157 400.877428 
z
" style="fill:#ffb5b8;"/>
   </g>
   <g id="patch_78">
    <path clip-path="url(#p855c8b4aad)" d="M 391.328473 142695.809921 
L 397.765139 142695.809921 
L 397.765139 388.635262 
L 391.328473 388.635262 
z
" style="fill:#ffb5b8;"/>
   </g>
   <g id="patch_79">
    <path clip-path="url(#p855c8b4aad)" d="M 481.44179 142695.809921 
L 487.878455 142695.809921 
L 487.878455 381.203303 
L 481.44179 381.203303 
z
" style="fill:#ffb5b8;"/>
   </g>
   <g id="patch_80">
    <path clip-path="url(#p855c8b4aad)" d="M 571.555106 142695.809921 
L 577.991772 142695.809921 
L 577.991772 363.535687 
L 571.555106 363.535687 
z
" style="fill:#ffb5b8;"/>
   </g>
   <g id="patch_81">
    <path clip-path="url(#p855c8b4aad)" d="M 661.668423 142695.809921 
L 668.105088 142695.809921 
L 668.105088 348.729877 
L 661.668423 348.729877 
z
" style="fill:#ffb5b8;"/>
   </g>
   <g id="patch_82">
    <path clip-path="url(#p855c8b4aad)" d="M 751.781739 142695.809921 
L 758.218405 142695.809921 
L 758.218405 297.959631 
L 751.781739 297.959631 
z
" style="fill:#ffb5b8;"/>
   </g>
   <g id="patch_83">
    <path clip-path="url(#p855c8b4aad)" d="M 841.895056 142695.809921 
L 848.331721 142695.809921 
L 848.331721 265.736763 
L 841.895056 265.736763 
z
" style="fill:#ffb5b8;"/>
   </g>
   <g id="patch_84">
    <path clip-path="url(#p855c8b4aad)" d="M 932.008372 142695.809921 
L 938.445038 142695.809921 
L 938.445038 254.15262 
L 932.008372 254.15262 
z
" style="fill:#ffb5b8;"/>
   </g>
   <g id="patch_85">
    <path clip-path="url(#p855c8b4aad)" d="M 1022.121689 142695.809921 
L 1028.558354 142695.809921 
L 1028.558354 238.06213 
L 1022.121689 238.06213 
z
" style="fill:#ffb5b8;"/>
   </g>
   <g id="patch_86">
    <path clip-path="url(#p855c8b4aad)" d="M 1112.235005 142695.809921 
L 1118.671671 142695.809921 
L 1118.671671 214.868343 
L 1112.235005 214.868343 
z
" style="fill:#ffb5b8;"/>
   </g>
   <g id="patch_87">
    <path d="M 59.840202 527.56 
L 59.840202 10.8 
" style="fill:none;stroke:#ffffff;stroke-linecap:square;stroke-linejoin:miter;"/>
   </g>
   <g id="patch_88">
    <path d="M 1141.2 527.56 
L 1141.2 10.8 
" style="fill:none;stroke:#ffffff;stroke-linecap:square;stroke-linejoin:miter;"/>
   </g>
   <g id="patch_89">
    <path d="M 59.840202 527.56 
L 1141.2 527.56 
" style="fill:none;stroke:#ffffff;stroke-linecap:square;stroke-linejoin:miter;"/>
   </g>
   <g id="patch_90">
    <path d="M 59.840202 10.8 
L 1141.2 10.8 
" style="fill:none;stroke:#ffffff;stroke-linecap:square;stroke-linejoin:miter;"/>
   </g>
   <g id="legend_1">
    <g id="patch_91">
     <path d="M 69.640202 166.235 
L 245.572077 166.235 
Q 248.372077 166.235 248.372077 163.435 
L 248.372077 20.6 
Q 248.372077 17.8 245.572077 17.8 
L 69.640202 17.8 
Q 66.840202 17.8 66.840202 20.6 
L 66.840202 163.435 
Q 66.840202 166.235 69.640202 166.235 
z
" style="fill:#e5e5e5;opacity:0.8;stroke:#cccccc;stroke-linejoin:miter;stroke-width:0.5;"/>
    </g>
    <g id="patch_92">
     <path d="M 72.440202 34.037812 
L 100.440202 34.037812 
L 100.440202 24.237812 
L 72.440202 24.237812 
z
" style="fill:#e24a33;"/>
    </g>
    <g id="text_19">
     <!-- double_conversion -->
     <defs>
      <path d="M 30.609375 48.390625 
Q 23.390625 48.390625 19.1875 42.75 
Q 14.984375 37.109375 14.984375 27.296875 
Q 14.984375 17.484375 19.15625 11.84375 
Q 23.34375 6.203125 30.609375 6.203125 
Q 37.796875 6.203125 41.984375 11.859375 
Q 46.1875 17.53125 46.1875 27.296875 
Q 46.1875 37.015625 41.984375 42.703125 
Q 37.796875 48.390625 30.609375 48.390625 
z
M 30.609375 56 
Q 42.328125 56 49.015625 48.375 
Q 55.71875 40.765625 55.71875 27.296875 
Q 55.71875 13.875 49.015625 6.21875 
Q 42.328125 -1.421875 30.609375 -1.421875 
Q 18.84375 -1.421875 12.171875 6.21875 
Q 5.515625 13.875 5.515625 27.296875 
Q 5.515625 40.765625 12.171875 48.375 
Q 18.84375 56 30.609375 56 
z
" id="DejaVuSans-111"/>
      <path d="M 8.5 21.578125 
L 8.5 54.6875 
L 17.484375 54.6875 
L 17.484375 21.921875 
Q 17.484375 14.15625 20.5 10.265625 
Q 23.53125 6.390625 29.59375 6.390625 
Q 36.859375 6.390625 41.078125 11.03125 
Q 45.3125 15.671875 45.3125 23.6875 
L 45.3125 54.6875 
L 54.296875 54.6875 
L 54.296875 0 
L 45.3125 0 
L 45.3125 8.40625 
Q 42.046875 3.421875 37.71875 1 
Q 33.40625 -1.421875 27.6875 -1.421875 
Q 18.265625 -1.421875 13.375 4.4375 
Q 8.5 10.296875 8.5 21.578125 
z
M 31.109375 56 
z
" id="DejaVuSans-117"/>
      <path d="M 48.6875 27.296875 
Q 48.6875 37.203125 44.609375 42.84375 
Q 40.53125 48.484375 33.40625 48.484375 
Q 26.265625 48.484375 22.1875 42.84375 
Q 18.109375 37.203125 18.109375 27.296875 
Q 18.109375 17.390625 22.1875 11.75 
Q 26.265625 6.109375 33.40625 6.109375 
Q 40.53125 6.109375 44.609375 11.75 
Q 48.6875 17.390625 48.6875 27.296875 
z
M 18.109375 46.390625 
Q 20.953125 51.265625 25.265625 53.625 
Q 29.59375 56 35.59375 56 
Q 45.5625 56 51.78125 48.09375 
Q 58.015625 40.1875 58.015625 27.296875 
Q 58.015625 14.40625 51.78125 6.484375 
Q 45.5625 -1.421875 35.59375 -1.421875 
Q 29.59375 -1.421875 25.265625 0.953125 
Q 20.953125 3.328125 18.109375 8.203125 
L 18.109375 0 
L 9.078125 0 
L 9.078125 75.984375 
L 18.109375 75.984375 
z
" id="DejaVuSans-98"/>
      <path d="M 9.421875 75.984375 
L 18.40625 75.984375 
L 18.40625 0 
L 9.421875 0 
z
" id="DejaVuSans-108"/>
      <path d="M 50.984375 -16.609375 
L 50.984375 -23.578125 
L -0.984375 -23.578125 
L -0.984375 -16.609375 
z
" id="DejaVuSans-95"/>
      <path d="M 48.78125 52.59375 
L 48.78125 44.1875 
Q 44.96875 46.296875 41.140625 47.34375 
Q 37.3125 48.390625 33.40625 48.390625 
Q 24.65625 48.390625 19.8125 42.84375 
Q 14.984375 37.3125 14.984375 27.296875 
Q 14.984375 17.28125 19.8125 11.734375 
Q 24.65625 6.203125 33.40625 6.203125 
Q 37.3125 6.203125 41.140625 7.25 
Q 44.96875 8.296875 48.78125 10.40625 
L 48.78125 2.09375 
Q 45.015625 0.34375 40.984375 -0.53125 
Q 36.96875 -1.421875 32.421875 -1.421875 
Q 20.0625 -1.421875 12.78125 6.34375 
Q 5.515625 14.109375 5.515625 27.296875 
Q 5.515625 40.671875 12.859375 48.328125 
Q 20.21875 56 33.015625 56 
Q 37.15625 56 41.109375 55.140625 
Q 45.0625 54.296875 48.78125 52.59375 
z
" id="DejaVuSans-99"/>
      <path d="M 2.984375 54.6875 
L 12.5 54.6875 
L 29.59375 8.796875 
L 46.6875 54.6875 
L 56.203125 54.6875 
L 35.6875 0 
L 23.484375 0 
z
" id="DejaVuSans-118"/>
     </defs>
     <g transform="translate(111.640202 34.037812)scale(0.14 -0.14)">
      <use xlink:href="#DejaVuSans-100"/>
      <use x="63.476562" xlink:href="#DejaVuSans-111"/>
      <use x="124.658203" xlink:href="#DejaVuSans-117"/>
      <use x="188.037109" xlink:href="#DejaVuSans-98"/>
      <use x="251.513672" xlink:href="#DejaVuSans-108"/>
      <use x="279.296875" xlink:href="#DejaVuSans-101"/>
      <use x="340.820312" xlink:href="#DejaVuSans-95"/>
      <use x="390.820312" xlink:href="#DejaVuSans-99"/>
      <use x="445.800781" xlink:href="#DejaVuSans-111"/>
      <use x="506.982422" xlink:href="#DejaVuSans-110"/>
      <use x="570.361328" xlink:href="#DejaVuSans-118"/>
      <use x="629.541016" xlink:href="#DejaVuSans-101"/>
      <use x="691.064453" xlink:href="#DejaVuSans-114"/>
      <use x="732.177734" xlink:href="#DejaVuSans-115"/>
      <use x="784.277344" xlink:href="#DejaVuSans-105"/>
      <use x="812.060547" xlink:href="#DejaVuSans-111"/>
      <use x="873.242188" xlink:href="#DejaVuSans-110"/>
     </g>
    </g>
    <g id="patch_93">
     <path d="M 72.440202 54.976562 
L 100.440202 54.976562 
L 100.440202 45.176563 
L 72.440202 45.176563 
z
" style="fill:#348abd;"/>
    </g>
    <g id="text_20">
     <!-- golang -->
     <defs>
      <path d="M 34.28125 27.484375 
Q 23.390625 27.484375 19.1875 25 
Q 14.984375 22.515625 14.984375 16.5 
Q 14.984375 11.71875 18.140625 8.90625 
Q 21.296875 6.109375 26.703125 6.109375 
Q 34.1875 6.109375 38.703125 11.40625 
Q 43.21875 16.703125 43.21875 25.484375 
L 43.21875 27.484375 
z
M 52.203125 31.203125 
L 52.203125 0 
L 43.21875 0 
L 43.21875 8.296875 
Q 40.140625 3.328125 35.546875 0.953125 
Q 30.953125 -1.421875 24.3125 -1.421875 
Q 15.921875 -1.421875 10.953125 3.296875 
Q 6 8.015625 6 15.921875 
Q 6 25.140625 12.171875 29.828125 
Q 18.359375 34.515625 30.609375 34.515625 
L 43.21875 34.515625 
L 43.21875 35.40625 
Q 43.21875 41.609375 39.140625 45 
Q 35.0625 48.390625 27.6875 48.390625 
Q 23 48.390625 18.546875 47.265625 
Q 14.109375 46.140625 10.015625 43.890625 
L 10.015625 52.203125 
Q 14.9375 54.109375 19.578125 55.046875 
Q 24.21875 56 28.609375 56 
Q 40.484375 56 46.34375 49.84375 
Q 52.203125 43.703125 52.203125 31.203125 
z
" id="DejaVuSans-97"/>
     </defs>
     <g transform="translate(111.640202 54.976562)scale(0.14 -0.14)">
      <use xlink:href="#DejaVuSans-103"/>
      <use x="63.476562" xlink:href="#DejaVuSans-111"/>
      <use x="124.658203" xlink:href="#DejaVuSans-108"/>
      <use x="152.441406" xlink:href="#DejaVuSans-97"/>
      <use x="213.720703" xlink:href="#DejaVuSans-110"/>
      <use x="277.099609" xlink:href="#DejaVuSans-103"/>
     </g>
    </g>
    <g id="patch_94">
     <path d="M 72.440202 75.525937 
L 100.440202 75.525937 
L 100.440202 65.725937 
L 72.440202 65.725937 
z
" style="fill:#988ed5;"/>
    </g>
    <g id="text_21">
     <!-- lexical -->
     <defs>
      <path d="M 54.890625 54.6875 
L 35.109375 28.078125 
L 55.90625 0 
L 45.3125 0 
L 29.390625 21.484375 
L 13.484375 0 
L 2.875 0 
L 24.125 28.609375 
L 4.6875 54.6875 
L 15.28125 54.6875 
L 29.78125 35.203125 
L 44.28125 54.6875 
z
" id="DejaVuSans-120"/>
     </defs>
     <g transform="translate(111.640202 75.525937)scale(0.14 -0.14)">
      <use xlink:href="#DejaVuSans-108"/>
      <use x="27.783203" xlink:href="#DejaVuSans-101"/>
      <use x="89.291016" xlink:href="#DejaVuSans-120"/>
      <use x="148.470703" xlink:href="#DejaVuSans-105"/>
      <use x="176.253906" xlink:href="#DejaVuSans-99"/>
      <use x="231.234375" xlink:href="#DejaVuSans-97"/>
      <use x="292.513672" xlink:href="#DejaVuSans-108"/>
     </g>
    </g>
    <g id="patch_95">
     <path d="M 72.440202 96.075312 
L 100.440202 96.075312 
L 100.440202 86.275312 
L 72.440202 86.275312 
z
" style="fill:#777777;"/>
    </g>
    <g id="text_22">
     <!-- libcore -->
     <g transform="translate(111.640202 96.075312)scale(0.14 -0.14)">
      <use xlink:href="#DejaVuSans-108"/>
      <use x="27.783203" xlink:href="#DejaVuSans-105"/>
      <use x="55.566406" xlink:href="#DejaVuSans-98"/>
      <use x="119.042969" xlink:href="#DejaVuSans-99"/>
      <use x="174.023438" xlink:href="#DejaVuSans-111"/>
      <use x="235.205078" xlink:href="#DejaVuSans-114"/>
      <use x="276.287109" xlink:href="#DejaVuSans-101"/>
     </g>
    </g>
    <g id="patch_96">
     <path d="M 72.440202 116.624687 
L 100.440202 116.624687 
L 100.440202 106.824687 
L 72.440202 106.824687 
z
" style="fill:#fbc15e;"/>
    </g>
    <g id="text_23">
     <!-- python -->
     <defs>
      <path d="M 18.109375 8.203125 
L 18.109375 -20.796875 
L 9.078125 -20.796875 
L 9.078125 54.6875 
L 18.109375 54.6875 
L 18.109375 46.390625 
Q 20.953125 51.265625 25.265625 53.625 
Q 29.59375 56 35.59375 56 
Q 45.5625 56 51.78125 48.09375 
Q 58.015625 40.1875 58.015625 27.296875 
Q 58.015625 14.40625 51.78125 6.484375 
Q 45.5625 -1.421875 35.59375 -1.421875 
Q 29.59375 -1.421875 25.265625 0.953125 
Q 20.953125 3.328125 18.109375 8.203125 
z
M 48.6875 27.296875 
Q 48.6875 37.203125 44.609375 42.84375 
Q 40.53125 48.484375 33.40625 48.484375 
Q 26.265625 48.484375 22.1875 42.84375 
Q 18.109375 37.203125 18.109375 27.296875 
Q 18.109375 17.390625 22.1875 11.75 
Q 26.265625 6.109375 33.40625 6.109375 
Q 40.53125 6.109375 44.609375 11.75 
Q 48.6875 17.390625 48.6875 27.296875 
z
" id="DejaVuSans-112"/>
      <path d="M 32.171875 -5.078125 
Q 28.375 -14.84375 24.75 -17.8125 
Q 21.140625 -20.796875 15.09375 -20.796875 
L 7.90625 -20.796875 
L 7.90625 -13.28125 
L 13.1875 -13.28125 
Q 16.890625 -13.28125 18.9375 -11.515625 
Q 21 -9.765625 23.484375 -3.21875 
L 25.09375 0.875 
L 2.984375 54.6875 
L 12.5 54.6875 
L 29.59375 11.921875 
L 46.6875 54.6875 
L 56.203125 54.6875 
z
" id="DejaVuSans-121"/>
      <path d="M 54.890625 33.015625 
L 54.890625 0 
L 45.90625 0 
L 45.90625 32.71875 
Q 45.90625 40.484375 42.875 44.328125 
Q 39.84375 48.1875 33.796875 48.1875 
Q 26.515625 48.1875 22.3125 43.546875 
Q 18.109375 38.921875 18.109375 30.90625 
L 18.109375 0 
L 9.078125 0 
L 9.078125 75.984375 
L 18.109375 75.984375 
L 18.109375 46.1875 
Q 21.34375 51.125 25.703125 53.5625 
Q 30.078125 56 35.796875 56 
Q 45.21875 56 50.046875 50.171875 
Q 54.890625 44.34375 54.890625 33.015625 
z
" id="DejaVuSans-104"/>
     </defs>
     <g transform="translate(111.640202 116.624687)scale(0.14 -0.14)">
      <use xlink:href="#DejaVuSans-112"/>
      <use x="63.476562" xlink:href="#DejaVuSans-121"/>
      <use x="122.65625" xlink:href="#DejaVuSans-116"/>
      <use x="161.865234" xlink:href="#DejaVuSans-104"/>
      <use x="225.244141" xlink:href="#DejaVuSans-111"/>
      <use x="286.425781" xlink:href="#DejaVuSans-110"/>
     </g>
    </g>
    <g id="patch_97">
     <path d="M 72.440202 137.174062 
L 100.440202 137.174062 
L 100.440202 127.374062 
L 72.440202 127.374062 
z
" style="fill:#8eba42;"/>
    </g>
    <g id="text_24">
     <!-- rapidjson -->
     <defs>
      <path d="M 9.421875 54.6875 
L 18.40625 54.6875 
L 18.40625 -0.984375 
Q 18.40625 -11.421875 14.421875 -16.109375 
Q 10.453125 -20.796875 1.609375 -20.796875 
L -1.8125 -20.796875 
L -1.8125 -13.1875 
L 0.59375 -13.1875 
Q 5.71875 -13.1875 7.5625 -10.8125 
Q 9.421875 -8.453125 9.421875 -0.984375 
z
M 9.421875 75.984375 
L 18.40625 75.984375 
L 18.40625 64.59375 
L 9.421875 64.59375 
z
" id="DejaVuSans-106"/>
     </defs>
     <g transform="translate(111.640202 137.174062)scale(0.14 -0.14)">
      <use xlink:href="#DejaVuSans-114"/>
      <use x="41.113281" xlink:href="#DejaVuSans-97"/>
      <use x="102.392578" xlink:href="#DejaVuSans-112"/>
      <use x="165.869141" xlink:href="#DejaVuSans-105"/>
      <use x="193.652344" xlink:href="#DejaVuSans-100"/>
      <use x="257.128906" xlink:href="#DejaVuSans-106"/>
      <use x="284.912109" xlink:href="#DejaVuSans-115"/>
      <use x="337.011719" xlink:href="#DejaVuSans-111"/>
      <use x="398.193359" xlink:href="#DejaVuSans-110"/>
     </g>
    </g>
    <g id="patch_98">
     <path d="M 72.440202 157.723437 
L 100.440202 157.723437 
L 100.440202 147.923437 
L 72.440202 147.923437 
z
" style="fill:#ffb5b8;"/>
    </g>
    <g id="text_25">
     <!-- strtod -->
     <g transform="translate(111.640202 157.723437)scale(0.14 -0.14)">
      <use xlink:href="#DejaVuSans-115"/>
      <use x="52.099609" xlink:href="#DejaVuSans-116"/>
      <use x="91.308594" xlink:href="#DejaVuSans-114"/>
      <use x="132.421875" xlink:href="#DejaVuSans-116"/>
      <use x="171.630859" xlink:href="#DejaVuSans-111"/>
      <use x="232.8125" xlink:href="#DejaVuSans-100"/>
     </g>
    </g>
   </g>
  </g>
 </g>
 <defs>
  <clipPath id="p855c8b4aad">
   <rect height="516.76" width="1081.359798" x="59.840202" y="10.8"/>
  </clipPath>
 </defs>
</svg>
